<svg width="75" height="100" viewBox="0 0 75 100" fill="none" xmlns="http://www.w3.org/2000/svg">
<path d="M31.0923 38.9972C30.7739 38.8761 30.3031 38.2432 30.3031 37.2685C30.3031 36.2782 30.7641 35.6571 31.0923 35.534C31.899 35.2293 32.3072 34.3289 32.0025 33.5221C31.6978 32.7154 30.7954 32.3072 29.9887 32.6119C28.3088 33.2467 27.1799 35.118 27.1799 37.2685C27.1799 39.4152 28.3088 41.2825 29.9887 41.9173C30.1703 41.9857 30.3578 42.0189 30.5414 42.0189C31.1724 42.0189 31.7661 41.6341 32.0025 41.0091C32.3072 40.2024 31.899 39.3019 31.0923 38.9972ZM44.5562 32.6139C43.7495 32.3072 42.8471 32.7135 42.5424 33.5182C42.2357 34.3249 42.64 35.2274 43.4468 35.5321C43.7651 35.6532 44.2339 36.288 44.2339 37.2685C44.2339 38.2432 43.7651 38.8761 43.4468 38.9972C42.64 39.3039 42.2357 40.2063 42.5424 41.011C42.6544 41.3073 42.8541 41.5625 43.1147 41.7425C43.3754 41.9226 43.6847 42.019 44.0015 42.0189C44.1851 42.0189 44.3726 41.9857 44.5562 41.9173C46.2302 41.2806 47.3572 39.4132 47.3572 37.2685C47.3572 35.1199 46.2302 33.2487 44.5562 32.6139ZM31.0923 38.9972C30.7739 38.8761 30.3031 38.2432 30.3031 37.2685C30.3031 36.2782 30.7641 35.6571 31.0923 35.534C31.899 35.2293 32.3072 34.3289 32.0025 33.5221C31.6978 32.7154 30.7954 32.3072 29.9887 32.6119C28.3088 33.2467 27.1799 35.118 27.1799 37.2685C27.1799 39.4152 28.3088 41.2825 29.9887 41.9173C30.1703 41.9857 30.3578 42.0189 30.5414 42.0189C31.1724 42.0189 31.7661 41.6341 32.0025 41.0091C32.3072 40.2024 31.899 39.3019 31.0923 38.9972ZM44.5562 32.6139C43.7495 32.3072 42.8471 32.7135 42.5424 33.5182C42.2357 34.3249 42.64 35.2274 43.4468 35.5321C43.7651 35.6532 44.2339 36.288 44.2339 37.2685C44.2339 38.2432 43.7651 38.8761 43.4468 38.9972C42.64 39.3039 42.2357 40.2063 42.5424 41.011C42.6544 41.3073 42.8541 41.5625 43.1147 41.7425C43.3754 41.9226 43.6847 42.019 44.0015 42.0189C44.1851 42.0189 44.3726 41.9857 44.5562 41.9173C46.2302 41.2806 47.3572 39.4132 47.3572 37.2685C47.3572 35.1199 46.2302 33.2487 44.5562 32.6139ZM31.0923 38.9972C30.7739 38.8761 30.3031 38.2432 30.3031 37.2685C30.3031 36.2782 30.7641 35.6571 31.0923 35.534C31.899 35.2293 32.3072 34.3289 32.0025 33.5221C31.6978 32.7154 30.7954 32.3072 29.9887 32.6119C28.3088 33.2467 27.1799 35.118 27.1799 37.2685C27.1799 39.4152 28.3088 41.2825 29.9887 41.9173C30.1703 41.9857 30.3578 42.0189 30.5414 42.0189C31.1724 42.0189 31.7661 41.6341 32.0025 41.0091C32.3072 40.2024 31.899 39.3019 31.0923 38.9972ZM44.5562 32.6139C43.7495 32.3072 42.8471 32.7135 42.5424 33.5182C42.2357 34.3249 42.64 35.2274 43.4468 35.5321C43.7651 35.6532 44.2339 36.288 44.2339 37.2685C44.2339 38.2432 43.7651 38.8761 43.4468 38.9972C42.64 39.3039 42.2357 40.2063 42.5424 41.011C42.6544 41.3073 42.8541 41.5625 43.1147 41.7425C43.3754 41.9226 43.6847 42.019 44.0015 42.0189C44.1851 42.0189 44.3726 41.9857 44.5562 41.9173C46.2302 41.2806 47.3572 39.4132 47.3572 37.2685C47.3572 35.1199 46.2302 33.2487 44.5562 32.6139ZM44.5562 32.6139C43.7495 32.3072 42.8471 32.7135 42.5424 33.5182C42.2357 34.3249 42.64 35.2274 43.4468 35.5321C43.7651 35.6532 44.2339 36.288 44.2339 37.2685C44.2339 38.2432 43.7651 38.8761 43.4468 38.9972C42.64 39.3039 42.2357 40.2063 42.5424 41.011C42.6544 41.3073 42.8541 41.5625 43.1147 41.7425C43.3754 41.9226 43.6847 42.019 44.0015 42.0189C44.1851 42.0189 44.3726 41.9857 44.5562 41.9173C46.2302 41.2806 47.3572 39.4132 47.3572 37.2685C47.3572 35.1199 46.2302 33.2487 44.5562 32.6139ZM31.0923 38.9972C30.7739 38.8761 30.3031 38.2432 30.3031 37.2685C30.3031 36.2782 30.7641 35.6571 31.0923 35.534C31.899 35.2293 32.3072 34.3289 32.0025 33.5221C31.6978 32.7154 30.7954 32.3072 29.9887 32.6119C28.3088 33.2467 27.1799 35.118 27.1799 37.2685C27.1799 39.4152 28.3088 41.2825 29.9887 41.9173C30.1703 41.9857 30.3578 42.0189 30.5414 42.0189C31.1724 42.0189 31.7661 41.6341 32.0025 41.0091C32.3072 40.2024 31.899 39.3019 31.0923 38.9972ZM54.0902 37.2627C54.0902 35.0359 53.1917 33.0416 51.754 31.8873C51.8224 31.5259 51.8576 31.1567 51.8576 30.7837C51.8576 27.549 49.2402 24.9121 46.0114 24.8828C45.6422 22.3865 43.4858 20.4645 40.8899 20.4645C39.4816 20.4645 38.2042 21.027 37.2685 21.9412C36.3349 21.027 35.0594 20.4645 33.653 20.4645C31.0532 20.4645 28.8948 22.3865 28.5257 24.8828C25.2989 24.9141 22.6854 27.551 22.6854 30.7837C22.6854 31.1587 22.7186 31.5259 22.785 31.8853C21.3513 33.0397 20.4528 35.034 20.4528 37.2627C20.4528 39.4933 21.3513 41.4896 22.785 42.6459C22.7186 43.0053 22.6854 43.3725 22.6854 43.7456C22.6854 46.9802 25.2989 49.6152 28.5257 49.6484C28.8948 52.1447 31.0532 54.0667 33.653 54.0667C35.0594 54.0667 36.3349 53.5022 37.2685 52.59C38.2042 53.5022 39.4816 54.0667 40.8899 54.0667C43.4858 54.0667 45.6422 52.1447 46.0114 49.6484C49.2402 49.6191 51.8576 46.9822 51.8576 43.7456C51.8576 43.3725 51.8224 43.0053 51.754 42.644C53.1917 41.4876 54.0902 39.4914 54.0902 37.2627ZM35.7079 48.8905C35.7079 50.0215 34.7859 50.9434 33.653 50.9434C32.5182 50.9434 31.5923 50.0215 31.5923 48.8905C31.5923 48.6718 31.6255 48.4647 31.69 48.2713C31.7115 48.2088 31.7251 48.1463 31.7388 48.0819C31.7701 48.035 31.8013 47.9881 31.8267 47.9373C32.0787 47.4549 32.5182 47.0857 33.0319 46.9255C33.8562 46.6697 34.3152 45.7946 34.0593 44.9703C33.8015 44.148 32.9264 43.689 32.1041 43.9448C30.8051 44.3492 29.6976 45.2731 29.0648 46.4821C28.9066 46.5095 28.7483 46.5251 28.5862 46.5251C27.0548 46.5251 25.8067 45.2789 25.8067 43.7456C25.8067 43.3393 25.8907 42.9487 26.0567 42.5873C26.2384 42.1947 26.2481 41.7454 26.0841 41.345C25.92 40.9446 25.5977 40.6301 25.1934 40.4758C24.4082 40.1789 23.5761 38.9503 23.5761 37.2627C23.5761 35.5594 24.3886 34.3601 25.1934 34.0554C25.5977 33.9011 25.92 33.5866 26.0841 33.1862C26.2481 32.7858 26.2384 32.3365 26.0567 31.9419C25.8907 31.5806 25.8067 31.1919 25.8067 30.7837C25.8067 29.2523 27.0548 28.0041 28.5862 28.0041C28.7483 28.0041 28.9105 28.0198 29.0687 28.0471C29.6996 29.2523 30.7954 30.1742 32.0982 30.5844C32.493 30.7084 32.9208 30.6709 33.2879 30.4802C33.6551 30.2895 33.9318 29.961 34.0573 29.5668C34.3171 28.7444 33.8601 27.8655 33.0377 27.6076C32.5045 27.4377 32.0591 27.0568 31.813 26.5607C31.7881 26.5089 31.7601 26.4586 31.729 26.4103C31.7173 26.3595 31.7076 26.3087 31.69 26.2599C31.6255 26.0665 31.5923 25.8575 31.5923 25.6407C31.5923 24.5078 32.5182 23.5858 33.653 23.5858C34.7859 23.5858 35.7079 24.5078 35.7079 25.6407V48.8905ZM49.3437 40.4758C48.9394 40.6301 48.6171 40.9446 48.453 41.345C48.2889 41.7454 48.2987 42.1947 48.4803 42.5873C48.6483 42.9565 48.7362 43.3471 48.7362 43.7456C48.7362 45.2789 47.4881 46.5251 45.9567 46.5251C45.7926 46.5251 45.6305 46.5095 45.4743 46.4821C44.8385 45.2712 43.7505 44.3601 42.4467 43.9468C41.6243 43.6851 40.7473 44.1421 40.4856 44.9625C40.2258 45.7848 40.6809 46.6638 41.5032 46.9236C42.0697 47.1033 42.5326 47.5174 42.7709 48.0604C42.7865 48.0956 42.8061 48.1288 42.8237 48.162C42.8315 48.1913 42.8354 48.2206 42.8451 48.2499C42.9115 48.455 42.9428 48.6698 42.9428 48.8905C42.9428 50.0215 42.0228 50.9434 40.8899 50.9434C39.7531 50.9434 38.8292 50.0215 38.8292 48.8905V25.6407C38.8292 24.5078 39.7531 23.5858 40.8899 23.5858C42.0228 23.5858 42.9428 24.5078 42.9428 25.6407C42.9428 25.8497 42.9135 26.0548 42.853 26.2521C42.6518 26.8986 42.1478 27.4045 41.5071 27.6057C40.6848 27.8635 40.2277 28.7405 40.4856 29.5629C40.5468 29.7586 40.646 29.9403 40.7776 30.0977C40.9091 30.255 41.0704 30.3848 41.2522 30.4797C41.434 30.5746 41.6328 30.6327 41.8371 30.6507C42.0414 30.6686 42.2472 30.6461 42.4428 30.5844C43.7593 30.1723 44.8433 29.2523 45.4762 28.0471C45.6325 28.0198 45.7926 28.0041 45.9567 28.0041C47.4881 28.0041 48.7362 29.2523 48.7362 30.7837C48.7362 31.1841 48.6483 31.5728 48.4803 31.9419C48.2987 32.3346 48.2889 32.7858 48.453 33.1862C48.6171 33.5866 48.9394 33.9011 49.3437 34.0554C50.1504 34.3601 50.9669 35.5614 50.9669 37.2627C50.9669 38.9503 50.1309 40.177 49.3437 40.4758ZM44.5562 32.6139C43.7495 32.3072 42.8471 32.7135 42.5424 33.5182C42.2357 34.3249 42.64 35.2274 43.4468 35.5321C43.7651 35.6532 44.2339 36.288 44.2339 37.2685C44.2339 38.2432 43.7651 38.8761 43.4468 38.9972C42.64 39.3039 42.2357 40.2063 42.5424 41.011C42.6544 41.3073 42.8541 41.5625 43.1147 41.7425C43.3754 41.9226 43.6847 42.019 44.0015 42.0189C44.1851 42.0189 44.3726 41.9857 44.5562 41.9173C46.2302 41.2806 47.3572 39.4132 47.3572 37.2685C47.3572 35.1199 46.2302 33.2487 44.5562 32.6139ZM31.0923 35.534C31.899 35.2293 32.3072 34.3289 32.0025 33.5221C31.6978 32.7154 30.7954 32.3072 29.9887 32.6119C28.3088 33.2467 27.1799 35.118 27.1799 37.2685C27.1799 39.4152 28.3088 41.2825 29.9887 41.9173C30.1703 41.9857 30.3578 42.0189 30.5414 42.0189C31.1724 42.0189 31.7661 41.6341 32.0025 41.0091C32.3072 40.2024 31.899 39.3019 31.0923 38.9972C30.7739 38.8761 30.3031 38.2432 30.3031 37.2685C30.3031 36.2782 30.7641 35.6571 31.0923 35.534ZM31.0923 38.9972C30.7739 38.8761 30.3031 38.2432 30.3031 37.2685C30.3031 36.2782 30.7641 35.6571 31.0923 35.534C31.899 35.2293 32.3072 34.3289 32.0025 33.5221C31.6978 32.7154 30.7954 32.3072 29.9887 32.6119C28.3088 33.2467 27.1799 35.118 27.1799 37.2685C27.1799 39.4152 28.3088 41.2825 29.9887 41.9173C30.1703 41.9857 30.3578 42.0189 30.5414 42.0189C31.1724 42.0189 31.7661 41.6341 32.0025 41.0091C32.3072 40.2024 31.899 39.3019 31.0923 38.9972ZM44.5562 32.6139C43.7495 32.3072 42.8471 32.7135 42.5424 33.5182C42.2357 34.3249 42.64 35.2274 43.4468 35.5321C43.7651 35.6532 44.2339 36.288 44.2339 37.2685C44.2339 38.2432 43.7651 38.8761 43.4468 38.9972C42.64 39.3039 42.2357 40.2063 42.5424 41.011C42.6544 41.3073 42.8541 41.5625 43.1147 41.7425C43.3754 41.9226 43.6847 42.019 44.0015 42.0189C44.1851 42.0189 44.3726 41.9857 44.5562 41.9173C46.2302 41.2806 47.3572 39.4132 47.3572 37.2685C47.3572 35.1199 46.2302 33.2487 44.5562 32.6139ZM44.5562 32.6139C43.7495 32.3072 42.8471 32.7135 42.5424 33.5182C42.2357 34.3249 42.64 35.2274 43.4468 35.5321C43.7651 35.6532 44.2339 36.288 44.2339 37.2685C44.2339 38.2432 43.7651 38.8761 43.4468 38.9972C42.64 39.3039 42.2357 40.2063 42.5424 41.011C42.6544 41.3073 42.8541 41.5625 43.1147 41.7425C43.3754 41.9226 43.6847 42.019 44.0015 42.0189C44.1851 42.0189 44.3726 41.9857 44.5562 41.9173C46.2302 41.2806 47.3572 39.4132 47.3572 37.2685C47.3572 35.1199 46.2302 33.2487 44.5562 32.6139ZM31.0923 38.9972C30.7739 38.8761 30.3031 38.2432 30.3031 37.2685C30.3031 36.2782 30.7641 35.6571 31.0923 35.534C31.899 35.2293 32.3072 34.3289 32.0025 33.5221C31.6978 32.7154 30.7954 32.3072 29.9887 32.6119C28.3088 33.2467 27.1799 35.118 27.1799 37.2685C27.1799 39.4152 28.3088 41.2825 29.9887 41.9173C30.1703 41.9857 30.3578 42.0189 30.5414 42.0189C31.1724 42.0189 31.7661 41.6341 32.0025 41.0091C32.3072 40.2024 31.899 39.3019 31.0923 38.9972ZM31.0923 38.9972C30.7739 38.8761 30.3031 38.2432 30.3031 37.2685C30.3031 36.2782 30.7641 35.6571 31.0923 35.534C31.899 35.2293 32.3072 34.3289 32.0025 33.5221C31.6978 32.7154 30.7954 32.3072 29.9887 32.6119C28.3088 33.2467 27.1799 35.118 27.1799 37.2685C27.1799 39.4152 28.3088 41.2825 29.9887 41.9173C30.1703 41.9857 30.3578 42.0189 30.5414 42.0189C31.1724 42.0189 31.7661 41.6341 32.0025 41.0091C32.3072 40.2024 31.899 39.3019 31.0923 38.9972ZM44.5562 32.6139C43.7495 32.3072 42.8471 32.7135 42.5424 33.5182C42.2357 34.3249 42.64 35.2274 43.4468 35.5321C43.7651 35.6532 44.2339 36.288 44.2339 37.2685C44.2339 38.2432 43.7651 38.8761 43.4468 38.9972C42.64 39.3039 42.2357 40.2063 42.5424 41.011C42.6544 41.3073 42.8541 41.5625 43.1147 41.7425C43.3754 41.9226 43.6847 42.019 44.0015 42.0189C44.1851 42.0189 44.3726 41.9857 44.5562 41.9173C46.2302 41.2806 47.3572 39.4132 47.3572 37.2685C47.3572 35.1199 46.2302 33.2487 44.5562 32.6139ZM44.5562 32.6139C43.7495 32.3072 42.8471 32.7135 42.5424 33.5182C42.2357 34.3249 42.64 35.2274 43.4468 35.5321C43.7651 35.6532 44.2339 36.288 44.2339 37.2685C44.2339 38.2432 43.7651 38.8761 43.4468 38.9972C42.64 39.3039 42.2357 40.2063 42.5424 41.011C42.6544 41.3073 42.8541 41.5625 43.1147 41.7425C43.3754 41.9226 43.6847 42.019 44.0015 42.0189C44.1851 42.0189 44.3726 41.9857 44.5562 41.9173C46.2302 41.2806 47.3572 39.4132 47.3572 37.2685C47.3572 35.1199 46.2302 33.2487 44.5562 32.6139ZM31.0923 38.9972C30.7739 38.8761 30.3031 38.2432 30.3031 37.2685C30.3031 36.2782 30.7641 35.6571 31.0923 35.534C31.899 35.2293 32.3072 34.3289 32.0025 33.5221C31.6978 32.7154 30.7954 32.3072 29.9887 32.6119C28.3088 33.2467 27.1799 35.118 27.1799 37.2685C27.1799 39.4152 28.3088 41.2825 29.9887 41.9173C30.1703 41.9857 30.3578 42.0189 30.5414 42.0189C31.1724 42.0189 31.7661 41.6341 32.0025 41.0091C32.3072 40.2024 31.899 39.3019 31.0923 38.9972ZM54.0902 37.2627C54.0902 35.0359 53.1917 33.0416 51.754 31.8873C51.8224 31.5259 51.8576 31.1567 51.8576 30.7837C51.8576 27.549 49.2402 24.9121 46.0114 24.8828C45.6422 22.3865 43.4858 20.4645 40.8899 20.4645C39.4816 20.4645 38.2042 21.027 37.2685 21.9412C36.3349 21.027 35.0594 20.4645 33.653 20.4645C31.0532 20.4645 28.8948 22.3865 28.5257 24.8828C25.2989 24.9141 22.6854 27.551 22.6854 30.7837C22.6854 31.1587 22.7186 31.5259 22.785 31.8853C21.3513 33.0397 20.4528 35.034 20.4528 37.2627C20.4528 39.4933 21.3513 41.4896 22.785 42.6459C22.7186 43.0053 22.6854 43.3725 22.6854 43.7456C22.6854 46.9802 25.2989 49.6152 28.5257 49.6484C28.8948 52.1447 31.0532 54.0667 33.653 54.0667C35.0594 54.0667 36.3349 53.5022 37.2685 52.59C38.2042 53.5022 39.4816 54.0667 40.8899 54.0667C43.4858 54.0667 45.6422 52.1447 46.0114 49.6484C49.2402 49.6191 51.8576 46.9822 51.8576 43.7456C51.8576 43.3725 51.8224 43.0053 51.754 42.644C53.1917 41.4876 54.0902 39.4914 54.0902 37.2627ZM35.7079 48.8905C35.7079 50.0215 34.7859 50.9434 33.653 50.9434C32.5182 50.9434 31.5923 50.0215 31.5923 48.8905C31.5923 48.6718 31.6255 48.4647 31.69 48.2713C31.7115 48.2088 31.7251 48.1463 31.7388 48.0819C31.7701 48.035 31.8013 47.9881 31.8267 47.9373C32.0787 47.4549 32.5182 47.0857 33.0319 46.9255C33.8562 46.6697 34.3152 45.7946 34.0593 44.9703C33.8015 44.148 32.9264 43.689 32.1041 43.9448C30.8051 44.3492 29.6976 45.2731 29.0648 46.4821C28.9066 46.5095 28.7483 46.5251 28.5862 46.5251C27.0548 46.5251 25.8067 45.2789 25.8067 43.7456C25.8067 43.3393 25.8907 42.9487 26.0567 42.5873C26.2384 42.1947 26.2481 41.7454 26.0841 41.345C25.92 40.9446 25.5977 40.6301 25.1934 40.4758C24.4082 40.1789 23.5761 38.9503 23.5761 37.2627C23.5761 35.5594 24.3886 34.3601 25.1934 34.0554C25.5977 33.9011 25.92 33.5866 26.0841 33.1862C26.2481 32.7858 26.2384 32.3365 26.0567 31.9419C25.8907 31.5806 25.8067 31.1919 25.8067 30.7837C25.8067 29.2523 27.0548 28.0041 28.5862 28.0041C28.7483 28.0041 28.9105 28.0198 29.0687 28.0471C29.6996 29.2523 30.7954 30.1742 32.0982 30.5844C32.493 30.7084 32.9208 30.6709 33.2879 30.4802C33.6551 30.2895 33.9318 29.961 34.0573 29.5668C34.3171 28.7444 33.8601 27.8655 33.0377 27.6076C32.5045 27.4377 32.0591 27.0568 31.813 26.5607C31.7881 26.5089 31.7601 26.4586 31.729 26.4103C31.7173 26.3595 31.7076 26.3087 31.69 26.2599C31.6255 26.0665 31.5923 25.8575 31.5923 25.6407C31.5923 24.5078 32.5182 23.5858 33.653 23.5858C34.7859 23.5858 35.7079 24.5078 35.7079 25.6407V48.8905ZM49.3437 40.4758C48.9394 40.6301 48.6171 40.9446 48.453 41.345C48.2889 41.7454 48.2987 42.1947 48.4803 42.5873C48.6483 42.9565 48.7362 43.3471 48.7362 43.7456C48.7362 45.2789 47.4881 46.5251 45.9567 46.5251C45.7926 46.5251 45.6305 46.5095 45.4743 46.4821C44.8385 45.2712 43.7505 44.3601 42.4467 43.9468C41.6243 43.6851 40.7473 44.1421 40.4856 44.9625C40.2258 45.7848 40.6809 46.6638 41.5032 46.9236C42.0697 47.1033 42.5326 47.5174 42.7709 48.0604C42.7865 48.0956 42.8061 48.1288 42.8237 48.162C42.8315 48.1913 42.8354 48.2206 42.8451 48.2499C42.9115 48.455 42.9428 48.6698 42.9428 48.8905C42.9428 50.0215 42.0228 50.9434 40.8899 50.9434C39.7531 50.9434 38.8292 50.0215 38.8292 48.8905V25.6407C38.8292 24.5078 39.7531 23.5858 40.8899 23.5858C42.0228 23.5858 42.9428 24.5078 42.9428 25.6407C42.9428 25.8497 42.9135 26.0548 42.853 26.2521C42.6518 26.8986 42.1478 27.4045 41.5071 27.6057C40.6848 27.8635 40.2277 28.7405 40.4856 29.5629C40.5468 29.7586 40.646 29.9403 40.7776 30.0977C40.9091 30.255 41.0704 30.3848 41.2522 30.4797C41.434 30.5746 41.6328 30.6327 41.8371 30.6507C42.0414 30.6686 42.2472 30.6461 42.4428 30.5844C43.7593 30.1723 44.8433 29.2523 45.4762 28.0471C45.6325 28.0198 45.7926 28.0041 45.9567 28.0041C47.4881 28.0041 48.7362 29.2523 48.7362 30.7837C48.7362 31.1841 48.6483 31.5728 48.4803 31.9419C48.2987 32.3346 48.2889 32.7858 48.453 33.1862C48.6171 33.5866 48.9394 33.9011 49.3437 34.0554C50.1504 34.3601 50.9669 35.5614 50.9669 37.2627C50.9669 38.9503 50.1309 40.177 49.3437 40.4758ZM44.5562 32.6139C43.7495 32.3072 42.8471 32.7135 42.5424 33.5182C42.2357 34.3249 42.64 35.2274 43.4468 35.5321C43.7651 35.6532 44.2339 36.288 44.2339 37.2685C44.2339 38.2432 43.7651 38.8761 43.4468 38.9972C42.64 39.3039 42.2357 40.2063 42.5424 41.011C42.6544 41.3073 42.8541 41.5625 43.1147 41.7425C43.3754 41.9226 43.6847 42.019 44.0015 42.0189C44.1851 42.0189 44.3726 41.9857 44.5562 41.9173C46.2302 41.2806 47.3572 39.4132 47.3572 37.2685C47.3572 35.1199 46.2302 33.2487 44.5562 32.6139ZM31.0923 35.534C31.899 35.2293 32.3072 34.3289 32.0025 33.5221C31.6978 32.7154 30.7954 32.3072 29.9887 32.6119C28.3088 33.2467 27.1799 35.118 27.1799 37.2685C27.1799 39.4152 28.3088 41.2825 29.9887 41.9173C30.1703 41.9857 30.3578 42.0189 30.5414 42.0189C31.1724 42.0189 31.7661 41.6341 32.0025 41.0091C32.3072 40.2024 31.899 39.3019 31.0923 38.9972C30.7739 38.8761 30.3031 38.2432 30.3031 37.2685C30.3031 36.2782 30.7641 35.6571 31.0923 35.534ZM31.0923 38.9972C30.7739 38.8761 30.3031 38.2432 30.3031 37.2685C30.3031 36.2782 30.7641 35.6571 31.0923 35.534C31.899 35.2293 32.3072 34.3289 32.0025 33.5221C31.6978 32.7154 30.7954 32.3072 29.9887 32.6119C28.3088 33.2467 27.1799 35.118 27.1799 37.2685C27.1799 39.4152 28.3088 41.2825 29.9887 41.9173C30.1703 41.9857 30.3578 42.0189 30.5414 42.0189C31.1724 42.0189 31.7661 41.6341 32.0025 41.0091C32.3072 40.2024 31.899 39.3019 31.0923 38.9972ZM44.5562 32.6139C43.7495 32.3072 42.8471 32.7135 42.5424 33.5182C42.2357 34.3249 42.64 35.2274 43.4468 35.5321C43.7651 35.6532 44.2339 36.288 44.2339 37.2685C44.2339 38.2432 43.7651 38.8761 43.4468 38.9972C42.64 39.3039 42.2357 40.2063 42.5424 41.011C42.6544 41.3073 42.8541 41.5625 43.1147 41.7425C43.3754 41.9226 43.6847 42.019 44.0015 42.0189C44.1851 42.0189 44.3726 41.9857 44.5562 41.9173C46.2302 41.2806 47.3572 39.4132 47.3572 37.2685C47.3572 35.1199 46.2302 33.2487 44.5562 32.6139ZM44.5562 32.6139C43.7495 32.3072 42.8471 32.7135 42.5424 33.5182C42.2357 34.3249 42.64 35.2274 43.4468 35.5321C43.7651 35.6532 44.2339 36.288 44.2339 37.2685C44.2339 38.2432 43.7651 38.8761 43.4468 38.9972C42.64 39.3039 42.2357 40.2063 42.5424 41.011C42.6544 41.3073 42.8541 41.5625 43.1147 41.7425C43.3754 41.9226 43.6847 42.019 44.0015 42.0189C44.1851 42.0189 44.3726 41.9857 44.5562 41.9173C46.2302 41.2806 47.3572 39.4132 47.3572 37.2685C47.3572 35.1199 46.2302 33.2487 44.5562 32.6139ZM31.0923 38.9972C30.7739 38.8761 30.3031 38.2432 30.3031 37.2685C30.3031 36.2782 30.7641 35.6571 31.0923 35.534C31.899 35.2293 32.3072 34.3289 32.0025 33.5221C31.6978 32.7154 30.7954 32.3072 29.9887 32.6119C28.3088 33.2467 27.1799 35.118 27.1799 37.2685C27.1799 39.4152 28.3088 41.2825 29.9887 41.9173C30.1703 41.9857 30.3578 42.0189 30.5414 42.0189C31.1724 42.0189 31.7661 41.6341 32.0025 41.0091C32.3072 40.2024 31.899 39.3019 31.0923 38.9972ZM31.0923 38.9972C30.7739 38.8761 30.3031 38.2432 30.3031 37.2685C30.3031 36.2782 30.7641 35.6571 31.0923 35.534C31.899 35.2293 32.3072 34.3289 32.0025 33.5221C31.6978 32.7154 30.7954 32.3072 29.9887 32.6119C28.3088 33.2467 27.1799 35.118 27.1799 37.2685C27.1799 39.4152 28.3088 41.2825 29.9887 41.9173C30.1703 41.9857 30.3578 42.0189 30.5414 42.0189C31.1724 42.0189 31.7661 41.6341 32.0025 41.0091C32.3072 40.2024 31.899 39.3019 31.0923 38.9972ZM44.5562 32.6139C43.7495 32.3072 42.8471 32.7135 42.5424 33.5182C42.2357 34.3249 42.64 35.2274 43.4468 35.5321C43.7651 35.6532 44.2339 36.288 44.2339 37.2685C44.2339 38.2432 43.7651 38.8761 43.4468 38.9972C42.64 39.3039 42.2357 40.2063 42.5424 41.011C42.6544 41.3073 42.8541 41.5625 43.1147 41.7425C43.3754 41.9226 43.6847 42.019 44.0015 42.0189C44.1851 42.0189 44.3726 41.9857 44.5562 41.9173C46.2302 41.2806 47.3572 39.4132 47.3572 37.2685C47.3572 35.1199 46.2302 33.2487 44.5562 32.6139ZM31.0923 38.9972C30.7739 38.8761 30.3031 38.2432 30.3031 37.2685C30.3031 36.2782 30.7641 35.6571 31.0923 35.534C31.899 35.2293 32.3072 34.3289 32.0025 33.5221C31.6978 32.7154 30.7954 32.3072 29.9887 32.6119C28.3088 33.2467 27.1799 35.118 27.1799 37.2685C27.1799 39.4152 28.3088 41.2825 29.9887 41.9173C30.1703 41.9857 30.3578 42.0189 30.5414 42.0189C31.1724 42.0189 31.7661 41.6341 32.0025 41.0091C32.3072 40.2024 31.899 39.3019 31.0923 38.9972ZM44.5562 32.6139C43.7495 32.3072 42.8471 32.7135 42.5424 33.5182C42.2357 34.3249 42.64 35.2274 43.4468 35.5321C43.7651 35.6532 44.2339 36.288 44.2339 37.2685C44.2339 38.2432 43.7651 38.8761 43.4468 38.9972C42.64 39.3039 42.2357 40.2063 42.5424 41.011C42.6544 41.3073 42.8541 41.5625 43.1147 41.7425C43.3754 41.9226 43.6847 42.019 44.0015 42.0189C44.1851 42.0189 44.3726 41.9857 44.5562 41.9173C46.2302 41.2806 47.3572 39.4132 47.3572 37.2685C47.3572 35.1199 46.2302 33.2487 44.5562 32.6139ZM54.0902 37.2627C54.0902 35.0359 53.1917 33.0416 51.754 31.8873C51.8224 31.5259 51.8576 31.1567 51.8576 30.7837C51.8576 27.549 49.2402 24.9121 46.0114 24.8828C45.6422 22.3865 43.4858 20.4645 40.8899 20.4645C39.4816 20.4645 38.2042 21.027 37.2685 21.9412C36.3349 21.027 35.0594 20.4645 33.653 20.4645C31.0532 20.4645 28.8948 22.3865 28.5257 24.8828C25.2989 24.9141 22.6854 27.551 22.6854 30.7837C22.6854 31.1587 22.7186 31.5259 22.785 31.8853C21.3513 33.0397 20.4528 35.034 20.4528 37.2627C20.4528 39.4933 21.3513 41.4896 22.785 42.6459C22.7186 43.0053 22.6854 43.3725 22.6854 43.7456C22.6854 46.9802 25.2989 49.6152 28.5257 49.6484C28.8948 52.1447 31.0532 54.0667 33.653 54.0667C35.0594 54.0667 36.3349 53.5022 37.2685 52.59C38.2042 53.5022 39.4816 54.0667 40.8899 54.0667C43.4858 54.0667 45.6422 52.1447 46.0114 49.6484C49.2402 49.6191 51.8576 46.9822 51.8576 43.7456C51.8576 43.3725 51.8224 43.0053 51.754 42.644C53.1917 41.4876 54.0902 39.4914 54.0902 37.2627ZM35.7079 48.8905C35.7079 50.0215 34.7859 50.9434 33.653 50.9434C32.5182 50.9434 31.5923 50.0215 31.5923 48.8905C31.5923 48.6718 31.6255 48.4647 31.69 48.2713C31.7115 48.2088 31.7251 48.1463 31.7388 48.0819C31.7701 48.035 31.8013 47.9881 31.8267 47.9373C32.0787 47.4549 32.5182 47.0857 33.0319 46.9255C33.8562 46.6697 34.3152 45.7946 34.0593 44.9703C33.8015 44.148 32.9264 43.689 32.1041 43.9448C30.8051 44.3492 29.6976 45.2731 29.0648 46.4821C28.9066 46.5095 28.7483 46.5251 28.5862 46.5251C27.0548 46.5251 25.8067 45.2789 25.8067 43.7456C25.8067 43.3393 25.8907 42.9487 26.0567 42.5873C26.2384 42.1947 26.2481 41.7454 26.0841 41.345C25.92 40.9446 25.5977 40.6301 25.1934 40.4758C24.4082 40.1789 23.5761 38.9503 23.5761 37.2627C23.5761 35.5594 24.3886 34.3601 25.1934 34.0554C25.5977 33.9011 25.92 33.5866 26.0841 33.1862C26.2481 32.7858 26.2384 32.3365 26.0567 31.9419C25.8907 31.5806 25.8067 31.1919 25.8067 30.7837C25.8067 29.2523 27.0548 28.0041 28.5862 28.0041C28.7483 28.0041 28.9105 28.0198 29.0687 28.0471C29.6996 29.2523 30.7954 30.1742 32.0982 30.5844C32.493 30.7084 32.9208 30.6709 33.2879 30.4802C33.6551 30.2895 33.9318 29.961 34.0573 29.5668C34.3171 28.7444 33.8601 27.8655 33.0377 27.6076C32.5045 27.4377 32.0591 27.0568 31.813 26.5607C31.7881 26.5089 31.7601 26.4586 31.729 26.4103C31.7173 26.3595 31.7076 26.3087 31.69 26.2599C31.6255 26.0665 31.5923 25.8575 31.5923 25.6407C31.5923 24.5078 32.5182 23.5858 33.653 23.5858C34.7859 23.5858 35.7079 24.5078 35.7079 25.6407V48.8905ZM49.3437 40.4758C48.9394 40.6301 48.6171 40.9446 48.453 41.345C48.2889 41.7454 48.2987 42.1947 48.4803 42.5873C48.6483 42.9565 48.7362 43.3471 48.7362 43.7456C48.7362 45.2789 47.4881 46.5251 45.9567 46.5251C45.7926 46.5251 45.6305 46.5095 45.4743 46.4821C44.8385 45.2712 43.7505 44.3601 42.4467 43.9468C41.6243 43.6851 40.7473 44.1421 40.4856 44.9625C40.2258 45.7848 40.6809 46.6638 41.5032 46.9236C42.0697 47.1033 42.5326 47.5174 42.7709 48.0604C42.7865 48.0956 42.8061 48.1288 42.8237 48.162C42.8315 48.1913 42.8354 48.2206 42.8451 48.2499C42.9115 48.455 42.9428 48.6698 42.9428 48.8905C42.9428 50.0215 42.0228 50.9434 40.8899 50.9434C39.7531 50.9434 38.8292 50.0215 38.8292 48.8905V25.6407C38.8292 24.5078 39.7531 23.5858 40.8899 23.5858C42.0228 23.5858 42.9428 24.5078 42.9428 25.6407C42.9428 25.8497 42.9135 26.0548 42.853 26.2521C42.6518 26.8986 42.1478 27.4045 41.5071 27.6057C40.6848 27.8635 40.2277 28.7405 40.4856 29.5629C40.5468 29.7586 40.646 29.9403 40.7776 30.0977C40.9091 30.255 41.0704 30.3848 41.2522 30.4797C41.434 30.5746 41.6328 30.6327 41.8371 30.6507C42.0414 30.6686 42.2472 30.6461 42.4428 30.5844C43.7593 30.1723 44.8433 29.2523 45.4762 28.0471C45.6325 28.0198 45.7926 28.0041 45.9567 28.0041C47.4881 28.0041 48.7362 29.2523 48.7362 30.7837C48.7362 31.1841 48.6483 31.5728 48.4803 31.9419C48.2987 32.3346 48.2889 32.7858 48.453 33.1862C48.6171 33.5866 48.9394 33.9011 49.3437 34.0554C50.1504 34.3601 50.9669 35.5614 50.9669 37.2627C50.9669 38.9503 50.1309 40.177 49.3437 40.4758ZM44.5562 32.6139C43.7495 32.3072 42.8471 32.7135 42.5424 33.5182C42.2357 34.3249 42.64 35.2274 43.4468 35.5321C43.7651 35.6532 44.2339 36.288 44.2339 37.2685C44.2339 38.2432 43.7651 38.8761 43.4468 38.9972C42.64 39.3039 42.2357 40.2063 42.5424 41.011C42.6544 41.3073 42.8541 41.5625 43.1147 41.7425C43.3754 41.9226 43.6847 42.019 44.0015 42.0189C44.1851 42.0189 44.3726 41.9857 44.5562 41.9173C46.2302 41.2806 47.3572 39.4132 47.3572 37.2685C47.3572 35.1199 46.2302 33.2487 44.5562 32.6139ZM31.0923 35.534C31.899 35.2293 32.3072 34.3289 32.0025 33.5221C31.6978 32.7154 30.7954 32.3072 29.9887 32.6119C28.3088 33.2467 27.1799 35.118 27.1799 37.2685C27.1799 39.4152 28.3088 41.2825 29.9887 41.9173C30.1703 41.9857 30.3578 42.0189 30.5414 42.0189C31.1724 42.0189 31.7661 41.6341 32.0025 41.0091C32.3072 40.2024 31.899 39.3019 31.0923 38.9972C30.7739 38.8761 30.3031 38.2432 30.3031 37.2685C30.3031 36.2782 30.7641 35.6571 31.0923 35.534ZM54.0902 37.2627C54.0902 35.0359 53.1917 33.0416 51.754 31.8873C51.8224 31.5259 51.8576 31.1567 51.8576 30.7837C51.8576 27.549 49.2402 24.9121 46.0114 24.8828C45.6422 22.3865 43.4858 20.4645 40.8899 20.4645C39.4816 20.4645 38.2042 21.027 37.2685 21.9412C36.3349 21.027 35.0594 20.4645 33.653 20.4645C31.0532 20.4645 28.8948 22.3865 28.5257 24.8828C25.2989 24.9141 22.6854 27.551 22.6854 30.7837C22.6854 31.1587 22.7186 31.5259 22.785 31.8853C21.3513 33.0397 20.4528 35.034 20.4528 37.2627C20.4528 39.4933 21.3513 41.4896 22.785 42.6459C22.7186 43.0053 22.6854 43.3725 22.6854 43.7456C22.6854 46.9802 25.2989 49.6152 28.5257 49.6484C28.8948 52.1447 31.0532 54.0667 33.653 54.0667C35.0594 54.0667 36.3349 53.5022 37.2685 52.59C38.2042 53.5022 39.4816 54.0667 40.8899 54.0667C43.4858 54.0667 45.6422 52.1447 46.0114 49.6484C49.2402 49.6191 51.8576 46.9822 51.8576 43.7456C51.8576 43.3725 51.8224 43.0053 51.754 42.644C53.1917 41.4876 54.0902 39.4914 54.0902 37.2627ZM35.7079 48.8905C35.7079 50.0215 34.7859 50.9434 33.653 50.9434C32.5182 50.9434 31.5923 50.0215 31.5923 48.8905C31.5923 48.6718 31.6255 48.4647 31.69 48.2713C31.7115 48.2088 31.7251 48.1463 31.7388 48.0819C31.7701 48.035 31.8013 47.9881 31.8267 47.9373C32.0787 47.4549 32.5182 47.0857 33.0319 46.9255C33.8562 46.6697 34.3152 45.7946 34.0593 44.9703C33.8015 44.148 32.9264 43.689 32.1041 43.9448C30.8051 44.3492 29.6976 45.2731 29.0648 46.4821C28.9066 46.5095 28.7483 46.5251 28.5862 46.5251C27.0548 46.5251 25.8067 45.2789 25.8067 43.7456C25.8067 43.3393 25.8907 42.9487 26.0567 42.5873C26.2384 42.1947 26.2481 41.7454 26.0841 41.345C25.92 40.9446 25.5977 40.6301 25.1934 40.4758C24.4082 40.1789 23.5761 38.9503 23.5761 37.2627C23.5761 35.5594 24.3886 34.3601 25.1934 34.0554C25.5977 33.9011 25.92 33.5866 26.0841 33.1862C26.2481 32.7858 26.2384 32.3365 26.0567 31.9419C25.8907 31.5806 25.8067 31.1919 25.8067 30.7837C25.8067 29.2523 27.0548 28.0041 28.5862 28.0041C28.7483 28.0041 28.9105 28.0198 29.0687 28.0471C29.6996 29.2523 30.7954 30.1742 32.0982 30.5844C32.493 30.7084 32.9208 30.6709 33.2879 30.4802C33.6551 30.2895 33.9318 29.961 34.0573 29.5668C34.3171 28.7444 33.8601 27.8655 33.0377 27.6076C32.5045 27.4377 32.0591 27.0568 31.813 26.5607C31.7881 26.5089 31.7601 26.4586 31.729 26.4103C31.7173 26.3595 31.7076 26.3087 31.69 26.2599C31.6255 26.0665 31.5923 25.8575 31.5923 25.6407C31.5923 24.5078 32.5182 23.5858 33.653 23.5858C34.7859 23.5858 35.7079 24.5078 35.7079 25.6407V48.8905ZM49.3437 40.4758C48.9394 40.6301 48.6171 40.9446 48.453 41.345C48.2889 41.7454 48.2987 42.1947 48.4803 42.5873C48.6483 42.9565 48.7362 43.3471 48.7362 43.7456C48.7362 45.2789 47.4881 46.5251 45.9567 46.5251C45.7926 46.5251 45.6305 46.5095 45.4743 46.4821C44.8385 45.2712 43.7505 44.3601 42.4467 43.9468C41.6243 43.6851 40.7473 44.1421 40.4856 44.9625C40.2258 45.7848 40.6809 46.6638 41.5032 46.9236C42.0697 47.1033 42.5326 47.5174 42.7709 48.0604C42.7865 48.0956 42.8061 48.1288 42.8237 48.162C42.8315 48.1913 42.8354 48.2206 42.8451 48.2499C42.9115 48.455 42.9428 48.6698 42.9428 48.8905C42.9428 50.0215 42.0228 50.9434 40.8899 50.9434C39.7531 50.9434 38.8292 50.0215 38.8292 48.8905V25.6407C38.8292 24.5078 39.7531 23.5858 40.8899 23.5858C42.0228 23.5858 42.9428 24.5078 42.9428 25.6407C42.9428 25.8497 42.9135 26.0548 42.853 26.2521C42.6518 26.8986 42.1478 27.4045 41.5071 27.6057C40.6848 27.8635 40.2277 28.7405 40.4856 29.5629C40.5468 29.7586 40.646 29.9403 40.7776 30.0977C40.9091 30.255 41.0704 30.3848 41.2522 30.4797C41.434 30.5746 41.6328 30.6327 41.8371 30.6507C42.0414 30.6686 42.2472 30.6461 42.4428 30.5844C43.7593 30.1723 44.8433 29.2523 45.4762 28.0471C45.6325 28.0198 45.7926 28.0041 45.9567 28.0041C47.4881 28.0041 48.7362 29.2523 48.7362 30.7837C48.7362 31.1841 48.6483 31.5728 48.4803 31.9419C48.2987 32.3346 48.2889 32.7858 48.453 33.1862C48.6171 33.5866 48.9394 33.9011 49.3437 34.0554C50.1504 34.3601 50.9669 35.5614 50.9669 37.2627C50.9669 38.9503 50.1309 40.177 49.3437 40.4758ZM44.5562 32.6139C43.7495 32.3072 42.8471 32.7135 42.5424 33.5182C42.2357 34.3249 42.64 35.2274 43.4468 35.5321C43.7651 35.6532 44.2339 36.288 44.2339 37.2685C44.2339 38.2432 43.7651 38.8761 43.4468 38.9972C42.64 39.3039 42.2357 40.2063 42.5424 41.011C42.6544 41.3073 42.8541 41.5625 43.1147 41.7425C43.3754 41.9226 43.6847 42.019 44.0015 42.0189C44.1851 42.0189 44.3726 41.9857 44.5562 41.9173C46.2302 41.2806 47.3572 39.4132 47.3572 37.2685C47.3572 35.1199 46.2302 33.2487 44.5562 32.6139ZM31.0923 35.534C31.899 35.2293 32.3072 34.3289 32.0025 33.5221C31.6978 32.7154 30.7954 32.3072 29.9887 32.6119C28.3088 33.2467 27.1799 35.118 27.1799 37.2685C27.1799 39.4152 28.3088 41.2825 29.9887 41.9173C30.1703 41.9857 30.3578 42.0189 30.5414 42.0189C31.1724 42.0189 31.7661 41.6341 32.0025 41.0091C32.3072 40.2024 31.899 39.3019 31.0923 38.9972C30.7739 38.8761 30.3031 38.2432 30.3031 37.2685C30.3031 36.2782 30.7641 35.6571 31.0923 35.534ZM48.7675 61.7646C49.0683 59.489 49.9883 57.4713 51.5548 55.6293C52.1252 54.9633 52.7033 54.3167 53.262 53.6917C56.9361 49.5879 60.4071 45.7126 60.4071 37.2685C60.4071 24.5097 50.0273 14.13 37.2685 14.13C24.5097 14.13 14.13 24.5097 14.13 37.2685C14.13 45.7126 17.601 49.5879 21.2751 53.6917C21.8337 54.3167 22.4119 54.9633 22.9803 55.6293C24.5742 57.4947 25.4981 59.5496 25.7852 61.874C23.4374 62.3799 21.6716 64.4738 21.6716 66.974C21.6716 69.5054 23.4862 71.6208 25.8848 72.0857V84.741C25.8848 85.2449 26.0294 85.7176 26.3126 86.1435L26.3243 86.161L35.0125 98.8339C35.5164 99.5761 36.3388 100 37.2685 100C38.1885 100 39.0089 99.582 39.5246 98.8398L48.203 86.1728C48.5018 85.7489 48.6522 85.2664 48.6522 84.741V72.1795C51.463 72.1091 53.7288 69.8023 53.7288 66.974C53.7288 64.1808 51.5255 61.8935 48.7675 61.7646ZM25.3555 53.5999C24.7617 52.9065 24.1718 52.2482 23.6015 51.6095C20.0543 47.6483 17.2533 44.5191 17.2533 37.2685C17.2533 26.2306 26.2325 17.2513 37.2685 17.2513C48.3046 17.2513 57.2838 26.2306 57.2838 37.2685C57.2838 44.5191 54.4828 47.6483 50.9356 51.6095C50.3653 52.2463 49.7754 52.9065 49.1796 53.6018C47.1091 56.0356 45.9391 58.7155 45.6247 61.7568H28.9163C28.5979 58.7077 27.426 56.0278 25.3555 53.5999ZM35.7372 83.4675H29.0081V72.1834H35.7079V83.1686C35.7079 83.2702 35.7176 83.3698 35.7372 83.4675ZM37.2705 96.6052L35.411 93.8921C36.0223 93.7866 36.6415 93.7319 37.2685 93.7319C37.8955 93.7319 38.5186 93.7866 39.13 93.8921L37.2705 96.6052ZM41.0286 91.1204C39.804 90.7814 38.5392 90.6099 37.2685 90.6106C35.9985 90.6091 34.7342 90.7806 33.5104 91.1204L30.4047 86.5908H44.1324L41.0286 91.1204ZM45.5289 83.4675H38.7999C38.8194 83.3698 38.8292 83.2702 38.8292 83.1686V72.1834H45.5289V83.4675ZM48.5194 69.0601H26.881C25.7305 69.0601 24.7949 68.1245 24.7949 66.974C24.7949 65.8196 25.7305 64.8801 26.881 64.8801H48.5194C49.6699 64.8801 50.6075 65.8196 50.6075 66.974C50.6075 68.1245 49.6699 69.0601 48.5194 69.0601ZM33.653 54.0667C35.0594 54.0667 36.3349 53.5022 37.2685 52.59C38.2042 53.5022 39.4816 54.0667 40.8899 54.0667C43.4858 54.0667 45.6422 52.1447 46.0114 49.6484C49.2402 49.6191 51.8576 46.9822 51.8576 43.7456C51.8576 43.3725 51.8224 43.0053 51.754 42.644C53.1917 41.4876 54.0902 39.4914 54.0902 37.2627C54.0902 35.0359 53.1917 33.0416 51.754 31.8873C51.8224 31.5259 51.8576 31.1567 51.8576 30.7837C51.8576 27.549 49.2402 24.9121 46.0114 24.8828C45.6422 22.3865 43.4858 20.4645 40.8899 20.4645C39.4816 20.4645 38.2042 21.027 37.2685 21.9412C36.3349 21.027 35.0594 20.4645 33.653 20.4645C31.0532 20.4645 28.8948 22.3865 28.5257 24.8828C25.2989 24.9141 22.6854 27.551 22.6854 30.7837C22.6854 31.1587 22.7186 31.5259 22.785 31.8853C21.3513 33.0397 20.4528 35.034 20.4528 37.2627C20.4528 39.4933 21.3513 41.4896 22.785 42.6459C22.7186 43.0053 22.6854 43.3725 22.6854 43.7456C22.6854 46.9802 25.2989 49.6152 28.5257 49.6484C28.8948 52.1447 31.0532 54.0667 33.653 54.0667ZM38.8292 25.6407C38.8292 24.5078 39.7531 23.5858 40.8899 23.5858C42.0228 23.5858 42.9428 24.5078 42.9428 25.6407C42.9428 25.8497 42.9135 26.0548 42.853 26.2521C42.6518 26.8986 42.1478 27.4045 41.5071 27.6057C40.6848 27.8635 40.2277 28.7405 40.4856 29.5629C40.5468 29.7586 40.646 29.9403 40.7776 30.0977C40.9091 30.255 41.0704 30.3848 41.2522 30.4797C41.434 30.5746 41.6328 30.6327 41.8371 30.6507C42.0414 30.6686 42.2472 30.6461 42.4428 30.5844C43.7593 30.1723 44.8433 29.2523 45.4762 28.0471C45.6325 28.0198 45.7926 28.0041 45.9567 28.0041C47.4881 28.0041 48.7362 29.2523 48.7362 30.7837C48.7362 31.1841 48.6483 31.5728 48.4803 31.9419C48.2987 32.3346 48.2889 32.7858 48.453 33.1862C48.6171 33.5866 48.9394 33.9011 49.3437 34.0554C50.1504 34.3601 50.9669 35.5614 50.9669 37.2627C50.9669 38.9503 50.1309 40.177 49.3437 40.4758C48.9394 40.6301 48.6171 40.9446 48.453 41.345C48.2889 41.7454 48.2987 42.1947 48.4803 42.5873C48.6483 42.9565 48.7362 43.3471 48.7362 43.7456C48.7362 45.2789 47.4881 46.5251 45.9567 46.5251C45.7926 46.5251 45.6305 46.5095 45.4743 46.4821C44.8385 45.2712 43.7505 44.3601 42.4467 43.9468C41.6243 43.6851 40.7473 44.1421 40.4856 44.9625C40.2258 45.7848 40.6809 46.6638 41.5032 46.9236C42.0697 47.1033 42.5326 47.5174 42.7709 48.0604C42.7865 48.0956 42.8061 48.1288 42.8237 48.162C42.8315 48.1913 42.8354 48.2206 42.8451 48.2499C42.9115 48.455 42.9428 48.6698 42.9428 48.8905C42.9428 50.0215 42.0228 50.9434 40.8899 50.9434C39.7531 50.9434 38.8292 50.0215 38.8292 48.8905V25.6407ZM28.5862 46.5251C27.0548 46.5251 25.8067 45.2789 25.8067 43.7456C25.8067 43.3393 25.8907 42.9487 26.0567 42.5873C26.2384 42.1947 26.2481 41.7454 26.0841 41.345C25.92 40.9446 25.5977 40.6301 25.1934 40.4758C24.4082 40.1789 23.5761 38.9503 23.5761 37.2627C23.5761 35.5594 24.3886 34.3601 25.1934 34.0554C25.5977 33.9011 25.92 33.5866 26.0841 33.1862C26.2481 32.7858 26.2384 32.3365 26.0567 31.9419C25.8907 31.5806 25.8067 31.1919 25.8067 30.7837C25.8067 29.2523 27.0548 28.0041 28.5862 28.0041C28.7483 28.0041 28.9105 28.0198 29.0687 28.0471C29.6996 29.2523 30.7954 30.1742 32.0982 30.5844C32.493 30.7084 32.9208 30.6709 33.2879 30.4802C33.6551 30.2895 33.9318 29.961 34.0573 29.5668C34.3171 28.7444 33.8601 27.8655 33.0377 27.6076C32.5045 27.4377 32.0591 27.0568 31.813 26.5607C31.7881 26.5089 31.7601 26.4586 31.729 26.4103C31.7173 26.3595 31.7076 26.3087 31.69 26.2599C31.6255 26.0665 31.5923 25.8575 31.5923 25.6407C31.5923 24.5078 32.5182 23.5858 33.653 23.5858C34.7859 23.5858 35.7079 24.5078 35.7079 25.6407V48.8905C35.7079 50.0215 34.7859 50.9434 33.653 50.9434C32.5182 50.9434 31.5923 50.0215 31.5923 48.8905C31.5923 48.6718 31.6255 48.4647 31.69 48.2713C31.7115 48.2088 31.7251 48.1463 31.7388 48.0819C31.7701 48.035 31.8013 47.9881 31.8267 47.9373C32.0787 47.4549 32.5182 47.0857 33.0319 46.9255C33.8562 46.6697 34.3152 45.7946 34.0593 44.9703C33.8015 44.148 32.9264 43.689 32.1041 43.9448C30.8051 44.3492 29.6976 45.2731 29.0648 46.4821C28.9066 46.5095 28.7483 46.5251 28.5862 46.5251ZM43.4468 38.9972C42.64 39.3039 42.2357 40.2063 42.5424 41.011C42.6544 41.3073 42.8541 41.5625 43.1147 41.7425C43.3754 41.9226 43.6847 42.019 44.0015 42.0189C44.1851 42.0189 44.3726 41.9857 44.5562 41.9173C46.2302 41.2806 47.3572 39.4132 47.3572 37.2685C47.3572 35.1199 46.2302 33.2487 44.5562 32.6139C43.7495 32.3072 42.8471 32.7135 42.5424 33.5182C42.2357 34.3249 42.64 35.2274 43.4468 35.5321C43.7651 35.6532 44.2339 36.288 44.2339 37.2685C44.2339 38.2432 43.7651 38.8761 43.4468 38.9972ZM30.5414 42.0189C31.1724 42.0189 31.7661 41.6341 32.0025 41.0091C32.3072 40.2024 31.899 39.3019 31.0923 38.9972C30.7739 38.8761 30.3031 38.2432 30.3031 37.2685C30.3031 36.2782 30.7641 35.6571 31.0923 35.534C31.899 35.2293 32.3072 34.3289 32.0025 33.5221C31.6978 32.7154 30.7954 32.3072 29.9887 32.6119C28.3088 33.2467 27.1799 35.118 27.1799 37.2685C27.1799 39.4152 28.3088 41.2825 29.9887 41.9173C30.1703 41.9857 30.3578 42.0189 30.5414 42.0189ZM31.0923 38.9972C30.7739 38.8761 30.3031 38.2432 30.3031 37.2685C30.3031 36.2782 30.7641 35.6571 31.0923 35.534C31.899 35.2293 32.3072 34.3289 32.0025 33.5221C31.6978 32.7154 30.7954 32.3072 29.9887 32.6119C28.3088 33.2467 27.1799 35.118 27.1799 37.2685C27.1799 39.4152 28.3088 41.2825 29.9887 41.9173C30.1703 41.9857 30.3578 42.0189 30.5414 42.0189C31.1724 42.0189 31.7661 41.6341 32.0025 41.0091C32.3072 40.2024 31.899 39.3019 31.0923 38.9972ZM44.5562 32.6139C43.7495 32.3072 42.8471 32.7135 42.5424 33.5182C42.2357 34.3249 42.64 35.2274 43.4468 35.5321C43.7651 35.6532 44.2339 36.288 44.2339 37.2685C44.2339 38.2432 43.7651 38.8761 43.4468 38.9972C42.64 39.3039 42.2357 40.2063 42.5424 41.011C42.6544 41.3073 42.8541 41.5625 43.1147 41.7425C43.3754 41.9226 43.6847 42.019 44.0015 42.0189C44.1851 42.0189 44.3726 41.9857 44.5562 41.9173C46.2302 41.2806 47.3572 39.4132 47.3572 37.2685C47.3572 35.1199 46.2302 33.2487 44.5562 32.6139ZM44.5562 32.6139C43.7495 32.3072 42.8471 32.7135 42.5424 33.5182C42.2357 34.3249 42.64 35.2274 43.4468 35.5321C43.7651 35.6532 44.2339 36.288 44.2339 37.2685C44.2339 38.2432 43.7651 38.8761 43.4468 38.9972C42.64 39.3039 42.2357 40.2063 42.5424 41.011C42.6544 41.3073 42.8541 41.5625 43.1147 41.7425C43.3754 41.9226 43.6847 42.019 44.0015 42.0189C44.1851 42.0189 44.3726 41.9857 44.5562 41.9173C46.2302 41.2806 47.3572 39.4132 47.3572 37.2685C47.3572 35.1199 46.2302 33.2487 44.5562 32.6139ZM31.0923 38.9972C30.7739 38.8761 30.3031 38.2432 30.3031 37.2685C30.3031 36.2782 30.7641 35.6571 31.0923 35.534C31.899 35.2293 32.3072 34.3289 32.0025 33.5221C31.6978 32.7154 30.7954 32.3072 29.9887 32.6119C28.3088 33.2467 27.1799 35.118 27.1799 37.2685C27.1799 39.4152 28.3088 41.2825 29.9887 41.9173C30.1703 41.9857 30.3578 42.0189 30.5414 42.0189C31.1724 42.0189 31.7661 41.6341 32.0025 41.0091C32.3072 40.2024 31.899 39.3019 31.0923 38.9972ZM54.0902 37.2627C54.0902 35.0359 53.1917 33.0416 51.754 31.8873C51.8224 31.5259 51.8576 31.1567 51.8576 30.7837C51.8576 27.549 49.2402 24.9121 46.0114 24.8828C45.6422 22.3865 43.4858 20.4645 40.8899 20.4645C39.4816 20.4645 38.2042 21.027 37.2685 21.9412C36.3349 21.027 35.0594 20.4645 33.653 20.4645C31.0532 20.4645 28.8948 22.3865 28.5257 24.8828C25.2989 24.9141 22.6854 27.551 22.6854 30.7837C22.6854 31.1587 22.7186 31.5259 22.785 31.8853C21.3513 33.0397 20.4528 35.034 20.4528 37.2627C20.4528 39.4933 21.3513 41.4896 22.785 42.6459C22.7186 43.0053 22.6854 43.3725 22.6854 43.7456C22.6854 46.9802 25.2989 49.6152 28.5257 49.6484C28.8948 52.1447 31.0532 54.0667 33.653 54.0667C35.0594 54.0667 36.3349 53.5022 37.2685 52.59C38.2042 53.5022 39.4816 54.0667 40.8899 54.0667C43.4858 54.0667 45.6422 52.1447 46.0114 49.6484C49.2402 49.6191 51.8576 46.9822 51.8576 43.7456C51.8576 43.3725 51.8224 43.0053 51.754 42.644C53.1917 41.4876 54.0902 39.4914 54.0902 37.2627ZM35.7079 48.8905C35.7079 50.0215 34.7859 50.9434 33.653 50.9434C32.5182 50.9434 31.5923 50.0215 31.5923 48.8905C31.5923 48.6718 31.6255 48.4647 31.69 48.2713C31.7115 48.2088 31.7251 48.1463 31.7388 48.0819C31.7701 48.035 31.8013 47.9881 31.8267 47.9373C32.0787 47.4549 32.5182 47.0857 33.0319 46.9255C33.8562 46.6697 34.3152 45.7946 34.0593 44.9703C33.8015 44.148 32.9264 43.689 32.1041 43.9448C30.8051 44.3492 29.6976 45.2731 29.0648 46.4821C28.9066 46.5095 28.7483 46.5251 28.5862 46.5251C27.0548 46.5251 25.8067 45.2789 25.8067 43.7456C25.8067 43.3393 25.8907 42.9487 26.0567 42.5873C26.2384 42.1947 26.2481 41.7454 26.0841 41.345C25.92 40.9446 25.5977 40.6301 25.1934 40.4758C24.4082 40.1789 23.5761 38.9503 23.5761 37.2627C23.5761 35.5594 24.3886 34.3601 25.1934 34.0554C25.5977 33.9011 25.92 33.5866 26.0841 33.1862C26.2481 32.7858 26.2384 32.3365 26.0567 31.9419C25.8907 31.5806 25.8067 31.1919 25.8067 30.7837C25.8067 29.2523 27.0548 28.0041 28.5862 28.0041C28.7483 28.0041 28.9105 28.0198 29.0687 28.0471C29.6996 29.2523 30.7954 30.1742 32.0982 30.5844C32.493 30.7084 32.9208 30.6709 33.2879 30.4802C33.6551 30.2895 33.9318 29.961 34.0573 29.5668C34.3171 28.7444 33.8601 27.8655 33.0377 27.6076C32.5045 27.4377 32.0591 27.0568 31.813 26.5607C31.7881 26.5089 31.7601 26.4586 31.729 26.4103C31.7173 26.3595 31.7076 26.3087 31.69 26.2599C31.6255 26.0665 31.5923 25.8575 31.5923 25.6407C31.5923 24.5078 32.5182 23.5858 33.653 23.5858C34.7859 23.5858 35.7079 24.5078 35.7079 25.6407V48.8905ZM49.3437 40.4758C48.9394 40.6301 48.6171 40.9446 48.453 41.345C48.2889 41.7454 48.2987 42.1947 48.4803 42.5873C48.6483 42.9565 48.7362 43.3471 48.7362 43.7456C48.7362 45.2789 47.4881 46.5251 45.9567 46.5251C45.7926 46.5251 45.6305 46.5095 45.4743 46.4821C44.8385 45.2712 43.7505 44.3601 42.4467 43.9468C41.6243 43.6851 40.7473 44.1421 40.4856 44.9625C40.2258 45.7848 40.6809 46.6638 41.5032 46.9236C42.0697 47.1033 42.5326 47.5174 42.7709 48.0604C42.7865 48.0956 42.8061 48.1288 42.8237 48.162C42.8315 48.1913 42.8354 48.2206 42.8451 48.2499C42.9115 48.455 42.9428 48.6698 42.9428 48.8905C42.9428 50.0215 42.0228 50.9434 40.8899 50.9434C39.7531 50.9434 38.8292 50.0215 38.8292 48.8905V25.6407C38.8292 24.5078 39.7531 23.5858 40.8899 23.5858C42.0228 23.5858 42.9428 24.5078 42.9428 25.6407C42.9428 25.8497 42.9135 26.0548 42.853 26.2521C42.6518 26.8986 42.1478 27.4045 41.5071 27.6057C40.6848 27.8635 40.2277 28.7405 40.4856 29.5629C40.5468 29.7586 40.646 29.9403 40.7776 30.0977C40.9091 30.255 41.0704 30.3848 41.2522 30.4797C41.434 30.5746 41.6328 30.6327 41.8371 30.6507C42.0414 30.6686 42.2472 30.6461 42.4428 30.5844C43.7593 30.1723 44.8433 29.2523 45.4762 28.0471C45.6325 28.0198 45.7926 28.0041 45.9567 28.0041C47.4881 28.0041 48.7362 29.2523 48.7362 30.7837C48.7362 31.1841 48.6483 31.5728 48.4803 31.9419C48.2987 32.3346 48.2889 32.7858 48.453 33.1862C48.6171 33.5866 48.9394 33.9011 49.3437 34.0554C50.1504 34.3601 50.9669 35.5614 50.9669 37.2627C50.9669 38.9503 50.1309 40.177 49.3437 40.4758ZM44.5562 32.6139C43.7495 32.3072 42.8471 32.7135 42.5424 33.5182C42.2357 34.3249 42.64 35.2274 43.4468 35.5321C43.7651 35.6532 44.2339 36.288 44.2339 37.2685C44.2339 38.2432 43.7651 38.8761 43.4468 38.9972C42.64 39.3039 42.2357 40.2063 42.5424 41.011C42.6544 41.3073 42.8541 41.5625 43.1147 41.7425C43.3754 41.9226 43.6847 42.019 44.0015 42.0189C44.1851 42.0189 44.3726 41.9857 44.5562 41.9173C46.2302 41.2806 47.3572 39.4132 47.3572 37.2685C47.3572 35.1199 46.2302 33.2487 44.5562 32.6139ZM31.0923 35.534C31.899 35.2293 32.3072 34.3289 32.0025 33.5221C31.6978 32.7154 30.7954 32.3072 29.9887 32.6119C28.3088 33.2467 27.1799 35.118 27.1799 37.2685C27.1799 39.4152 28.3088 41.2825 29.9887 41.9173C30.1703 41.9857 30.3578 42.0189 30.5414 42.0189C31.1724 42.0189 31.7661 41.6341 32.0025 41.0091C32.3072 40.2024 31.899 39.3019 31.0923 38.9972C30.7739 38.8761 30.3031 38.2432 30.3031 37.2685C30.3031 36.2782 30.7641 35.6571 31.0923 35.534ZM31.0923 38.9972C30.7739 38.8761 30.3031 38.2432 30.3031 37.2685C30.3031 36.2782 30.7641 35.6571 31.0923 35.534C31.899 35.2293 32.3072 34.3289 32.0025 33.5221C31.6978 32.7154 30.7954 32.3072 29.9887 32.6119C28.3088 33.2467 27.1799 35.118 27.1799 37.2685C27.1799 39.4152 28.3088 41.2825 29.9887 41.9173C30.1703 41.9857 30.3578 42.0189 30.5414 42.0189C31.1724 42.0189 31.7661 41.6341 32.0025 41.0091C32.3072 40.2024 31.899 39.3019 31.0923 38.9972ZM44.5562 32.6139C43.7495 32.3072 42.8471 32.7135 42.5424 33.5182C42.2357 34.3249 42.64 35.2274 43.4468 35.5321C43.7651 35.6532 44.2339 36.288 44.2339 37.2685C44.2339 38.2432 43.7651 38.8761 43.4468 38.9972C42.64 39.3039 42.2357 40.2063 42.5424 41.011C42.6544 41.3073 42.8541 41.5625 43.1147 41.7425C43.3754 41.9226 43.6847 42.019 44.0015 42.0189C44.1851 42.0189 44.3726 41.9857 44.5562 41.9173C46.2302 41.2806 47.3572 39.4132 47.3572 37.2685C47.3572 35.1199 46.2302 33.2487 44.5562 32.6139ZM44.5562 32.6139C43.7495 32.3072 42.8471 32.7135 42.5424 33.5182C42.2357 34.3249 42.64 35.2274 43.4468 35.5321C43.7651 35.6532 44.2339 36.288 44.2339 37.2685C44.2339 38.2432 43.7651 38.8761 43.4468 38.9972C42.64 39.3039 42.2357 40.2063 42.5424 41.011C42.6544 41.3073 42.8541 41.5625 43.1147 41.7425C43.3754 41.9226 43.6847 42.019 44.0015 42.0189C44.1851 42.0189 44.3726 41.9857 44.5562 41.9173C46.2302 41.2806 47.3572 39.4132 47.3572 37.2685C47.3572 35.1199 46.2302 33.2487 44.5562 32.6139ZM31.0923 38.9972C30.7739 38.8761 30.3031 38.2432 30.3031 37.2685C30.3031 36.2782 30.7641 35.6571 31.0923 35.534C31.899 35.2293 32.3072 34.3289 32.0025 33.5221C31.6978 32.7154 30.7954 32.3072 29.9887 32.6119C28.3088 33.2467 27.1799 35.118 27.1799 37.2685C27.1799 39.4152 28.3088 41.2825 29.9887 41.9173C30.1703 41.9857 30.3578 42.0189 30.5414 42.0189C31.1724 42.0189 31.7661 41.6341 32.0025 41.0091C32.3072 40.2024 31.899 39.3019 31.0923 38.9972ZM54.0902 37.2627C54.0902 35.0359 53.1917 33.0416 51.754 31.8873C51.8224 31.5259 51.8576 31.1567 51.8576 30.7837C51.8576 27.549 49.2402 24.9121 46.0114 24.8828C45.6422 22.3865 43.4858 20.4645 40.8899 20.4645C39.4816 20.4645 38.2042 21.027 37.2685 21.9412C36.3349 21.027 35.0594 20.4645 33.653 20.4645C31.0532 20.4645 28.8948 22.3865 28.5257 24.8828C25.2989 24.9141 22.6854 27.551 22.6854 30.7837C22.6854 31.1587 22.7186 31.5259 22.785 31.8853C21.3513 33.0397 20.4528 35.034 20.4528 37.2627C20.4528 39.4933 21.3513 41.4896 22.785 42.6459C22.7186 43.0053 22.6854 43.3725 22.6854 43.7456C22.6854 46.9802 25.2989 49.6152 28.5257 49.6484C28.8948 52.1447 31.0532 54.0667 33.653 54.0667C35.0594 54.0667 36.3349 53.5022 37.2685 52.59C38.2042 53.5022 39.4816 54.0667 40.8899 54.0667C43.4858 54.0667 45.6422 52.1447 46.0114 49.6484C49.2402 49.6191 51.8576 46.9822 51.8576 43.7456C51.8576 43.3725 51.8224 43.0053 51.754 42.644C53.1917 41.4876 54.0902 39.4914 54.0902 37.2627ZM35.7079 48.8905C35.7079 50.0215 34.7859 50.9434 33.653 50.9434C32.5182 50.9434 31.5923 50.0215 31.5923 48.8905C31.5923 48.6718 31.6255 48.4647 31.69 48.2713C31.7115 48.2088 31.7251 48.1463 31.7388 48.0819C31.7701 48.035 31.8013 47.9881 31.8267 47.9373C32.0787 47.4549 32.5182 47.0857 33.0319 46.9255C33.8562 46.6697 34.3152 45.7946 34.0593 44.9703C33.8015 44.148 32.9264 43.689 32.1041 43.9448C30.8051 44.3492 29.6976 45.2731 29.0648 46.4821C28.9066 46.5095 28.7483 46.5251 28.5862 46.5251C27.0548 46.5251 25.8067 45.2789 25.8067 43.7456C25.8067 43.3393 25.8907 42.9487 26.0567 42.5873C26.2384 42.1947 26.2481 41.7454 26.0841 41.345C25.92 40.9446 25.5977 40.6301 25.1934 40.4758C24.4082 40.1789 23.5761 38.9503 23.5761 37.2627C23.5761 35.5594 24.3886 34.3601 25.1934 34.0554C25.5977 33.9011 25.92 33.5866 26.0841 33.1862C26.2481 32.7858 26.2384 32.3365 26.0567 31.9419C25.8907 31.5806 25.8067 31.1919 25.8067 30.7837C25.8067 29.2523 27.0548 28.0041 28.5862 28.0041C28.7483 28.0041 28.9105 28.0198 29.0687 28.0471C29.6996 29.2523 30.7954 30.1742 32.0982 30.5844C32.493 30.7084 32.9208 30.6709 33.2879 30.4802C33.6551 30.2895 33.9318 29.961 34.0573 29.5668C34.3171 28.7444 33.8601 27.8655 33.0377 27.6076C32.5045 27.4377 32.0591 27.0568 31.813 26.5607C31.7881 26.5089 31.7601 26.4586 31.729 26.4103C31.7173 26.3595 31.7076 26.3087 31.69 26.2599C31.6255 26.0665 31.5923 25.8575 31.5923 25.6407C31.5923 24.5078 32.5182 23.5858 33.653 23.5858C34.7859 23.5858 35.7079 24.5078 35.7079 25.6407V48.8905ZM49.3437 40.4758C48.9394 40.6301 48.6171 40.9446 48.453 41.345C48.2889 41.7454 48.2987 42.1947 48.4803 42.5873C48.6483 42.9565 48.7362 43.3471 48.7362 43.7456C48.7362 45.2789 47.4881 46.5251 45.9567 46.5251C45.7926 46.5251 45.6305 46.5095 45.4743 46.4821C44.8385 45.2712 43.7505 44.3601 42.4467 43.9468C41.6243 43.6851 40.7473 44.1421 40.4856 44.9625C40.2258 45.7848 40.6809 46.6638 41.5032 46.9236C42.0697 47.1033 42.5326 47.5174 42.7709 48.0604C42.7865 48.0956 42.8061 48.1288 42.8237 48.162C42.8315 48.1913 42.8354 48.2206 42.8451 48.2499C42.9115 48.455 42.9428 48.6698 42.9428 48.8905C42.9428 50.0215 42.0228 50.9434 40.8899 50.9434C39.7531 50.9434 38.8292 50.0215 38.8292 48.8905V25.6407C38.8292 24.5078 39.7531 23.5858 40.8899 23.5858C42.0228 23.5858 42.9428 24.5078 42.9428 25.6407C42.9428 25.8497 42.9135 26.0548 42.853 26.2521C42.6518 26.8986 42.1478 27.4045 41.5071 27.6057C40.6848 27.8635 40.2277 28.7405 40.4856 29.5629C40.5468 29.7586 40.646 29.9403 40.7776 30.0977C40.9091 30.255 41.0704 30.3848 41.2522 30.4797C41.434 30.5746 41.6328 30.6327 41.8371 30.6507C42.0414 30.6686 42.2472 30.6461 42.4428 30.5844C43.7593 30.1723 44.8433 29.2523 45.4762 28.0471C45.6325 28.0198 45.7926 28.0041 45.9567 28.0041C47.4881 28.0041 48.7362 29.2523 48.7362 30.7837C48.7362 31.1841 48.6483 31.5728 48.4803 31.9419C48.2987 32.3346 48.2889 32.7858 48.453 33.1862C48.6171 33.5866 48.9394 33.9011 49.3437 34.0554C50.1504 34.3601 50.9669 35.5614 50.9669 37.2627C50.9669 38.9503 50.1309 40.177 49.3437 40.4758ZM44.5562 32.6139C43.7495 32.3072 42.8471 32.7135 42.5424 33.5182C42.2357 34.3249 42.64 35.2274 43.4468 35.5321C43.7651 35.6532 44.2339 36.288 44.2339 37.2685C44.2339 38.2432 43.7651 38.8761 43.4468 38.9972C42.64 39.3039 42.2357 40.2063 42.5424 41.011C42.6544 41.3073 42.8541 41.5625 43.1147 41.7425C43.3754 41.9226 43.6847 42.019 44.0015 42.0189C44.1851 42.0189 44.3726 41.9857 44.5562 41.9173C46.2302 41.2806 47.3572 39.4132 47.3572 37.2685C47.3572 35.1199 46.2302 33.2487 44.5562 32.6139ZM31.0923 35.534C31.899 35.2293 32.3072 34.3289 32.0025 33.5221C31.6978 32.7154 30.7954 32.3072 29.9887 32.6119C28.3088 33.2467 27.1799 35.118 27.1799 37.2685C27.1799 39.4152 28.3088 41.2825 29.9887 41.9173C30.1703 41.9857 30.3578 42.0189 30.5414 42.0189C31.1724 42.0189 31.7661 41.6341 32.0025 41.0091C32.3072 40.2024 31.899 39.3019 31.0923 38.9972C30.7739 38.8761 30.3031 38.2432 30.3031 37.2685C30.3031 36.2782 30.7641 35.6571 31.0923 35.534ZM44.5562 32.6139C43.7495 32.3072 42.8471 32.7135 42.5424 33.5182C42.2357 34.3249 42.64 35.2274 43.4468 35.5321C43.7651 35.6532 44.2339 36.288 44.2339 37.2685C44.2339 38.2432 43.7651 38.8761 43.4468 38.9972C42.64 39.3039 42.2357 40.2063 42.5424 41.011C42.6544 41.3073 42.8541 41.5625 43.1147 41.7425C43.3754 41.9226 43.6847 42.019 44.0015 42.0189C44.1851 42.0189 44.3726 41.9857 44.5562 41.9173C46.2302 41.2806 47.3572 39.4132 47.3572 37.2685C47.3572 35.1199 46.2302 33.2487 44.5562 32.6139ZM31.0923 38.9972C30.7739 38.8761 30.3031 38.2432 30.3031 37.2685C30.3031 36.2782 30.7641 35.6571 31.0923 35.534C31.899 35.2293 32.3072 34.3289 32.0025 33.5221C31.6978 32.7154 30.7954 32.3072 29.9887 32.6119C28.3088 33.2467 27.1799 35.118 27.1799 37.2685C27.1799 39.4152 28.3088 41.2825 29.9887 41.9173C30.1703 41.9857 30.3578 42.0189 30.5414 42.0189C31.1724 42.0189 31.7661 41.6341 32.0025 41.0091C32.3072 40.2024 31.899 39.3019 31.0923 38.9972ZM44.5562 32.6139C43.7495 32.3072 42.8471 32.7135 42.5424 33.5182C42.2357 34.3249 42.64 35.2274 43.4468 35.5321C43.7651 35.6532 44.2339 36.288 44.2339 37.2685C44.2339 38.2432 43.7651 38.8761 43.4468 38.9972C42.64 39.3039 42.2357 40.2063 42.5424 41.011C42.6544 41.3073 42.8541 41.5625 43.1147 41.7425C43.3754 41.9226 43.6847 42.019 44.0015 42.0189C44.1851 42.0189 44.3726 41.9857 44.5562 41.9173C46.2302 41.2806 47.3572 39.4132 47.3572 37.2685C47.3572 35.1199 46.2302 33.2487 44.5562 32.6139ZM31.0923 38.9972C30.7739 38.8761 30.3031 38.2432 30.3031 37.2685C30.3031 36.2782 30.7641 35.6571 31.0923 35.534C31.899 35.2293 32.3072 34.3289 32.0025 33.5221C31.6978 32.7154 30.7954 32.3072 29.9887 32.6119C28.3088 33.2467 27.1799 35.118 27.1799 37.2685C27.1799 39.4152 28.3088 41.2825 29.9887 41.9173C30.1703 41.9857 30.3578 42.0189 30.5414 42.0189C31.1724 42.0189 31.7661 41.6341 32.0025 41.0091C32.3072 40.2024 31.899 39.3019 31.0923 38.9972ZM31.0923 38.9972C30.7739 38.8761 30.3031 38.2432 30.3031 37.2685C30.3031 36.2782 30.7641 35.6571 31.0923 35.534C31.899 35.2293 32.3072 34.3289 32.0025 33.5221C31.6978 32.7154 30.7954 32.3072 29.9887 32.6119C28.3088 33.2467 27.1799 35.118 27.1799 37.2685C27.1799 39.4152 28.3088 41.2825 29.9887 41.9173C30.1703 41.9857 30.3578 42.0189 30.5414 42.0189C31.1724 42.0189 31.7661 41.6341 32.0025 41.0091C32.3072 40.2024 31.899 39.3019 31.0923 38.9972ZM44.5562 32.6139C43.7495 32.3072 42.8471 32.7135 42.5424 33.5182C42.2357 34.3249 42.64 35.2274 43.4468 35.5321C43.7651 35.6532 44.2339 36.288 44.2339 37.2685C44.2339 38.2432 43.7651 38.8761 43.4468 38.9972C42.64 39.3039 42.2357 40.2063 42.5424 41.011C42.6544 41.3073 42.8541 41.5625 43.1147 41.7425C43.3754 41.9226 43.6847 42.019 44.0015 42.0189C44.1851 42.0189 44.3726 41.9857 44.5562 41.9173C46.2302 41.2806 47.3572 39.4132 47.3572 37.2685C47.3572 35.1199 46.2302 33.2487 44.5562 32.6139ZM44.5562 32.6139C43.7495 32.3072 42.8471 32.7135 42.5424 33.5182C42.2357 34.3249 42.64 35.2274 43.4468 35.5321C43.7651 35.6532 44.2339 36.288 44.2339 37.2685C44.2339 38.2432 43.7651 38.8761 43.4468 38.9972C42.64 39.3039 42.2357 40.2063 42.5424 41.011C42.6544 41.3073 42.8541 41.5625 43.1147 41.7425C43.3754 41.9226 43.6847 42.019 44.0015 42.0189C44.1851 42.0189 44.3726 41.9857 44.5562 41.9173C46.2302 41.2806 47.3572 39.4132 47.3572 37.2685C47.3572 35.1199 46.2302 33.2487 44.5562 32.6139ZM31.0923 38.9972C30.7739 38.8761 30.3031 38.2432 30.3031 37.2685C30.3031 36.2782 30.7641 35.6571 31.0923 35.534C31.899 35.2293 32.3072 34.3289 32.0025 33.5221C31.6978 32.7154 30.7954 32.3072 29.9887 32.6119C28.3088 33.2467 27.1799 35.118 27.1799 37.2685C27.1799 39.4152 28.3088 41.2825 29.9887 41.9173C30.1703 41.9857 30.3578 42.0189 30.5414 42.0189C31.1724 42.0189 31.7661 41.6341 32.0025 41.0091C32.3072 40.2024 31.899 39.3019 31.0923 38.9972ZM31.0923 38.9972C30.7739 38.8761 30.3031 38.2432 30.3031 37.2685C30.3031 36.2782 30.7641 35.6571 31.0923 35.534C31.899 35.2293 32.3072 34.3289 32.0025 33.5221C31.6978 32.7154 30.7954 32.3072 29.9887 32.6119C28.3088 33.2467 27.1799 35.118 27.1799 37.2685C27.1799 39.4152 28.3088 41.2825 29.9887 41.9173C30.1703 41.9857 30.3578 42.0189 30.5414 42.0189C31.1724 42.0189 31.7661 41.6341 32.0025 41.0091C32.3072 40.2024 31.899 39.3019 31.0923 38.9972ZM44.5562 32.6139C43.7495 32.3072 42.8471 32.7135 42.5424 33.5182C42.2357 34.3249 42.64 35.2274 43.4468 35.5321C43.7651 35.6532 44.2339 36.288 44.2339 37.2685C44.2339 38.2432 43.7651 38.8761 43.4468 38.9972C42.64 39.3039 42.2357 40.2063 42.5424 41.011C42.6544 41.3073 42.8541 41.5625 43.1147 41.7425C43.3754 41.9226 43.6847 42.019 44.0015 42.0189C44.1851 42.0189 44.3726 41.9857 44.5562 41.9173C46.2302 41.2806 47.3572 39.4132 47.3572 37.2685C47.3572 35.1199 46.2302 33.2487 44.5562 32.6139ZM44.5562 32.6139C43.7495 32.3072 42.8471 32.7135 42.5424 33.5182C42.2357 34.3249 42.64 35.2274 43.4468 35.5321C43.7651 35.6532 44.2339 36.288 44.2339 37.2685C44.2339 38.2432 43.7651 38.8761 43.4468 38.9972C42.64 39.3039 42.2357 40.2063 42.5424 41.011C42.6544 41.3073 42.8541 41.5625 43.1147 41.7425C43.3754 41.9226 43.6847 42.019 44.0015 42.0189C44.1851 42.0189 44.3726 41.9857 44.5562 41.9173C46.2302 41.2806 47.3572 39.4132 47.3572 37.2685C47.3572 35.1199 46.2302 33.2487 44.5562 32.6139ZM31.0923 38.9972C30.7739 38.8761 30.3031 38.2432 30.3031 37.2685C30.3031 36.2782 30.7641 35.6571 31.0923 35.534C31.899 35.2293 32.3072 34.3289 32.0025 33.5221C31.6978 32.7154 30.7954 32.3072 29.9887 32.6119C28.3088 33.2467 27.1799 35.118 27.1799 37.2685C27.1799 39.4152 28.3088 41.2825 29.9887 41.9173C30.1703 41.9857 30.3578 42.0189 30.5414 42.0189C31.1724 42.0189 31.7661 41.6341 32.0025 41.0091C32.3072 40.2024 31.899 39.3019 31.0923 38.9972ZM54.0902 37.2627C54.0902 35.0359 53.1917 33.0416 51.754 31.8873C51.8224 31.5259 51.8576 31.1567 51.8576 30.7837C51.8576 27.549 49.2402 24.9121 46.0114 24.8828C45.6422 22.3865 43.4858 20.4645 40.8899 20.4645C39.4816 20.4645 38.2042 21.027 37.2685 21.9412C36.3349 21.027 35.0594 20.4645 33.653 20.4645C31.0532 20.4645 28.8948 22.3865 28.5257 24.8828C25.2989 24.9141 22.6854 27.551 22.6854 30.7837C22.6854 31.1587 22.7186 31.5259 22.785 31.8853C21.3513 33.0397 20.4528 35.034 20.4528 37.2627C20.4528 39.4933 21.3513 41.4896 22.785 42.6459C22.7186 43.0053 22.6854 43.3725 22.6854 43.7456C22.6854 46.9802 25.2989 49.6152 28.5257 49.6484C28.8948 52.1447 31.0532 54.0667 33.653 54.0667C35.0594 54.0667 36.3349 53.5022 37.2685 52.59C38.2042 53.5022 39.4816 54.0667 40.8899 54.0667C43.4858 54.0667 45.6422 52.1447 46.0114 49.6484C49.2402 49.6191 51.8576 46.9822 51.8576 43.7456C51.8576 43.3725 51.8224 43.0053 51.754 42.644C53.1917 41.4876 54.0902 39.4914 54.0902 37.2627ZM35.7079 48.8905C35.7079 50.0215 34.7859 50.9434 33.653 50.9434C32.5182 50.9434 31.5923 50.0215 31.5923 48.8905C31.5923 48.6718 31.6255 48.4647 31.69 48.2713C31.7115 48.2088 31.7251 48.1463 31.7388 48.0819C31.7701 48.035 31.8013 47.9881 31.8267 47.9373C32.0787 47.4549 32.5182 47.0857 33.0319 46.9255C33.8562 46.6697 34.3152 45.7946 34.0593 44.9703C33.8015 44.148 32.9264 43.689 32.1041 43.9448C30.8051 44.3492 29.6976 45.2731 29.0648 46.4821C28.9066 46.5095 28.7483 46.5251 28.5862 46.5251C27.0548 46.5251 25.8067 45.2789 25.8067 43.7456C25.8067 43.3393 25.8907 42.9487 26.0567 42.5873C26.2384 42.1947 26.2481 41.7454 26.0841 41.345C25.92 40.9446 25.5977 40.6301 25.1934 40.4758C24.4082 40.1789 23.5761 38.9503 23.5761 37.2627C23.5761 35.5594 24.3886 34.3601 25.1934 34.0554C25.5977 33.9011 25.92 33.5866 26.0841 33.1862C26.2481 32.7858 26.2384 32.3365 26.0567 31.9419C25.8907 31.5806 25.8067 31.1919 25.8067 30.7837C25.8067 29.2523 27.0548 28.0041 28.5862 28.0041C28.7483 28.0041 28.9105 28.0198 29.0687 28.0471C29.6996 29.2523 30.7954 30.1742 32.0982 30.5844C32.493 30.7084 32.9208 30.6709 33.2879 30.4802C33.6551 30.2895 33.9318 29.961 34.0573 29.5668C34.3171 28.7444 33.8601 27.8655 33.0377 27.6076C32.5045 27.4377 32.0591 27.0568 31.813 26.5607C31.7881 26.5089 31.7601 26.4586 31.729 26.4103C31.7173 26.3595 31.7076 26.3087 31.69 26.2599C31.6255 26.0665 31.5923 25.8575 31.5923 25.6407C31.5923 24.5078 32.5182 23.5858 33.653 23.5858C34.7859 23.5858 35.7079 24.5078 35.7079 25.6407V48.8905ZM49.3437 40.4758C48.9394 40.6301 48.6171 40.9446 48.453 41.345C48.2889 41.7454 48.2987 42.1947 48.4803 42.5873C48.6483 42.9565 48.7362 43.3471 48.7362 43.7456C48.7362 45.2789 47.4881 46.5251 45.9567 46.5251C45.7926 46.5251 45.6305 46.5095 45.4743 46.4821C44.8385 45.2712 43.7505 44.3601 42.4467 43.9468C41.6243 43.6851 40.7473 44.1421 40.4856 44.9625C40.2258 45.7848 40.6809 46.6638 41.5032 46.9236C42.0697 47.1033 42.5326 47.5174 42.7709 48.0604C42.7865 48.0956 42.8061 48.1288 42.8237 48.162C42.8315 48.1913 42.8354 48.2206 42.8451 48.2499C42.9115 48.455 42.9428 48.6698 42.9428 48.8905C42.9428 50.0215 42.0228 50.9434 40.8899 50.9434C39.7531 50.9434 38.8292 50.0215 38.8292 48.8905V25.6407C38.8292 24.5078 39.7531 23.5858 40.8899 23.5858C42.0228 23.5858 42.9428 24.5078 42.9428 25.6407C42.9428 25.8497 42.9135 26.0548 42.853 26.2521C42.6518 26.8986 42.1478 27.4045 41.5071 27.6057C40.6848 27.8635 40.2277 28.7405 40.4856 29.5629C40.5468 29.7586 40.646 29.9403 40.7776 30.0977C40.9091 30.255 41.0704 30.3848 41.2522 30.4797C41.434 30.5746 41.6328 30.6327 41.8371 30.6507C42.0414 30.6686 42.2472 30.6461 42.4428 30.5844C43.7593 30.1723 44.8433 29.2523 45.4762 28.0471C45.6325 28.0198 45.7926 28.0041 45.9567 28.0041C47.4881 28.0041 48.7362 29.2523 48.7362 30.7837C48.7362 31.1841 48.6483 31.5728 48.4803 31.9419C48.2987 32.3346 48.2889 32.7858 48.453 33.1862C48.6171 33.5866 48.9394 33.9011 49.3437 34.0554C50.1504 34.3601 50.9669 35.5614 50.9669 37.2627C50.9669 38.9503 50.1309 40.177 49.3437 40.4758ZM44.5562 32.6139C43.7495 32.3072 42.8471 32.7135 42.5424 33.5182C42.2357 34.3249 42.64 35.2274 43.4468 35.5321C43.7651 35.6532 44.2339 36.288 44.2339 37.2685C44.2339 38.2432 43.7651 38.8761 43.4468 38.9972C42.64 39.3039 42.2357 40.2063 42.5424 41.011C42.6544 41.3073 42.8541 41.5625 43.1147 41.7425C43.3754 41.9226 43.6847 42.019 44.0015 42.0189C44.1851 42.0189 44.3726 41.9857 44.5562 41.9173C46.2302 41.2806 47.3572 39.4132 47.3572 37.2685C47.3572 35.1199 46.2302 33.2487 44.5562 32.6139ZM31.0923 35.534C31.899 35.2293 32.3072 34.3289 32.0025 33.5221C31.6978 32.7154 30.7954 32.3072 29.9887 32.6119C28.3088 33.2467 27.1799 35.118 27.1799 37.2685C27.1799 39.4152 28.3088 41.2825 29.9887 41.9173C30.1703 41.9857 30.3578 42.0189 30.5414 42.0189C31.1724 42.0189 31.7661 41.6341 32.0025 41.0091C32.3072 40.2024 31.899 39.3019 31.0923 38.9972C30.7739 38.8761 30.3031 38.2432 30.3031 37.2685C30.3031 36.2782 30.7641 35.6571 31.0923 35.534ZM31.0923 38.9972C30.7739 38.8761 30.3031 38.2432 30.3031 37.2685C30.3031 36.2782 30.7641 35.6571 31.0923 35.534C31.899 35.2293 32.3072 34.3289 32.0025 33.5221C31.6978 32.7154 30.7954 32.3072 29.9887 32.6119C28.3088 33.2467 27.1799 35.118 27.1799 37.2685C27.1799 39.4152 28.3088 41.2825 29.9887 41.9173C30.1703 41.9857 30.3578 42.0189 30.5414 42.0189C31.1724 42.0189 31.7661 41.6341 32.0025 41.0091C32.3072 40.2024 31.899 39.3019 31.0923 38.9972ZM44.5562 32.6139C43.7495 32.3072 42.8471 32.7135 42.5424 33.5182C42.2357 34.3249 42.64 35.2274 43.4468 35.5321C43.7651 35.6532 44.2339 36.288 44.2339 37.2685C44.2339 38.2432 43.7651 38.8761 43.4468 38.9972C42.64 39.3039 42.2357 40.2063 42.5424 41.011C42.6544 41.3073 42.8541 41.5625 43.1147 41.7425C43.3754 41.9226 43.6847 42.019 44.0015 42.0189C44.1851 42.0189 44.3726 41.9857 44.5562 41.9173C46.2302 41.2806 47.3572 39.4132 47.3572 37.2685C47.3572 35.1199 46.2302 33.2487 44.5562 32.6139ZM44.5562 32.6139C43.7495 32.3072 42.8471 32.7135 42.5424 33.5182C42.2357 34.3249 42.64 35.2274 43.4468 35.5321C43.7651 35.6532 44.2339 36.288 44.2339 37.2685C44.2339 38.2432 43.7651 38.8761 43.4468 38.9972C42.64 39.3039 42.2357 40.2063 42.5424 41.011C42.6544 41.3073 42.8541 41.5625 43.1147 41.7425C43.3754 41.9226 43.6847 42.019 44.0015 42.0189C44.1851 42.0189 44.3726 41.9857 44.5562 41.9173C46.2302 41.2806 47.3572 39.4132 47.3572 37.2685C47.3572 35.1199 46.2302 33.2487 44.5562 32.6139ZM31.0923 38.9972C30.7739 38.8761 30.3031 38.2432 30.3031 37.2685C30.3031 36.2782 30.7641 35.6571 31.0923 35.534C31.899 35.2293 32.3072 34.3289 32.0025 33.5221C31.6978 32.7154 30.7954 32.3072 29.9887 32.6119C28.3088 33.2467 27.1799 35.118 27.1799 37.2685C27.1799 39.4152 28.3088 41.2825 29.9887 41.9173C30.1703 41.9857 30.3578 42.0189 30.5414 42.0189C31.1724 42.0189 31.7661 41.6341 32.0025 41.0091C32.3072 40.2024 31.899 39.3019 31.0923 38.9972ZM31.0923 38.9972C30.7739 38.8761 30.3031 38.2432 30.3031 37.2685C30.3031 36.2782 30.7641 35.6571 31.0923 35.534C31.899 35.2293 32.3072 34.3289 32.0025 33.5221C31.6978 32.7154 30.7954 32.3072 29.9887 32.6119C28.3088 33.2467 27.1799 35.118 27.1799 37.2685C27.1799 39.4152 28.3088 41.2825 29.9887 41.9173C30.1703 41.9857 30.3578 42.0189 30.5414 42.0189C31.1724 42.0189 31.7661 41.6341 32.0025 41.0091C32.3072 40.2024 31.899 39.3019 31.0923 38.9972ZM44.5562 32.6139C43.7495 32.3072 42.8471 32.7135 42.5424 33.5182C42.2357 34.3249 42.64 35.2274 43.4468 35.5321C43.7651 35.6532 44.2339 36.288 44.2339 37.2685C44.2339 38.2432 43.7651 38.8761 43.4468 38.9972C42.64 39.3039 42.2357 40.2063 42.5424 41.011C42.6544 41.3073 42.8541 41.5625 43.1147 41.7425C43.3754 41.9226 43.6847 42.019 44.0015 42.0189C44.1851 42.0189 44.3726 41.9857 44.5562 41.9173C46.2302 41.2806 47.3572 39.4132 47.3572 37.2685C47.3572 35.1199 46.2302 33.2487 44.5562 32.6139ZM44.5562 32.6139C43.7495 32.3072 42.8471 32.7135 42.5424 33.5182C42.2357 34.3249 42.64 35.2274 43.4468 35.5321C43.7651 35.6532 44.2339 36.288 44.2339 37.2685C44.2339 38.2432 43.7651 38.8761 43.4468 38.9972C42.64 39.3039 42.2357 40.2063 42.5424 41.011C42.6544 41.3073 42.8541 41.5625 43.1147 41.7425C43.3754 41.9226 43.6847 42.019 44.0015 42.0189C44.1851 42.0189 44.3726 41.9857 44.5562 41.9173C46.2302 41.2806 47.3572 39.4132 47.3572 37.2685C47.3572 35.1199 46.2302 33.2487 44.5562 32.6139ZM31.0923 38.9972C30.7739 38.8761 30.3031 38.2432 30.3031 37.2685C30.3031 36.2782 30.7641 35.6571 31.0923 35.534C31.899 35.2293 32.3072 34.3289 32.0025 33.5221C31.6978 32.7154 30.7954 32.3072 29.9887 32.6119C28.3088 33.2467 27.1799 35.118 27.1799 37.2685C27.1799 39.4152 28.3088 41.2825 29.9887 41.9173C30.1703 41.9857 30.3578 42.0189 30.5414 42.0189C31.1724 42.0189 31.7661 41.6341 32.0025 41.0091C32.3072 40.2024 31.899 39.3019 31.0923 38.9972ZM31.0923 38.9972C30.7739 38.8761 30.3031 38.2432 30.3031 37.2685C30.3031 36.2782 30.7641 35.6571 31.0923 35.534C31.899 35.2293 32.3072 34.3289 32.0025 33.5221C31.6978 32.7154 30.7954 32.3072 29.9887 32.6119C28.3088 33.2467 27.1799 35.118 27.1799 37.2685C27.1799 39.4152 28.3088 41.2825 29.9887 41.9173C30.1703 41.9857 30.3578 42.0189 30.5414 42.0189C31.1724 42.0189 31.7661 41.6341 32.0025 41.0091C32.3072 40.2024 31.899 39.3019 31.0923 38.9972ZM44.5562 32.6139C43.7495 32.3072 42.8471 32.7135 42.5424 33.5182C42.2357 34.3249 42.64 35.2274 43.4468 35.5321C43.7651 35.6532 44.2339 36.288 44.2339 37.2685C44.2339 38.2432 43.7651 38.8761 43.4468 38.9972C42.64 39.3039 42.2357 40.2063 42.5424 41.011C42.6544 41.3073 42.8541 41.5625 43.1147 41.7425C43.3754 41.9226 43.6847 42.019 44.0015 42.0189C44.1851 42.0189 44.3726 41.9857 44.5562 41.9173C46.2302 41.2806 47.3572 39.4132 47.3572 37.2685C47.3572 35.1199 46.2302 33.2487 44.5562 32.6139ZM44.5562 32.6139C43.7495 32.3072 42.8471 32.7135 42.5424 33.5182C42.2357 34.3249 42.64 35.2274 43.4468 35.5321C43.7651 35.6532 44.2339 36.288 44.2339 37.2685C44.2339 38.2432 43.7651 38.8761 43.4468 38.9972C42.64 39.3039 42.2357 40.2063 42.5424 41.011C42.6544 41.3073 42.8541 41.5625 43.1147 41.7425C43.3754 41.9226 43.6847 42.019 44.0015 42.0189C44.1851 42.0189 44.3726 41.9857 44.5562 41.9173C46.2302 41.2806 47.3572 39.4132 47.3572 37.2685C47.3572 35.1199 46.2302 33.2487 44.5562 32.6139ZM31.0923 38.9972C30.7739 38.8761 30.3031 38.2432 30.3031 37.2685C30.3031 36.2782 30.7641 35.6571 31.0923 35.534C31.899 35.2293 32.3072 34.3289 32.0025 33.5221C31.6978 32.7154 30.7954 32.3072 29.9887 32.6119C28.3088 33.2467 27.1799 35.118 27.1799 37.2685C27.1799 39.4152 28.3088 41.2825 29.9887 41.9173C30.1703 41.9857 30.3578 42.0189 30.5414 42.0189C31.1724 42.0189 31.7661 41.6341 32.0025 41.0091C32.3072 40.2024 31.899 39.3019 31.0923 38.9972ZM54.0902 37.2627C54.0902 35.0359 53.1917 33.0416 51.754 31.8873C51.8224 31.5259 51.8576 31.1567 51.8576 30.7837C51.8576 27.549 49.2402 24.9121 46.0114 24.8828C45.6422 22.3865 43.4858 20.4645 40.8899 20.4645C39.4816 20.4645 38.2042 21.027 37.2685 21.9412C36.3349 21.027 35.0594 20.4645 33.653 20.4645C31.0532 20.4645 28.8948 22.3865 28.5257 24.8828C25.2989 24.9141 22.6854 27.551 22.6854 30.7837C22.6854 31.1587 22.7186 31.5259 22.785 31.8853C21.3513 33.0397 20.4528 35.034 20.4528 37.2627C20.4528 39.4933 21.3513 41.4896 22.785 42.6459C22.7186 43.0053 22.6854 43.3725 22.6854 43.7456C22.6854 46.9802 25.2989 49.6152 28.5257 49.6484C28.8948 52.1447 31.0532 54.0667 33.653 54.0667C35.0594 54.0667 36.3349 53.5022 37.2685 52.59C38.2042 53.5022 39.4816 54.0667 40.8899 54.0667C43.4858 54.0667 45.6422 52.1447 46.0114 49.6484C49.2402 49.6191 51.8576 46.9822 51.8576 43.7456C51.8576 43.3725 51.8224 43.0053 51.754 42.644C53.1917 41.4876 54.0902 39.4914 54.0902 37.2627ZM35.7079 48.8905C35.7079 50.0215 34.7859 50.9434 33.653 50.9434C32.5182 50.9434 31.5923 50.0215 31.5923 48.8905C31.5923 48.6718 31.6255 48.4647 31.69 48.2713C31.7115 48.2088 31.7251 48.1463 31.7388 48.0819C31.7701 48.035 31.8013 47.9881 31.8267 47.9373C32.0787 47.4549 32.5182 47.0857 33.0319 46.9255C33.8562 46.6697 34.3152 45.7946 34.0593 44.9703C33.8015 44.148 32.9264 43.689 32.1041 43.9448C30.8051 44.3492 29.6976 45.2731 29.0648 46.4821C28.9066 46.5095 28.7483 46.5251 28.5862 46.5251C27.0548 46.5251 25.8067 45.2789 25.8067 43.7456C25.8067 43.3393 25.8907 42.9487 26.0567 42.5873C26.2384 42.1947 26.2481 41.7454 26.0841 41.345C25.92 40.9446 25.5977 40.6301 25.1934 40.4758C24.4082 40.1789 23.5761 38.9503 23.5761 37.2627C23.5761 35.5594 24.3886 34.3601 25.1934 34.0554C25.5977 33.9011 25.92 33.5866 26.0841 33.1862C26.2481 32.7858 26.2384 32.3365 26.0567 31.9419C25.8907 31.5806 25.8067 31.1919 25.8067 30.7837C25.8067 29.2523 27.0548 28.0041 28.5862 28.0041C28.7483 28.0041 28.9105 28.0198 29.0687 28.0471C29.6996 29.2523 30.7954 30.1742 32.0982 30.5844C32.493 30.7084 32.9208 30.6709 33.2879 30.4802C33.6551 30.2895 33.9318 29.961 34.0573 29.5668C34.3171 28.7444 33.8601 27.8655 33.0377 27.6076C32.5045 27.4377 32.0591 27.0568 31.813 26.5607C31.7881 26.5089 31.7601 26.4586 31.729 26.4103C31.7173 26.3595 31.7076 26.3087 31.69 26.2599C31.6255 26.0665 31.5923 25.8575 31.5923 25.6407C31.5923 24.5078 32.5182 23.5858 33.653 23.5858C34.7859 23.5858 35.7079 24.5078 35.7079 25.6407V48.8905ZM49.3437 40.4758C48.9394 40.6301 48.6171 40.9446 48.453 41.345C48.2889 41.7454 48.2987 42.1947 48.4803 42.5873C48.6483 42.9565 48.7362 43.3471 48.7362 43.7456C48.7362 45.2789 47.4881 46.5251 45.9567 46.5251C45.7926 46.5251 45.6305 46.5095 45.4743 46.4821C44.8385 45.2712 43.7505 44.3601 42.4467 43.9468C41.6243 43.6851 40.7473 44.1421 40.4856 44.9625C40.2258 45.7848 40.6809 46.6638 41.5032 46.9236C42.0697 47.1033 42.5326 47.5174 42.7709 48.0604C42.7865 48.0956 42.8061 48.1288 42.8237 48.162C42.8315 48.1913 42.8354 48.2206 42.8451 48.2499C42.9115 48.455 42.9428 48.6698 42.9428 48.8905C42.9428 50.0215 42.0228 50.9434 40.8899 50.9434C39.7531 50.9434 38.8292 50.0215 38.8292 48.8905V25.6407C38.8292 24.5078 39.7531 23.5858 40.8899 23.5858C42.0228 23.5858 42.9428 24.5078 42.9428 25.6407C42.9428 25.8497 42.9135 26.0548 42.853 26.2521C42.6518 26.8986 42.1478 27.4045 41.5071 27.6057C40.6848 27.8635 40.2277 28.7405 40.4856 29.5629C40.5468 29.7586 40.646 29.9403 40.7776 30.0977C40.9091 30.255 41.0704 30.3848 41.2522 30.4797C41.434 30.5746 41.6328 30.6327 41.8371 30.6507C42.0414 30.6686 42.2472 30.6461 42.4428 30.5844C43.7593 30.1723 44.8433 29.2523 45.4762 28.0471C45.6325 28.0198 45.7926 28.0041 45.9567 28.0041C47.4881 28.0041 48.7362 29.2523 48.7362 30.7837C48.7362 31.1841 48.6483 31.5728 48.4803 31.9419C48.2987 32.3346 48.2889 32.7858 48.453 33.1862C48.6171 33.5866 48.9394 33.9011 49.3437 34.0554C50.1504 34.3601 50.9669 35.5614 50.9669 37.2627C50.9669 38.9503 50.1309 40.177 49.3437 40.4758ZM44.5562 32.6139C43.7495 32.3072 42.8471 32.7135 42.5424 33.5182C42.2357 34.3249 42.64 35.2274 43.4468 35.5321C43.7651 35.6532 44.2339 36.288 44.2339 37.2685C44.2339 38.2432 43.7651 38.8761 43.4468 38.9972C42.64 39.3039 42.2357 40.2063 42.5424 41.011C42.6544 41.3073 42.8541 41.5625 43.1147 41.7425C43.3754 41.9226 43.6847 42.019 44.0015 42.0189C44.1851 42.0189 44.3726 41.9857 44.5562 41.9173C46.2302 41.2806 47.3572 39.4132 47.3572 37.2685C47.3572 35.1199 46.2302 33.2487 44.5562 32.6139ZM31.0923 35.534C31.899 35.2293 32.3072 34.3289 32.0025 33.5221C31.6978 32.7154 30.7954 32.3072 29.9887 32.6119C28.3088 33.2467 27.1799 35.118 27.1799 37.2685C27.1799 39.4152 28.3088 41.2825 29.9887 41.9173C30.1703 41.9857 30.3578 42.0189 30.5414 42.0189C31.1724 42.0189 31.7661 41.6341 32.0025 41.0091C32.3072 40.2024 31.899 39.3019 31.0923 38.9972C30.7739 38.8761 30.3031 38.2432 30.3031 37.2685C30.3031 36.2782 30.7641 35.6571 31.0923 35.534ZM31.0923 38.9972C30.7739 38.8761 30.3031 38.2432 30.3031 37.2685C30.3031 36.2782 30.7641 35.6571 31.0923 35.534C31.899 35.2293 32.3072 34.3289 32.0025 33.5221C31.6978 32.7154 30.7954 32.3072 29.9887 32.6119C28.3088 33.2467 27.1799 35.118 27.1799 37.2685C27.1799 39.4152 28.3088 41.2825 29.9887 41.9173C30.1703 41.9857 30.3578 42.0189 30.5414 42.0189C31.1724 42.0189 31.7661 41.6341 32.0025 41.0091C32.3072 40.2024 31.899 39.3019 31.0923 38.9972ZM44.5562 32.6139C43.7495 32.3072 42.8471 32.7135 42.5424 33.5182C42.2357 34.3249 42.64 35.2274 43.4468 35.5321C43.7651 35.6532 44.2339 36.288 44.2339 37.2685C44.2339 38.2432 43.7651 38.8761 43.4468 38.9972C42.64 39.3039 42.2357 40.2063 42.5424 41.011C42.6544 41.3073 42.8541 41.5625 43.1147 41.7425C43.3754 41.9226 43.6847 42.019 44.0015 42.0189C44.1851 42.0189 44.3726 41.9857 44.5562 41.9173C46.2302 41.2806 47.3572 39.4132 47.3572 37.2685C47.3572 35.1199 46.2302 33.2487 44.5562 32.6139ZM44.5562 32.6139C43.7495 32.3072 42.8471 32.7135 42.5424 33.5182C42.2357 34.3249 42.64 35.2274 43.4468 35.5321C43.7651 35.6532 44.2339 36.288 44.2339 37.2685C44.2339 38.2432 43.7651 38.8761 43.4468 38.9972C42.64 39.3039 42.2357 40.2063 42.5424 41.011C42.6544 41.3073 42.8541 41.5625 43.1147 41.7425C43.3754 41.9226 43.6847 42.019 44.0015 42.0189C44.1851 42.0189 44.3726 41.9857 44.5562 41.9173C46.2302 41.2806 47.3572 39.4132 47.3572 37.2685C47.3572 35.1199 46.2302 33.2487 44.5562 32.6139ZM31.0923 38.9972C30.7739 38.8761 30.3031 38.2432 30.3031 37.2685C30.3031 36.2782 30.7641 35.6571 31.0923 35.534C31.899 35.2293 32.3072 34.3289 32.0025 33.5221C31.6978 32.7154 30.7954 32.3072 29.9887 32.6119C28.3088 33.2467 27.1799 35.118 27.1799 37.2685C27.1799 39.4152 28.3088 41.2825 29.9887 41.9173C30.1703 41.9857 30.3578 42.0189 30.5414 42.0189C31.1724 42.0189 31.7661 41.6341 32.0025 41.0091C32.3072 40.2024 31.899 39.3019 31.0923 38.9972ZM44.5562 32.6139C43.7495 32.3072 42.8471 32.7135 42.5424 33.5182C42.2357 34.3249 42.64 35.2274 43.4468 35.5321C43.7651 35.6532 44.2339 36.288 44.2339 37.2685C44.2339 38.2432 43.7651 38.8761 43.4468 38.9972C42.64 39.3039 42.2357 40.2063 42.5424 41.011C42.6544 41.3073 42.8541 41.5625 43.1147 41.7425C43.3754 41.9226 43.6847 42.019 44.0015 42.0189C44.1851 42.0189 44.3726 41.9857 44.5562 41.9173C46.2302 41.2806 47.3572 39.4132 47.3572 37.2685C47.3572 35.1199 46.2302 33.2487 44.5562 32.6139ZM31.0923 38.9972C30.7739 38.8761 30.3031 38.2432 30.3031 37.2685C30.3031 36.2782 30.7641 35.6571 31.0923 35.534C31.899 35.2293 32.3072 34.3289 32.0025 33.5221C31.6978 32.7154 30.7954 32.3072 29.9887 32.6119C28.3088 33.2467 27.1799 35.118 27.1799 37.2685C27.1799 39.4152 28.3088 41.2825 29.9887 41.9173C30.1703 41.9857 30.3578 42.0189 30.5414 42.0189C31.1724 42.0189 31.7661 41.6341 32.0025 41.0091C32.3072 40.2024 31.899 39.3019 31.0923 38.9972ZM31.0923 38.9972C30.7739 38.8761 30.3031 38.2432 30.3031 37.2685C30.3031 36.2782 30.7641 35.6571 31.0923 35.534C31.899 35.2293 32.3072 34.3289 32.0025 33.5221C31.6978 32.7154 30.7954 32.3072 29.9887 32.6119C28.3088 33.2467 27.1799 35.118 27.1799 37.2685C27.1799 39.4152 28.3088 41.2825 29.9887 41.9173C30.1703 41.9857 30.3578 42.0189 30.5414 42.0189C31.1724 42.0189 31.7661 41.6341 32.0025 41.0091C32.3072 40.2024 31.899 39.3019 31.0923 38.9972ZM44.5562 32.6139C43.7495 32.3072 42.8471 32.7135 42.5424 33.5182C42.2357 34.3249 42.64 35.2274 43.4468 35.5321C43.7651 35.6532 44.2339 36.288 44.2339 37.2685C44.2339 38.2432 43.7651 38.8761 43.4468 38.9972C42.64 39.3039 42.2357 40.2063 42.5424 41.011C42.6544 41.3073 42.8541 41.5625 43.1147 41.7425C43.3754 41.9226 43.6847 42.019 44.0015 42.0189C44.1851 42.0189 44.3726 41.9857 44.5562 41.9173C46.2302 41.2806 47.3572 39.4132 47.3572 37.2685C47.3572 35.1199 46.2302 33.2487 44.5562 32.6139ZM37.2685 0C36.4052 0 35.7079 0.699273 35.7079 1.56067V8.36003C35.7076 8.56505 35.7478 8.76811 35.8261 8.95757C35.9045 9.14704 36.0194 9.31919 36.1644 9.46416C36.3094 9.60913 36.4815 9.72408 36.671 9.80242C36.8605 9.88076 37.0635 9.92095 37.2685 9.9207C38.1299 9.9207 38.8292 9.22338 38.8292 8.36003V1.56067C38.8292 0.699273 38.1299 0 37.2685 0ZM63.6202 10.9091C63.0108 10.2996 62.0205 10.3016 61.411 10.911L56.606 15.7219C55.9966 16.3333 55.9966 17.3217 56.6079 17.9311C56.7527 18.0763 56.9247 18.1914 57.1141 18.2699C57.3035 18.3483 57.5065 18.3885 57.7115 18.3882C58.11 18.3882 58.5104 18.2338 58.8151 17.9291L63.6222 13.1182C64.2296 12.5068 64.2296 11.5185 63.6202 10.9091ZM72.9764 35.7059H66.177C65.3137 35.7059 64.6144 36.4052 64.6144 37.2685C64.6144 38.1299 65.3137 38.8292 66.177 38.8292H72.9764C73.8378 38.8292 74.5371 38.1299 74.5371 37.2685C74.5371 36.4052 73.8378 35.7059 72.9764 35.7059ZM63.6222 61.413L58.8151 56.6001C58.5224 56.3075 58.1255 56.1431 57.7115 56.1431C57.2976 56.1431 56.9006 56.3075 56.6079 56.6001C56.4627 56.7448 56.3474 56.9167 56.2687 57.106C56.1899 57.2953 56.1493 57.4983 56.1492 57.7033C56.149 57.9083 56.1892 58.1114 56.2676 58.3008C56.346 58.4903 56.461 58.6624 56.606 58.8073L61.411 63.6202C61.5563 63.7653 61.7286 63.8803 61.9183 63.9588C62.108 64.0372 62.3113 64.0775 62.5166 64.0773C62.9151 64.0773 63.3155 63.9249 63.6202 63.6202C63.9127 63.3275 64.0772 62.9308 64.0775 62.517C64.0779 62.1032 63.9141 61.7062 63.6222 61.413ZM17.9369 15.7219L13.1241 10.911C12.9794 10.7657 12.8074 10.6504 12.618 10.5717C12.4286 10.493 12.2256 10.4525 12.0205 10.4525C11.8154 10.4525 11.6123 10.493 11.4229 10.5717C11.2335 10.6504 11.0616 10.7657 10.9169 10.911C10.6242 11.2037 10.4598 11.6007 10.4598 12.0146C10.4598 12.4285 10.6242 12.8255 10.9169 13.1182L15.7278 17.9291C15.8723 18.0748 16.0442 18.1904 16.2336 18.2692C16.423 18.348 16.6262 18.3884 16.8314 18.3882C17.2318 18.3882 17.6303 18.2358 17.9369 17.9291C18.2296 17.6364 18.394 17.2395 18.394 16.8255C18.394 16.4116 18.2296 16.0146 17.9369 15.7219ZM8.36589 35.7059H1.56067C0.699274 35.7059 0 36.4052 0 37.2685C0 38.1299 0.699274 38.8292 1.56067 38.8292H8.36589C9.22924 38.8292 9.92851 38.1299 9.92851 37.2685C9.92851 36.4052 9.22924 35.7059 8.36589 35.7059ZM17.9369 56.6001C17.3256 55.9907 16.3372 55.9907 15.7278 56.6001L10.9169 61.4111C10.3074 62.0224 10.3074 63.0108 10.9169 63.6202C11.2216 63.9249 11.62 64.0773 12.0205 64.0773C12.4209 64.0773 12.8194 63.9249 13.1241 63.6202L17.9369 58.8093C18.5464 58.1979 18.5464 57.2096 17.9369 56.6001Z" fill="#F5F7F6"/>
<path d="M50.6075 66.974C50.6075 68.1245 49.6699 69.0601 48.5194 69.0601H26.881C25.7305 69.0601 24.7949 68.1245 24.7949 66.974C24.7949 65.8197 25.7305 64.8801 26.881 64.8801H48.5194C49.6699 64.8801 50.6075 65.8197 50.6075 66.974ZM35.411 93.8922L37.2705 96.6053L39.13 93.8922C38.5187 93.7867 37.8956 93.732 37.2686 93.732C36.6416 93.732 36.0224 93.7867 35.411 93.8922ZM29.0081 72.1834V83.4675H35.7372C35.7177 83.3699 35.7079 83.2702 35.7079 83.1687V72.1834H29.0081ZM38.8292 83.1687C38.8292 83.2702 38.8195 83.3699 38.7999 83.4675H45.529V72.1834H38.8292V83.1687Z" fill="url(#paint0_linear_145_506)"/>
<defs>
<linearGradient id="paint0_linear_145_506" x1="24.8012" y1="80.7565" x2="55.4766" y2="80.7565" gradientUnits="userSpaceOnUse">
<stop stop-color="#3D81DF"/>
<stop offset="0.685" stop-color="#834AD8"/>
<stop offset="0.85" stop-color="#BB41E1"/>
</linearGradient>
</defs>
</svg>
