<svg width="100" height="100" viewBox="0 0 100 100" fill="none" xmlns="http://www.w3.org/2000/svg">
<path d="M89.7785 64.4425C88.0238 61.2183 83.9653 60.0225 80.7313 61.7772L76.7178 63.9598C76.6728 63.868 76.6259 63.7781 76.5771 63.6863C74.8145 60.4582 70.756 59.2643 67.5318 61.0249L60.3879 64.9036L45.5373 60.1299C40.4236 58.4788 35.433 58.9438 30.7023 61.5114L18.3372 68.2353L17.0397 65.9842C16.2444 64.5988 14.4701 64.1181 13.0828 64.9154L6.45469 68.7296C6.12416 68.9183 5.83441 69.1707 5.60228 69.4723C5.37015 69.7738 5.20027 70.1185 5.1025 70.4863C4.89928 71.2347 5.00089 72.0144 5.38388 72.6846C5.38583 72.6865 5.38583 72.6865 5.38583 72.6885L20.3088 98.5579C20.8442 99.4822 21.8212 100 22.8217 100C23.3121 100 23.8084 99.8769 24.2618 99.6151L30.8918 95.8008C31.5601 95.4158 32.0408 94.7945 32.244 94.048C32.4472 93.3016 32.3456 92.5219 31.9587 91.8478L30.7198 89.7003L31.2513 89.4091C34.0026 87.9182 36.9083 87.6466 39.8882 88.6041L46.3072 90.6715C47.8 91.1502 49.2753 91.3886 50.7311 91.3886C53.0114 91.3886 55.239 90.8024 57.3904 89.6319L87.1112 73.4838C88.6686 72.6318 89.8058 71.223 90.31 69.5132C90.818 67.7995 90.6285 65.9979 89.7785 64.4425ZM69.0267 63.7683C70.7404 62.8324 72.8976 63.4674 73.8316 65.1752C73.8805 65.2671 73.9254 65.3609 73.9665 65.4566L67.059 69.2123C66.4649 68.0008 65.5153 66.9847 64.3331 66.3164L69.0267 63.7683ZM22.8998 96.7954L8.20745 71.3265L14.4428 67.737L29.1371 93.2058L22.8998 96.7954ZM87.3145 68.628C87.0448 69.5386 86.441 70.2889 85.6164 70.7403L55.8995 86.8865C53.1502 88.3813 50.2445 88.6549 47.2646 87.6974L40.8437 85.6301C37.0196 84.401 33.2914 84.7488 29.7585 86.6657L29.1586 86.994L19.8984 70.9416L32.1932 64.2569C36.1423 62.1133 40.3102 61.7244 44.5798 63.104L62.1524 68.7531C63.4557 69.1732 64.4093 70.3261 64.5852 71.69C64.5891 71.731 64.5989 71.7701 64.6067 71.8092C64.6047 71.8619 64.6047 71.9167 64.6067 71.9694C64.6262 72.3798 64.5676 72.8096 64.4425 73.2044C63.8407 75.0646 61.8378 76.0905 59.9756 75.4886C55.0085 73.8941 50.0335 72.2918 45.0663 70.6915C44.2457 70.4277 43.3644 70.8791 43.1006 71.6998C42.8348 72.5204 43.2862 73.4017 44.1089 73.6655C49.076 75.2659 54.051 76.8682 59.0181 78.4627C59.6962 78.6815 60.384 78.7851 61.062 78.7851C63.8778 78.7851 66.5021 76.9854 67.4166 74.1579C67.6002 73.5835 67.7038 72.9953 67.7292 72.4032L82.2223 64.5226C83.9438 63.5886 86.103 64.2217 87.035 65.9373C87.4845 66.7619 87.5841 67.7174 87.3145 68.628ZM79.2834 30.2645C74.8262 30.2645 71.2015 33.8873 71.2015 38.3405C71.2015 42.7938 74.8262 46.4165 79.2834 46.4165C83.7366 46.4165 87.3594 42.7938 87.3594 38.3405C87.3594 33.8873 83.7366 30.2645 79.2834 30.2645ZM79.2834 43.294C76.5497 43.294 74.326 41.0723 74.326 38.3405C74.326 35.6108 76.5497 33.389 79.2834 33.389C82.0132 33.389 84.2349 35.6108 84.2349 38.3405C84.2349 41.0723 82.0132 43.294 79.2834 43.294ZM79.2834 30.2645C74.8262 30.2645 71.2015 33.8873 71.2015 38.3405C71.2015 42.7938 74.8262 46.4165 79.2834 46.4165C83.7366 46.4165 87.3594 42.7938 87.3594 38.3405C87.3594 33.8873 83.7366 30.2645 79.2834 30.2645ZM79.2834 43.294C76.5497 43.294 74.326 41.0723 74.326 38.3405C74.326 35.6108 76.5497 33.389 79.2834 33.389C82.0132 33.389 84.2349 35.6108 84.2349 38.3405C84.2349 41.0723 82.0132 43.294 79.2834 43.294ZM79.2834 30.2645C74.8262 30.2645 71.2015 33.8873 71.2015 38.3405C71.2015 42.7938 74.8262 46.4165 79.2834 46.4165C83.7366 46.4165 87.3594 42.7938 87.3594 38.3405C87.3594 33.8873 83.7366 30.2645 79.2834 30.2645ZM79.2834 43.294C76.5497 43.294 74.326 41.0723 74.326 38.3405C74.326 35.6108 76.5497 33.389 79.2834 33.389C82.0132 33.389 84.2349 35.6108 84.2349 38.3405C84.2349 41.0723 82.0132 43.294 79.2834 43.294ZM79.2834 30.2645C74.8262 30.2645 71.2015 33.8873 71.2015 38.3405C71.2015 42.7938 74.8262 46.4165 79.2834 46.4165C83.7366 46.4165 87.3594 42.7938 87.3594 38.3405C87.3594 33.8873 83.7366 30.2645 79.2834 30.2645ZM79.2834 43.294C76.5497 43.294 74.326 41.0723 74.326 38.3405C74.326 35.6108 76.5497 33.389 79.2834 33.389C82.0132 33.389 84.2349 35.6108 84.2349 38.3405C84.2349 41.0723 82.0132 43.294 79.2834 43.294ZM79.2834 30.2645C74.8262 30.2645 71.2015 33.8873 71.2015 38.3405C71.2015 42.7938 74.8262 46.4165 79.2834 46.4165C83.7366 46.4165 87.3594 42.7938 87.3594 38.3405C87.3594 33.8873 83.7366 30.2645 79.2834 30.2645ZM79.2834 43.294C76.5497 43.294 74.326 41.0723 74.326 38.3405C74.326 35.6108 76.5497 33.389 79.2834 33.389C82.0132 33.389 84.2349 35.6108 84.2349 38.3405C84.2349 41.0723 82.0132 43.294 79.2834 43.294ZM79.2834 30.2645C74.8262 30.2645 71.2015 33.8873 71.2015 38.3405C71.2015 42.7938 74.8262 46.4165 79.2834 46.4165C83.7366 46.4165 87.3594 42.7938 87.3594 38.3405C87.3594 33.8873 83.7366 30.2645 79.2834 30.2645ZM79.2834 43.294C76.5497 43.294 74.326 41.0723 74.326 38.3405C74.326 35.6108 76.5497 33.389 79.2834 33.389C82.0132 33.389 84.2349 35.6108 84.2349 38.3405C84.2349 41.0723 82.0132 43.294 79.2834 43.294ZM93.8839 34.8917L92.4184 34.409C92.1532 33.5136 91.795 32.6485 91.3495 31.8277L92.0413 30.4697C92.5044 29.5767 92.3363 28.4961 91.6211 27.7809L89.8371 25.9989C89.4935 25.6542 89.0492 25.4276 88.5684 25.3517C88.0876 25.2759 87.5951 25.3547 87.162 25.5768L85.7903 26.2724C84.9697 25.8269 84.1045 25.4686 83.209 25.2036L82.7362 23.7439C82.6283 23.4074 82.4438 23.1005 82.1974 22.8472C81.9509 22.5939 81.6491 22.4012 81.3156 22.2843V15.1931C81.3155 14.9191 81.2434 14.65 81.1066 14.4127C80.9698 14.1754 80.773 13.9782 80.5359 13.8409L71.4634 8.60213C71.4575 8.60018 71.4536 8.59627 71.4477 8.59431L56.9273 0.209564C56.6901 0.0722851 56.4208 0 56.1467 0C55.8726 0 55.6033 0.0722851 55.3661 0.209564L31.7594 13.8409C31.2748 14.1203 30.9778 14.6362 30.9778 15.1931V42.4518C30.9778 43.0087 31.2748 43.5246 31.7594 43.804L55.3661 57.4295C55.6083 57.5702 55.878 57.6385 56.1477 57.6385C56.4173 57.6385 56.685 57.5702 56.9273 57.4295L68.6847 50.6451L68.7238 50.6842C69.4331 51.3935 70.5078 51.5654 71.4028 51.1101L72.7687 50.4125C73.5952 50.8561 74.4608 51.2156 75.3519 51.4833L75.8248 52.9371C76.1315 53.8946 77.0148 54.5375 78.0211 54.5375H80.5398C81.5462 54.5375 82.4294 53.8946 82.7362 52.943L83.209 51.4833C84.104 51.2144 84.9695 50.8556 85.7923 50.4125L87.1601 51.1101C87.5939 51.332 88.0869 51.4102 88.5681 51.3337C89.0492 51.2571 89.4936 51.0297 89.8371 50.6842L91.6211 48.9001C92.3305 48.1908 92.5005 47.1161 92.0471 46.2231L91.3495 44.8553C91.7931 44.0385 92.1507 43.1709 92.4184 42.274L93.8898 41.7953C94.8375 41.4787 95.4745 40.5994 95.4745 39.6048V37.0782C95.4745 36.07 94.8277 35.1887 93.8839 34.8917ZM67.5182 9.93087L46.2661 22.1983C46.0547 22.3204 45.8749 22.4905 45.7412 22.6948C45.6075 22.8991 45.5236 23.132 45.4962 23.3746C45.4884 23.4313 45.4865 23.486 45.4845 23.5427V30.0574L43.2022 28.7384V21.36L43.7845 21.022L65.2593 8.62753L67.5182 9.93087ZM56.1477 3.36533L62.1348 6.82396L42.2174 18.3195L41.6527 18.6478L35.6655 15.1931L56.1477 3.36533ZM54.5844 29.8659V53.3729L34.1023 41.5491V17.8975L40.0777 21.3463V29.6392C40.0777 30.1981 40.3747 30.712 40.8593 30.9914L46.2642 34.1159C46.5065 34.2547 46.7761 34.325 47.0458 34.325C47.3154 34.325 47.5851 34.2566 47.8274 34.1159C48.31 33.8365 48.609 33.3206 48.609 32.7637V26.2724L54.5923 29.7252C54.5883 29.7721 54.5844 29.819 54.5844 29.8659ZM56.1457 27.0169L50.1566 23.5602L70.6407 11.7364L76.6298 15.1931L56.1457 27.0169ZM66.5138 46.2231C66.3504 46.5439 66.2644 46.8985 66.2627 47.2586C66.2611 47.6186 66.3437 47.974 66.504 48.2963L57.7089 53.3729V29.8659C57.7089 29.819 57.705 29.7721 57.7011 29.7252L78.1911 17.8975V22.1514H78.0211C77.0128 22.1514 76.1296 22.7923 75.8248 23.74L75.3519 25.2036C74.4563 25.4683 73.5911 25.8265 72.7706 26.2724L71.4008 25.5768C70.9674 25.3546 70.4746 25.2758 69.9935 25.3516C69.5124 25.4275 69.0678 25.6541 68.7238 25.9989L66.9398 27.7809C66.2246 28.4961 66.0566 29.5767 66.5138 30.4599L67.2133 31.8297C66.7683 32.6511 66.4088 33.5161 66.1406 34.411L64.6868 34.8878C63.7293 35.1945 63.0864 36.0758 63.0864 37.0782V39.6048C63.0864 40.5935 63.7195 41.4728 64.6614 41.7914L64.6829 41.7992L66.1425 42.272C66.4104 43.1671 66.7686 44.0326 67.2114 44.8553L66.5138 46.2231ZM92.35 39.0108L91.0486 39.4348C90.2963 39.6732 89.7257 40.2711 89.5206 41.041C89.2808 41.9582 88.9173 42.8384 88.44 43.6575C88.0355 44.3335 88.0062 45.1601 88.3657 45.8792L88.993 47.1102L88.0472 48.056L86.8123 47.4248C86.1088 47.0731 85.2862 47.0985 84.614 47.4913C83.7816 47.9759 82.8944 48.3432 81.9819 48.5836C81.214 48.7868 80.6278 49.3339 80.3737 50.0999L79.9478 51.413H78.6132L78.1833 50.0882C77.9312 49.332 77.345 48.7848 76.581 48.5855C75.6602 48.341 74.7763 47.9742 73.9528 47.4952C73.2747 47.0985 72.4521 47.0731 71.7369 47.4307L70.5137 48.056L69.5679 47.1102L70.2011 45.8694C70.5528 45.164 70.5254 44.3433 70.1288 43.6711C69.6491 42.8451 69.2824 41.9586 69.0384 41.0351C68.8352 40.2711 68.2666 39.6732 67.524 39.4367L66.2109 39.0108V37.6762L67.5162 37.2482C68.2666 37.0098 68.8352 36.41 69.0404 35.642C69.2807 34.7236 69.6481 33.8404 70.1288 33.0138C70.5254 32.3397 70.5508 31.5151 70.1952 30.8019L69.5679 29.5708L70.5098 28.629L71.735 29.2504C72.4228 29.608 73.2415 29.5904 73.9274 29.2074C73.9352 29.2015 73.943 29.1976 73.9528 29.1918C74.7813 28.7072 75.6626 28.3398 76.5751 28.1053C77.3333 27.906 77.9332 27.3432 78.1872 26.5831L78.6112 25.2739H79.9497L80.3777 26.5929C80.6258 27.3413 81.2277 27.906 81.9878 28.1053C82.8964 28.3398 83.7796 28.7072 84.6081 29.1918C84.6179 29.1976 84.6257 29.2015 84.6335 29.2074C85.3174 29.5904 86.1362 29.606 86.826 29.2504L88.0511 28.629L88.993 29.5708L88.3599 30.8136C88.0081 31.5151 88.0355 32.3397 88.4341 33.0197C88.9109 33.8267 89.2763 34.7099 89.5225 35.6479C89.6207 36.0211 89.8118 36.3635 90.0779 36.6429C90.3441 36.9224 90.6767 37.13 91.0447 37.2463L92.35 37.6742V39.0108ZM79.2834 30.2645C74.8262 30.2645 71.2015 33.8873 71.2015 38.3405C71.2015 42.7938 74.8262 46.4165 79.2834 46.4165C83.7366 46.4165 87.3594 42.7938 87.3594 38.3405C87.3594 33.8873 83.7366 30.2645 79.2834 30.2645ZM79.2834 43.294C76.5497 43.294 74.326 41.0723 74.326 38.3405C74.326 35.6108 76.5497 33.389 79.2834 33.389C82.0132 33.389 84.2349 35.6108 84.2349 38.3405C84.2349 41.0723 82.0132 43.294 79.2834 43.294ZM79.2834 30.2645C74.8262 30.2645 71.2015 33.8873 71.2015 38.3405C71.2015 42.7938 74.8262 46.4165 79.2834 46.4165C83.7366 46.4165 87.3594 42.7938 87.3594 38.3405C87.3594 33.8873 83.7366 30.2645 79.2834 30.2645ZM79.2834 43.294C76.5497 43.294 74.326 41.0723 74.326 38.3405C74.326 35.6108 76.5497 33.389 79.2834 33.389C82.0132 33.389 84.2349 35.6108 84.2349 38.3405C84.2349 41.0723 82.0132 43.294 79.2834 43.294ZM79.2834 30.2645C74.8262 30.2645 71.2015 33.8873 71.2015 38.3405C71.2015 42.7938 74.8262 46.4165 79.2834 46.4165C83.7366 46.4165 87.3594 42.7938 87.3594 38.3405C87.3594 33.8873 83.7366 30.2645 79.2834 30.2645ZM79.2834 43.294C76.5497 43.294 74.326 41.0723 74.326 38.3405C74.326 35.6108 76.5497 33.389 79.2834 33.389C82.0132 33.389 84.2349 35.6108 84.2349 38.3405C84.2349 41.0723 82.0132 43.294 79.2834 43.294ZM79.2834 30.2645C74.8262 30.2645 71.2015 33.8873 71.2015 38.3405C71.2015 42.7938 74.8262 46.4165 79.2834 46.4165C83.7366 46.4165 87.3594 42.7938 87.3594 38.3405C87.3594 33.8873 83.7366 30.2645 79.2834 30.2645ZM79.2834 43.294C76.5497 43.294 74.326 41.0723 74.326 38.3405C74.326 35.6108 76.5497 33.389 79.2834 33.389C82.0132 33.389 84.2349 35.6108 84.2349 38.3405C84.2349 41.0723 82.0132 43.294 79.2834 43.294ZM79.2834 30.2645C74.8262 30.2645 71.2015 33.8873 71.2015 38.3405C71.2015 42.7938 74.8262 46.4165 79.2834 46.4165C83.7366 46.4165 87.3594 42.7938 87.3594 38.3405C87.3594 33.8873 83.7366 30.2645 79.2834 30.2645ZM79.2834 43.294C76.5497 43.294 74.326 41.0723 74.326 38.3405C74.326 35.6108 76.5497 33.389 79.2834 33.389C82.0132 33.389 84.2349 35.6108 84.2349 38.3405C84.2349 41.0723 82.0132 43.294 79.2834 43.294ZM79.2834 30.2645C74.8262 30.2645 71.2015 33.8873 71.2015 38.3405C71.2015 42.7938 74.8262 46.4165 79.2834 46.4165C83.7366 46.4165 87.3594 42.7938 87.3594 38.3405C87.3594 33.8873 83.7366 30.2645 79.2834 30.2645ZM79.2834 43.294C76.5497 43.294 74.326 41.0723 74.326 38.3405C74.326 35.6108 76.5497 33.389 79.2834 33.389C82.0132 33.389 84.2349 35.6108 84.2349 38.3405C84.2349 41.0723 82.0132 43.294 79.2834 43.294ZM79.2834 30.2645C74.8262 30.2645 71.2015 33.8873 71.2015 38.3405C71.2015 42.7938 74.8262 46.4165 79.2834 46.4165C83.7366 46.4165 87.3594 42.7938 87.3594 38.3405C87.3594 33.8873 83.7366 30.2645 79.2834 30.2645ZM79.2834 43.294C76.5497 43.294 74.326 41.0723 74.326 38.3405C74.326 35.6108 76.5497 33.389 79.2834 33.389C82.0132 33.389 84.2349 35.6108 84.2349 38.3405C84.2349 41.0723 82.0132 43.294 79.2834 43.294Z" fill="#ABA9AC"/>
<path d="M41.6532 18.6477L35.6661 15.1929L56.1482 3.36517L62.1354 6.82381L42.2179 18.3194L41.6532 18.6477ZM70.6413 11.7362L50.1572 23.5601L56.1463 27.0168L76.6304 15.1929L70.6413 11.7362ZM64.6834 41.799L64.6619 41.7912C63.7201 41.4727 63.087 40.5934 63.087 39.6046V37.0781C63.087 36.0757 63.7299 35.1944 64.6873 34.8876L66.1411 34.4108C66.4088 33.5198 66.7664 32.6542 67.2139 31.8296L66.5143 30.4598C66.0571 29.5766 66.2252 28.496 66.9403 27.7808L68.7244 25.9987C69.4317 25.2914 70.5064 25.1214 71.4014 25.5767L72.7712 26.2723C73.5917 25.8264 74.4569 25.4681 75.3524 25.2034L75.8253 23.7399C76.1301 22.7922 77.0134 22.1512 78.0216 22.1512H78.1916V17.8973L57.7017 29.7251C57.7056 29.772 57.7095 29.8189 57.7095 29.8658V53.3728L66.5046 48.2962C66.3442 47.9738 66.2616 47.6184 66.2633 47.2584C66.265 46.8984 66.351 46.5438 66.5143 46.2229L67.2119 44.8551C66.7691 44.0325 66.411 43.1669 66.1431 42.2719L64.6834 41.799ZM92.3506 37.6741V39.0106L91.0492 39.4346C90.2969 39.673 89.7263 40.271 89.5211 41.0409C89.2813 41.958 88.9178 42.8382 88.4405 43.6573C88.0361 44.3334 88.0067 45.16 88.3663 45.879L88.9935 47.1101L88.0478 48.0558L86.8128 47.4247C86.1094 47.073 85.2867 47.0984 84.6145 47.4911C83.7821 47.9757 82.895 48.3431 81.9825 48.5834C81.2145 48.7866 80.6283 49.3338 80.3743 50.0998L79.9483 51.4129H78.6137L78.1838 50.088C77.9318 49.3318 77.3456 48.7847 76.5815 48.5854C75.6607 48.3408 74.7768 47.9741 73.9533 47.495C73.2753 47.0984 72.4527 47.073 71.7375 47.4305L70.5143 48.0558L69.5685 47.1101L70.2016 45.8693C70.5533 45.1639 70.526 44.3432 70.1293 43.671C69.6497 42.845 69.283 41.9584 69.039 41.035C68.8357 40.271 68.2671 39.673 67.5246 39.4366L66.2115 39.0106V37.676L67.5168 37.2481C68.2671 37.0097 68.8357 36.4098 69.0409 35.6419C69.2813 34.7235 69.6486 33.8403 70.1293 33.0137C70.526 32.3396 70.5514 31.515 70.1957 30.8017L69.5685 29.5707L70.5103 28.6288L71.7355 29.2502C72.4233 29.6078 73.2421 29.5902 73.9279 29.2072C73.9358 29.2014 73.9436 29.1975 73.9533 29.1916C74.7819 28.707 75.6631 28.3397 76.5757 28.1052C77.3338 27.9059 77.9337 27.3431 78.1877 26.583L78.6118 25.2738H79.9503L80.3782 26.5927C80.6264 27.3411 81.2282 27.9059 81.9883 28.1052C82.8969 28.3397 83.7802 28.707 84.6087 29.1916C84.6185 29.1975 84.6263 29.2014 84.6341 29.2072C85.318 29.5902 86.1367 29.6059 86.8265 29.2502L88.0517 28.6288L88.9935 29.5707L88.3604 30.8135C88.0087 31.515 88.0361 32.3396 88.4347 33.0196C88.9115 33.8266 89.2769 34.7098 89.5231 35.6477C89.6212 36.021 89.8123 36.3633 90.0785 36.6428C90.3447 36.9223 90.6772 37.1298 91.0453 37.2461L92.3506 37.6741ZM87.36 38.3404C87.36 33.8871 83.7372 30.2644 79.2839 30.2644C74.8268 30.2644 71.2021 33.8871 71.2021 38.3404C71.2021 42.7936 74.8268 46.4164 79.2839 46.4164C83.7372 46.4164 87.36 42.7936 87.36 38.3404ZM48.6096 32.7636C48.6096 33.3205 48.3106 33.8363 47.8279 34.1158C47.5856 34.2565 47.316 34.3249 47.0463 34.3249C46.7767 34.3249 46.507 34.2545 46.2647 34.1158L40.8599 30.9913C40.3753 30.7118 40.0783 30.1979 40.0783 29.6391V21.3462L34.1028 17.8973V41.5489L54.585 53.3728V29.8658C54.585 29.8189 54.5889 29.772 54.5928 29.7251L48.6096 26.2723V32.7636ZM8.20801 71.3264L22.9004 96.7952L29.1376 93.2057L14.4433 67.7368L8.20801 71.3264Z" fill="url(#paint0_linear_145_516)"/>
<defs>
<linearGradient id="paint0_linear_145_516" x1="8.2286" y1="50.121" x2="108.223" y2="50.121" gradientUnits="userSpaceOnUse">
<stop stop-color="#3D81DF"/>
<stop offset="0.685" stop-color="#834AD8"/>
<stop offset="0.85" stop-color="#BB41E1"/>
</linearGradient>
</defs>
</svg>
