<svg width="100" height="100" viewBox="0 0 100 100" fill="none" xmlns="http://www.w3.org/2000/svg">
<path d="M16.5371 5.39258C14.3535 5.39258 12.5781 7.16797 12.5781 9.35156C12.5781 11.5312 14.3535 13.3047 16.5371 13.3047C18.7207 13.3047 20.4961 11.5312 20.4961 9.35156C20.4961 7.16797 18.7207 5.39258 16.5371 5.39258ZM16.5371 10.1816C16.084 10.1816 15.7012 9.80273 15.7012 9.35156C15.7012 8.89062 16.0762 8.51562 16.5371 8.51562C16.998 8.51562 17.373 8.89062 17.373 9.35156C17.373 9.80273 16.9902 10.1816 16.5371 10.1816ZM22.6387 45.6328H17.6621C16.7988 45.6328 16.0996 46.3301 16.0996 47.1934C16.0996 48.0547 16.7988 48.7539 17.6621 48.7539H22.6387C23.5 48.7539 24.1992 48.0547 24.1992 47.1934C24.1992 46.3301 23.5 45.6328 22.6387 45.6328ZM22.6387 35.5215H17.6621C16.7988 35.5215 16.0996 36.2207 16.0996 37.084C16.0996 37.9453 16.7988 38.6445 17.6621 38.6445H22.6387C23.5 38.6445 24.1992 37.9453 24.1992 37.084C24.1992 36.2207 23.5 35.5215 22.6387 35.5215ZM22.6387 25.4121H17.6621C16.7988 25.4121 16.0996 26.1113 16.0996 26.9746C16.0996 27.8359 16.7988 28.5352 17.6621 28.5352H22.6387C23.5 28.5352 24.1992 27.8359 24.1992 26.9746C24.1992 26.1113 23.5 25.4121 22.6387 25.4121ZM25.8223 5.39258C23.6387 5.39258 21.8633 7.16797 21.8633 9.35156C21.8633 11.5312 23.6387 13.3047 25.8223 13.3047C28.002 13.3047 29.7754 11.5312 29.7754 9.35156C29.7754 7.16797 28.002 5.39258 25.8223 5.39258ZM25.8223 10.1816C25.3613 10.1816 24.9863 9.81055 24.9863 9.35156C24.9863 8.89062 25.3613 8.51562 25.8223 8.51562C26.2793 8.51562 26.6523 8.89062 26.6523 9.35156C26.6523 9.81055 26.2793 10.1816 25.8223 10.1816ZM32.5547 45.6328H27.5723C26.709 45.6328 26.0098 46.3301 26.0098 47.1934C26.0098 48.0547 26.709 48.7539 27.5723 48.7539H32.5547C33.416 48.7539 34.1152 48.0547 34.1152 47.1934C34.1152 46.3301 33.416 45.6328 32.5547 45.6328ZM32.5547 25.4121H27.5723C26.709 25.4121 26.0098 26.1113 26.0098 26.9746C26.0098 27.8359 26.709 28.5352 27.5723 28.5352H32.5547C33.416 28.5352 34.1152 27.8359 34.1152 26.9746C34.1152 26.1113 33.416 25.4121 32.5547 25.4121ZM35.4336 35.5215H27.5723C26.709 35.5215 26.0098 36.2207 26.0098 37.084C26.0098 37.9453 26.709 38.6445 27.5723 38.6445H35.4336C36.2949 38.6445 36.9941 37.9453 36.9941 37.084C36.9941 36.2207 36.2949 35.5215 35.4336 35.5215ZM35.1016 5.39258C32.918 5.39258 31.1426 7.16797 31.1426 9.35156C31.1426 11.5312 32.918 13.3047 35.1016 13.3047C37.2832 13.3047 39.0586 11.5312 39.0586 9.35156C39.0586 7.16797 37.2832 5.39258 35.1016 5.39258ZM35.1016 10.1816C34.6484 10.1816 34.2656 9.80273 34.2656 9.35156C34.2656 8.89062 34.6406 8.51562 35.1016 8.51562C35.5625 8.51562 35.9375 8.89062 35.9375 9.35156C35.9375 9.80273 35.5547 10.1816 35.1016 10.1816ZM42.4648 45.6328H37.4863C36.625 45.6328 35.9258 46.3301 35.9258 47.1934C35.9258 48.0547 36.625 48.7539 37.4863 48.7539H42.4648C43.3262 48.7539 44.0254 48.0547 44.0254 47.1934C44.0254 46.3301 43.3262 45.6328 42.4648 45.6328ZM42.4648 25.4121H37.4863C36.625 25.4121 35.9258 26.1113 35.9258 26.9746C35.9258 27.8359 36.625 28.5352 37.4863 28.5352H42.4648C43.3262 28.5352 44.0254 27.8359 44.0254 26.9746C44.0254 26.1113 43.3262 25.4121 42.4648 25.4121ZM43.5938 85.5918L32.9473 77.1797L43.5078 69.9395C44.2188 69.4531 44.4004 68.4805 43.9121 67.7695C43.4258 67.0586 42.4531 66.877 41.7422 67.3652L29.4355 75.8027C29.2333 75.9405 29.0665 76.1242 28.9487 76.3387C28.8309 76.5532 28.7655 76.7925 28.7578 77.0371C28.7493 77.2815 28.7984 77.5245 28.9012 77.7464C29.004 77.9684 29.1576 78.1629 29.3496 78.3145L41.6562 88.043C41.9314 88.2607 42.2721 88.3791 42.623 88.3789C43.084 88.3789 43.541 88.1758 43.8496 87.7852C44.3848 87.1094 44.2695 86.127 43.5938 85.5918ZM52.3809 45.6328H47.3965C46.5352 45.6328 45.8359 46.3301 45.8359 47.1934C45.8359 48.0547 46.5352 48.7539 47.3965 48.7539H52.3809C53.2422 48.7539 53.9414 48.0547 53.9414 47.1934C53.9414 46.3301 53.2422 45.6328 52.3809 45.6328ZM54.8223 35.5215H40.3652C39.5039 35.5215 38.8047 36.2207 38.8047 37.084C38.8047 37.9453 39.5039 38.6445 40.3652 38.6445H54.8223C55.6836 38.6445 56.3828 37.9453 56.3828 37.084C56.3828 36.2207 55.6836 35.5215 54.8223 35.5215ZM56.9805 63.1309C56.7825 63.0774 56.5758 63.0635 56.3724 63.0901C56.1691 63.1166 55.9729 63.183 55.7953 63.2856C55.6176 63.3881 55.462 63.5247 55.3372 63.6875C55.2125 63.8503 55.1211 64.0362 55.0684 64.2344L48.0488 90.4316C47.8242 91.2656 48.3203 92.1211 49.1523 92.3438C49.2871 92.3809 49.4238 92.3984 49.5566 92.3984C50.2461 92.3984 50.877 91.9375 51.0645 91.2402L58.084 65.043C58.1375 64.845 58.1513 64.6383 58.1248 64.4349C58.0982 64.2316 58.0318 64.0354 57.9293 63.8578C57.8267 63.6801 57.6902 63.5245 57.5273 63.3997C57.3645 63.275 57.1787 63.1836 56.9805 63.1309ZM61.2168 25.4121H47.3965C46.5352 25.4121 45.8359 26.1113 45.8359 26.9746C45.8359 27.8359 46.5352 28.5352 47.3965 28.5352H61.2168C62.0781 28.5352 62.7773 27.8359 62.7773 26.9746C62.7773 26.1113 62.0781 25.4121 61.2168 25.4121ZM63.2637 35.5215H59.748C58.8867 35.5215 58.1875 36.2207 58.1875 37.084C58.1875 37.9453 58.8867 38.6445 59.748 38.6445H63.2637C64.1269 38.6445 64.8262 37.9453 64.8262 37.084C64.8262 36.2207 64.1269 35.5215 63.2637 35.5215ZM71.7637 35.5215H68.1973C67.3359 35.5215 66.6367 36.2207 66.6367 37.084C66.6367 37.9453 67.3359 38.6445 68.1973 38.6445H71.7637C72.625 38.6445 73.3242 37.9453 73.3242 37.084C73.3242 36.2207 72.625 35.5215 71.7637 35.5215ZM76.7031 75.8027L64.3906 67.3652C63.6797 66.877 62.707 67.0586 62.2207 67.7695C61.7324 68.4805 61.9141 69.4531 62.625 69.9395L73.1895 77.1797L62.541 85.5918C61.8633 86.127 61.748 87.1094 62.2832 87.7852C62.5918 88.1758 63.0488 88.3789 63.5098 88.3789C63.8477 88.3789 64.1895 88.2695 64.4766 88.043L76.7891 78.3145C77.1777 78.0078 77.3984 77.5332 77.3809 77.0371C77.3732 76.7925 77.3077 76.5532 77.19 76.3387C77.0722 76.1242 76.9054 75.9405 76.7031 75.8027ZM86.8008 7.79102H45.3828C44.5195 7.79102 43.8203 8.49023 43.8203 9.35156C43.8203 10.2148 44.5195 10.9121 45.3828 10.9121H86.8008C87.6621 10.9121 88.3613 10.2148 88.3613 9.35156C88.3613 8.49023 87.6621 7.79102 86.8008 7.79102ZM86.8008 7.79102H45.3828C44.5195 7.79102 43.8203 8.49023 43.8203 9.35156C43.8203 10.2148 44.5195 10.9121 45.3828 10.9121H86.8008C87.6621 10.9121 88.3613 10.2148 88.3613 9.35156C88.3613 8.49023 87.6621 7.79102 86.8008 7.79102ZM35.1016 5.39258C32.918 5.39258 31.1426 7.16797 31.1426 9.35156C31.1426 11.5312 32.918 13.3047 35.1016 13.3047C37.2832 13.3047 39.0586 11.5312 39.0586 9.35156C39.0586 7.16797 37.2832 5.39258 35.1016 5.39258ZM35.1016 10.1816C34.6484 10.1816 34.2656 9.80273 34.2656 9.35156C34.2656 8.89062 34.6406 8.51562 35.1016 8.51562C35.5625 8.51562 35.9375 8.89062 35.9375 9.35156C35.9375 9.80273 35.5547 10.1816 35.1016 10.1816ZM25.8223 5.39258C23.6387 5.39258 21.8633 7.16797 21.8633 9.35156C21.8633 11.5312 23.6387 13.3047 25.8223 13.3047C28.002 13.3047 29.7754 11.5312 29.7754 9.35156C29.7754 7.16797 28.002 5.39258 25.8223 5.39258ZM25.8223 10.1816C25.3613 10.1816 24.9863 9.81055 24.9863 9.35156C24.9863 8.89062 25.3613 8.51562 25.8223 8.51562C26.2793 8.51562 26.6523 8.89062 26.6523 9.35156C26.6523 9.81055 26.2793 10.1816 25.8223 10.1816ZM16.5371 5.39258C14.3535 5.39258 12.5781 7.16797 12.5781 9.35156C12.5781 11.5312 14.3535 13.3047 16.5371 13.3047C18.7207 13.3047 20.4961 11.5312 20.4961 9.35156C20.4961 7.16797 18.7207 5.39258 16.5371 5.39258ZM16.5371 10.1816C16.084 10.1816 15.7012 9.80273 15.7012 9.35156C15.7012 8.89062 16.0762 8.51562 16.5371 8.51562C16.998 8.51562 17.373 8.89062 17.373 9.35156C17.373 9.80273 16.9902 10.1816 16.5371 10.1816ZM71.7637 35.5215H68.1973C67.3359 35.5215 66.6367 36.2207 66.6367 37.084C66.6367 37.9453 67.3359 38.6445 68.1973 38.6445H71.7637C72.625 38.6445 73.3242 37.9453 73.3242 37.084C73.3242 36.2207 72.625 35.5215 71.7637 35.5215ZM63.2637 35.5215H59.748C58.8867 35.5215 58.1875 36.2207 58.1875 37.084C58.1875 37.9453 58.8867 38.6445 59.748 38.6445H63.2637C64.1269 38.6445 64.8262 37.9453 64.8262 37.084C64.8262 36.2207 64.1269 35.5215 63.2637 35.5215ZM47.3965 28.5352H61.2168C62.0781 28.5352 62.7773 27.8359 62.7773 26.9746C62.7773 26.1113 62.0781 25.4121 61.2168 25.4121H47.3965C46.5352 25.4121 45.8359 26.1113 45.8359 26.9746C45.8359 27.8359 46.5352 28.5352 47.3965 28.5352ZM54.8223 35.5215H40.3652C39.5039 35.5215 38.8047 36.2207 38.8047 37.084C38.8047 37.9453 39.5039 38.6445 40.3652 38.6445H54.8223C55.6836 38.6445 56.3828 37.9453 56.3828 37.084C56.3828 36.2207 55.6836 35.5215 54.8223 35.5215ZM52.3809 45.6328H47.3965C46.5352 45.6328 45.8359 46.3301 45.8359 47.1934C45.8359 48.0547 46.5352 48.7539 47.3965 48.7539H52.3809C53.2422 48.7539 53.9414 48.0547 53.9414 47.1934C53.9414 46.3301 53.2422 45.6328 52.3809 45.6328ZM37.4863 28.5352H42.4648C43.3262 28.5352 44.0254 27.8359 44.0254 26.9746C44.0254 26.1113 43.3262 25.4121 42.4648 25.4121H37.4863C36.625 25.4121 35.9258 26.1113 35.9258 26.9746C35.9258 27.8359 36.625 28.5352 37.4863 28.5352ZM42.4648 45.6328H37.4863C36.625 45.6328 35.9258 46.3301 35.9258 47.1934C35.9258 48.0547 36.625 48.7539 37.4863 48.7539H42.4648C43.3262 48.7539 44.0254 48.0547 44.0254 47.1934C44.0254 46.3301 43.3262 45.6328 42.4648 45.6328ZM36.9941 37.084C36.9941 36.2207 36.2949 35.5215 35.4336 35.5215H27.5723C26.709 35.5215 26.0098 36.2207 26.0098 37.084C26.0098 37.9453 26.709 38.6445 27.5723 38.6445H35.4336C36.2949 38.6445 36.9941 37.9453 36.9941 37.084ZM27.5723 28.5352H32.5547C33.416 28.5352 34.1152 27.8359 34.1152 26.9746C34.1152 26.1113 33.416 25.4121 32.5547 25.4121H27.5723C26.709 25.4121 26.0098 26.1113 26.0098 26.9746C26.0098 27.8359 26.709 28.5352 27.5723 28.5352ZM32.5547 45.6328H27.5723C26.709 45.6328 26.0098 46.3301 26.0098 47.1934C26.0098 48.0547 26.709 48.7539 27.5723 48.7539H32.5547C33.416 48.7539 34.1152 48.0547 34.1152 47.1934C34.1152 46.3301 33.416 45.6328 32.5547 45.6328ZM22.6387 25.4121H17.6621C16.7988 25.4121 16.0996 26.1113 16.0996 26.9746C16.0996 27.8359 16.7988 28.5352 17.6621 28.5352H22.6387C23.5 28.5352 24.1992 27.8359 24.1992 26.9746C24.1992 26.1113 23.5 25.4121 22.6387 25.4121ZM22.6387 35.5215H17.6621C16.7988 35.5215 16.0996 36.2207 16.0996 37.084C16.0996 37.9453 16.7988 38.6445 17.6621 38.6445H22.6387C23.5 38.6445 24.1992 37.9453 24.1992 37.084C24.1992 36.2207 23.5 35.5215 22.6387 35.5215ZM22.6387 45.6328H17.6621C16.7988 45.6328 16.0996 46.3301 16.0996 47.1934C16.0996 48.0547 16.7988 48.7539 17.6621 48.7539H22.6387C23.5 48.7539 24.1992 48.0547 24.1992 47.1934C24.1992 46.3301 23.5 45.6328 22.6387 45.6328ZM76.7031 75.8027L64.3906 67.3652C63.6797 66.877 62.707 67.0586 62.2207 67.7695C61.7324 68.4805 61.9141 69.4531 62.625 69.9395L73.1895 77.1797L62.541 85.5918C61.8633 86.127 61.748 87.1094 62.2832 87.7852C62.5918 88.1758 63.0488 88.3789 63.5098 88.3789C63.8477 88.3789 64.1895 88.2695 64.4766 88.043L76.7891 78.3145C77.1777 78.0078 77.3984 77.5332 77.3809 77.0371C77.3732 76.7925 77.3077 76.5532 77.19 76.3387C77.0722 76.1242 76.9054 75.9405 76.7031 75.8027ZM56.9805 63.1309C56.7825 63.0774 56.5758 63.0635 56.3724 63.0901C56.1691 63.1166 55.9729 63.183 55.7953 63.2856C55.6176 63.3881 55.462 63.5247 55.3372 63.6875C55.2125 63.8503 55.1211 64.0362 55.0684 64.2344L48.0488 90.4316C47.8242 91.2656 48.3203 92.1211 49.1523 92.3438C49.2871 92.3809 49.4238 92.3984 49.5566 92.3984C50.2461 92.3984 50.877 91.9375 51.0645 91.2402L58.084 65.043C58.1375 64.845 58.1513 64.6383 58.1248 64.4349C58.0982 64.2316 58.0318 64.0354 57.9293 63.8578C57.8267 63.6801 57.6902 63.5245 57.5273 63.3997C57.3645 63.275 57.1787 63.1836 56.9805 63.1309ZM43.9121 67.7695C43.4258 67.0586 42.4531 66.877 41.7422 67.3652L29.4355 75.8027C29.2333 75.9405 29.0665 76.1242 28.9487 76.3387C28.8309 76.5532 28.7655 76.7925 28.7578 77.0371C28.7493 77.2815 28.7984 77.5245 28.9012 77.7464C29.004 77.9684 29.1576 78.1629 29.3496 78.3145L41.6562 88.043C41.9314 88.2607 42.2721 88.3791 42.623 88.3789C43.084 88.3789 43.541 88.1758 43.8496 87.7852C44.3848 87.1094 44.2695 86.127 43.5938 85.5918L32.9473 77.1797L43.5078 69.9395C44.2188 69.4531 44.4004 68.4805 43.9121 67.7695ZM89.9883 0H10.957C6.57031 0 3 3.57227 3 7.96289V81.0312C3 85.418 6.57031 88.9883 10.957 88.9883H21.2871V93.084C21.2871 96.8965 24.3887 100 28.2031 100H77.9297C81.7441 100 84.8457 96.8965 84.8457 93.084V88.9883H89.9883C94.375 88.9883 97.9453 85.418 97.9453 81.0312V7.96289C97.9453 3.57227 94.375 0 89.9883 0ZM81.7227 93.084C81.7227 95.1758 80.0215 96.877 77.9297 96.877H28.2031C26.1113 96.877 24.4102 95.1758 24.4102 93.084V62.3848C24.4102 60.293 26.1113 58.5918 28.2031 58.5918H77.9297C80.0215 58.5918 81.7227 60.293 81.7227 62.3848V93.084ZM94.8223 81.0312C94.8223 83.6973 92.6543 85.8652 89.9883 85.8652H84.8457V62.3848C84.8457 58.5723 81.7441 55.4707 77.9297 55.4707H28.2031C24.3887 55.4707 21.2871 58.5723 21.2871 62.3848V85.8652H10.957C8.29102 85.8652 6.12305 83.6973 6.12305 81.0312V18.6973H94.8223V81.0312ZM94.8223 15.5742H6.12305V7.96289C6.12305 5.29297 8.29102 3.12305 10.957 3.12305H89.9883C92.6543 3.12305 94.8223 5.29297 94.8223 7.96289V15.5742ZM86.8008 7.79102H45.3828C44.5195 7.79102 43.8203 8.49023 43.8203 9.35156C43.8203 10.2148 44.5195 10.9121 45.3828 10.9121H86.8008C87.6621 10.9121 88.3613 10.2148 88.3613 9.35156C88.3613 8.49023 87.6621 7.79102 86.8008 7.79102ZM76.7031 75.8027L64.3906 67.3652C63.6797 66.877 62.707 67.0586 62.2207 67.7695C61.7324 68.4805 61.9141 69.4531 62.625 69.9395L73.1895 77.1797L62.541 85.5918C61.8633 86.127 61.748 87.1094 62.2832 87.7852C62.5918 88.1758 63.0488 88.3789 63.5098 88.3789C63.8477 88.3789 64.1895 88.2695 64.4766 88.043L76.7891 78.3145C77.1777 78.0078 77.3984 77.5332 77.3809 77.0371C77.3732 76.7925 77.3077 76.5532 77.19 76.3387C77.0722 76.1242 76.9054 75.9405 76.7031 75.8027ZM68.1973 38.6445H71.7637C72.625 38.6445 73.3242 37.9453 73.3242 37.084C73.3242 36.2207 72.625 35.5215 71.7637 35.5215H68.1973C67.3359 35.5215 66.6367 36.2207 66.6367 37.084C66.6367 37.9453 67.3359 38.6445 68.1973 38.6445ZM58.1875 37.084C58.1875 37.9453 58.8867 38.6445 59.748 38.6445H63.2637C64.1269 38.6445 64.8262 37.9453 64.8262 37.084C64.8262 36.2207 64.1269 35.5215 63.2637 35.5215H59.748C58.8867 35.5215 58.1875 36.2207 58.1875 37.084ZM47.3965 28.5352H61.2168C62.0781 28.5352 62.7773 27.8359 62.7773 26.9746C62.7773 26.1113 62.0781 25.4121 61.2168 25.4121H47.3965C46.5352 25.4121 45.8359 26.1113 45.8359 26.9746C45.8359 27.8359 46.5352 28.5352 47.3965 28.5352ZM56.9805 63.1309C56.7825 63.0774 56.5758 63.0635 56.3724 63.0901C56.1691 63.1166 55.9729 63.183 55.7953 63.2856C55.6176 63.3881 55.462 63.5247 55.3372 63.6875C55.2125 63.8503 55.1211 64.0362 55.0684 64.2344L48.0488 90.4316C47.8242 91.2656 48.3203 92.1211 49.1523 92.3438C49.2871 92.3809 49.4238 92.3984 49.5566 92.3984C50.2461 92.3984 50.877 91.9375 51.0645 91.2402L58.084 65.043C58.1375 64.845 58.1513 64.6383 58.1248 64.4349C58.0982 64.2316 58.0318 64.0354 57.9293 63.8578C57.8267 63.6801 57.6902 63.5245 57.5273 63.3997C57.3645 63.275 57.1787 63.1836 56.9805 63.1309ZM54.8223 35.5215H40.3652C39.5039 35.5215 38.8047 36.2207 38.8047 37.084C38.8047 37.9453 39.5039 38.6445 40.3652 38.6445H54.8223C55.6836 38.6445 56.3828 37.9453 56.3828 37.084C56.3828 36.2207 55.6836 35.5215 54.8223 35.5215ZM52.3809 45.6328H47.3965C46.5352 45.6328 45.8359 46.3301 45.8359 47.1934C45.8359 48.0547 46.5352 48.7539 47.3965 48.7539H52.3809C53.2422 48.7539 53.9414 48.0547 53.9414 47.1934C53.9414 46.3301 53.2422 45.6328 52.3809 45.6328ZM43.9121 67.7695C43.4258 67.0586 42.4531 66.877 41.7422 67.3652L29.4355 75.8027C29.2333 75.9405 29.0665 76.1242 28.9487 76.3387C28.8309 76.5532 28.7655 76.7925 28.7578 77.0371C28.7493 77.2815 28.7984 77.5245 28.9012 77.7464C29.004 77.9684 29.1576 78.1629 29.3496 78.3145L41.6562 88.043C41.9314 88.2607 42.2721 88.3791 42.623 88.3789C43.084 88.3789 43.541 88.1758 43.8496 87.7852C44.3848 87.1094 44.2695 86.127 43.5938 85.5918L32.9473 77.1797L43.5078 69.9395C44.2188 69.4531 44.4004 68.4805 43.9121 67.7695ZM37.4863 28.5352H42.4648C43.3262 28.5352 44.0254 27.8359 44.0254 26.9746C44.0254 26.1113 43.3262 25.4121 42.4648 25.4121H37.4863C36.625 25.4121 35.9258 26.1113 35.9258 26.9746C35.9258 27.8359 36.625 28.5352 37.4863 28.5352ZM42.4648 45.6328H37.4863C36.625 45.6328 35.9258 46.3301 35.9258 47.1934C35.9258 48.0547 36.625 48.7539 37.4863 48.7539H42.4648C43.3262 48.7539 44.0254 48.0547 44.0254 47.1934C44.0254 46.3301 43.3262 45.6328 42.4648 45.6328ZM35.1016 5.39258C32.918 5.39258 31.1426 7.16797 31.1426 9.35156C31.1426 11.5312 32.918 13.3047 35.1016 13.3047C37.2832 13.3047 39.0586 11.5312 39.0586 9.35156C39.0586 7.16797 37.2832 5.39258 35.1016 5.39258ZM35.1016 10.1816C34.6484 10.1816 34.2656 9.80273 34.2656 9.35156C34.2656 8.89062 34.6406 8.51562 35.1016 8.51562C35.5625 8.51562 35.9375 8.89062 35.9375 9.35156C35.9375 9.80273 35.5547 10.1816 35.1016 10.1816ZM27.5723 38.6445H35.4336C36.2949 38.6445 36.9941 37.9453 36.9941 37.084C36.9941 36.2207 36.2949 35.5215 35.4336 35.5215H27.5723C26.709 35.5215 26.0098 36.2207 26.0098 37.084C26.0098 37.9453 26.709 38.6445 27.5723 38.6445ZM27.5723 28.5352H32.5547C33.416 28.5352 34.1152 27.8359 34.1152 26.9746C34.1152 26.1113 33.416 25.4121 32.5547 25.4121H27.5723C26.709 25.4121 26.0098 26.1113 26.0098 26.9746C26.0098 27.8359 26.709 28.5352 27.5723 28.5352ZM27.5723 48.7539H32.5547C33.416 48.7539 34.1152 48.0547 34.1152 47.1934C34.1152 46.3301 33.416 45.6328 32.5547 45.6328H27.5723C26.709 45.6328 26.0098 46.3301 26.0098 47.1934C26.0098 48.0547 26.709 48.7539 27.5723 48.7539ZM25.8223 5.39258C23.6387 5.39258 21.8633 7.16797 21.8633 9.35156C21.8633 11.5312 23.6387 13.3047 25.8223 13.3047C28.002 13.3047 29.7754 11.5312 29.7754 9.35156C29.7754 7.16797 28.002 5.39258 25.8223 5.39258ZM25.8223 10.1816C25.3613 10.1816 24.9863 9.81055 24.9863 9.35156C24.9863 8.89062 25.3613 8.51562 25.8223 8.51562C26.2793 8.51562 26.6523 8.89062 26.6523 9.35156C26.6523 9.81055 26.2793 10.1816 25.8223 10.1816ZM17.6621 28.5352H22.6387C23.5 28.5352 24.1992 27.8359 24.1992 26.9746C24.1992 26.1113 23.5 25.4121 22.6387 25.4121H17.6621C16.7988 25.4121 16.0996 26.1113 16.0996 26.9746C16.0996 27.8359 16.7988 28.5352 17.6621 28.5352ZM17.6621 38.6445H22.6387C23.5 38.6445 24.1992 37.9453 24.1992 37.084C24.1992 36.2207 23.5 35.5215 22.6387 35.5215H17.6621C16.7988 35.5215 16.0996 36.2207 16.0996 37.084C16.0996 37.9453 16.7988 38.6445 17.6621 38.6445ZM17.6621 48.7539H22.6387C23.5 48.7539 24.1992 48.0547 24.1992 47.1934C24.1992 46.3301 23.5 45.6328 22.6387 45.6328H17.6621C16.7988 45.6328 16.0996 46.3301 16.0996 47.1934C16.0996 48.0547 16.7988 48.7539 17.6621 48.7539ZM16.5371 5.39258C14.3535 5.39258 12.5781 7.16797 12.5781 9.35156C12.5781 11.5312 14.3535 13.3047 16.5371 13.3047C18.7207 13.3047 20.4961 11.5312 20.4961 9.35156C20.4961 7.16797 18.7207 5.39258 16.5371 5.39258ZM16.5371 10.1816C16.084 10.1816 15.7012 9.80273 15.7012 9.35156C15.7012 8.89062 16.0762 8.51562 16.5371 8.51562C16.998 8.51562 17.373 8.89062 17.373 9.35156C17.373 9.80273 16.9902 10.1816 16.5371 10.1816ZM16.5371 5.39258C14.3535 5.39258 12.5781 7.16797 12.5781 9.35156C12.5781 11.5312 14.3535 13.3047 16.5371 13.3047C18.7207 13.3047 20.4961 11.5312 20.4961 9.35156C20.4961 7.16797 18.7207 5.39258 16.5371 5.39258ZM16.5371 10.1816C16.084 10.1816 15.7012 9.80273 15.7012 9.35156C15.7012 8.89062 16.0762 8.51562 16.5371 8.51562C16.998 8.51562 17.373 8.89062 17.373 9.35156C17.373 9.80273 16.9902 10.1816 16.5371 10.1816ZM25.8223 5.39258C23.6387 5.39258 21.8633 7.16797 21.8633 9.35156C21.8633 11.5312 23.6387 13.3047 25.8223 13.3047C28.002 13.3047 29.7754 11.5312 29.7754 9.35156C29.7754 7.16797 28.002 5.39258 25.8223 5.39258ZM25.8223 10.1816C25.3613 10.1816 24.9863 9.81055 24.9863 9.35156C24.9863 8.89062 25.3613 8.51562 25.8223 8.51562C26.2793 8.51562 26.6523 8.89062 26.6523 9.35156C26.6523 9.81055 26.2793 10.1816 25.8223 10.1816ZM35.1016 5.39258C32.918 5.39258 31.1426 7.16797 31.1426 9.35156C31.1426 11.5312 32.918 13.3047 35.1016 13.3047C37.2832 13.3047 39.0586 11.5312 39.0586 9.35156C39.0586 7.16797 37.2832 5.39258 35.1016 5.39258ZM35.1016 10.1816C34.6484 10.1816 34.2656 9.80273 34.2656 9.35156C34.2656 8.89062 34.6406 8.51562 35.1016 8.51562C35.5625 8.51562 35.9375 8.89062 35.9375 9.35156C35.9375 9.80273 35.5547 10.1816 35.1016 10.1816ZM86.8008 7.79102H45.3828C44.5195 7.79102 43.8203 8.49023 43.8203 9.35156C43.8203 10.2148 44.5195 10.9121 45.3828 10.9121H86.8008C87.6621 10.9121 88.3613 10.2148 88.3613 9.35156C88.3613 8.49023 87.6621 7.79102 86.8008 7.79102ZM43.5938 85.5918L32.9473 77.1797L43.5078 69.9395C44.2188 69.4531 44.4004 68.4805 43.9121 67.7695C43.4258 67.0586 42.4531 66.877 41.7422 67.3652L29.4355 75.8027C29.2333 75.9405 29.0665 76.1242 28.9487 76.3387C28.8309 76.5532 28.7655 76.7925 28.7578 77.0371C28.7493 77.2815 28.7984 77.5245 28.9012 77.7464C29.004 77.9684 29.1576 78.1629 29.3496 78.3145L41.6562 88.043C41.9314 88.2607 42.2721 88.3791 42.623 88.3789C43.084 88.3789 43.541 88.1758 43.8496 87.7852C44.3848 87.1094 44.2695 86.127 43.5938 85.5918ZM56.9805 63.1309C56.7825 63.0774 56.5758 63.0635 56.3724 63.0901C56.1691 63.1166 55.9729 63.183 55.7953 63.2856C55.6176 63.3881 55.462 63.5247 55.3372 63.6875C55.2125 63.8503 55.1211 64.0362 55.0684 64.2344L48.0488 90.4316C47.8242 91.2656 48.3203 92.1211 49.1523 92.3438C49.2871 92.3809 49.4238 92.3984 49.5566 92.3984C50.2461 92.3984 50.877 91.9375 51.0645 91.2402L58.084 65.043C58.1375 64.845 58.1513 64.6383 58.1248 64.4349C58.0982 64.2316 58.0318 64.0354 57.9293 63.8578C57.8267 63.6801 57.6902 63.5245 57.5273 63.3997C57.3645 63.275 57.1787 63.1836 56.9805 63.1309ZM76.7031 75.8027L64.3906 67.3652C63.6797 66.877 62.707 67.0586 62.2207 67.7695C61.7324 68.4805 61.9141 69.4531 62.625 69.9395L73.1895 77.1797L62.541 85.5918C61.8633 86.127 61.748 87.1094 62.2832 87.7852C62.5918 88.1758 63.0488 88.3789 63.5098 88.3789C63.8477 88.3789 64.1895 88.2695 64.4766 88.043L76.7891 78.3145C77.1777 78.0078 77.3984 77.5332 77.3809 77.0371C77.3732 76.7925 77.3077 76.5532 77.19 76.3387C77.0722 76.1242 76.9054 75.9405 76.7031 75.8027ZM22.6387 45.6328H17.6621C16.7988 45.6328 16.0996 46.3301 16.0996 47.1934C16.0996 48.0547 16.7988 48.7539 17.6621 48.7539H22.6387C23.5 48.7539 24.1992 48.0547 24.1992 47.1934C24.1992 46.3301 23.5 45.6328 22.6387 45.6328ZM22.6387 35.5215H17.6621C16.7988 35.5215 16.0996 36.2207 16.0996 37.084C16.0996 37.9453 16.7988 38.6445 17.6621 38.6445H22.6387C23.5 38.6445 24.1992 37.9453 24.1992 37.084C24.1992 36.2207 23.5 35.5215 22.6387 35.5215ZM22.6387 25.4121H17.6621C16.7988 25.4121 16.0996 26.1113 16.0996 26.9746C16.0996 27.8359 16.7988 28.5352 17.6621 28.5352H22.6387C23.5 28.5352 24.1992 27.8359 24.1992 26.9746C24.1992 26.1113 23.5 25.4121 22.6387 25.4121ZM32.5547 45.6328H27.5723C26.709 45.6328 26.0098 46.3301 26.0098 47.1934C26.0098 48.0547 26.709 48.7539 27.5723 48.7539H32.5547C33.416 48.7539 34.1152 48.0547 34.1152 47.1934C34.1152 46.3301 33.416 45.6328 32.5547 45.6328ZM32.5547 25.4121H27.5723C26.709 25.4121 26.0098 26.1113 26.0098 26.9746C26.0098 27.8359 26.709 28.5352 27.5723 28.5352H32.5547C33.416 28.5352 34.1152 27.8359 34.1152 26.9746C34.1152 26.1113 33.416 25.4121 32.5547 25.4121ZM35.4336 35.5215H27.5723C26.709 35.5215 26.0098 36.2207 26.0098 37.084C26.0098 37.9453 26.709 38.6445 27.5723 38.6445H35.4336C36.2949 38.6445 36.9941 37.9453 36.9941 37.084C36.9941 36.2207 36.2949 35.5215 35.4336 35.5215ZM42.4648 45.6328H37.4863C36.625 45.6328 35.9258 46.3301 35.9258 47.1934C35.9258 48.0547 36.625 48.7539 37.4863 48.7539H42.4648C43.3262 48.7539 44.0254 48.0547 44.0254 47.1934C44.0254 46.3301 43.3262 45.6328 42.4648 45.6328ZM42.4648 25.4121H37.4863C36.625 25.4121 35.9258 26.1113 35.9258 26.9746C35.9258 27.8359 36.625 28.5352 37.4863 28.5352H42.4648C43.3262 28.5352 44.0254 27.8359 44.0254 26.9746C44.0254 26.1113 43.3262 25.4121 42.4648 25.4121ZM52.3809 45.6328H47.3965C46.5352 45.6328 45.8359 46.3301 45.8359 47.1934C45.8359 48.0547 46.5352 48.7539 47.3965 48.7539H52.3809C53.2422 48.7539 53.9414 48.0547 53.9414 47.1934C53.9414 46.3301 53.2422 45.6328 52.3809 45.6328ZM54.8223 35.5215H40.3652C39.5039 35.5215 38.8047 36.2207 38.8047 37.084C38.8047 37.9453 39.5039 38.6445 40.3652 38.6445H54.8223C55.6836 38.6445 56.3828 37.9453 56.3828 37.084C56.3828 36.2207 55.6836 35.5215 54.8223 35.5215ZM61.2168 25.4121H47.3965C46.5352 25.4121 45.8359 26.1113 45.8359 26.9746C45.8359 27.8359 46.5352 28.5352 47.3965 28.5352H61.2168C62.0781 28.5352 62.7773 27.8359 62.7773 26.9746C62.7773 26.1113 62.0781 25.4121 61.2168 25.4121ZM63.2637 35.5215H59.748C58.8867 35.5215 58.1875 36.2207 58.1875 37.084C58.1875 37.9453 58.8867 38.6445 59.748 38.6445H63.2637C64.1269 38.6445 64.8262 37.9453 64.8262 37.084C64.8262 36.2207 64.1269 35.5215 63.2637 35.5215ZM71.7637 35.5215H68.1973C67.3359 35.5215 66.6367 36.2207 66.6367 37.084C66.6367 37.9453 67.3359 38.6445 68.1973 38.6445H71.7637C72.625 38.6445 73.3242 37.9453 73.3242 37.084C73.3242 36.2207 72.625 35.5215 71.7637 35.5215ZM16.5371 5.39258C14.3535 5.39258 12.5781 7.16797 12.5781 9.35156C12.5781 11.5312 14.3535 13.3047 16.5371 13.3047C18.7207 13.3047 20.4961 11.5312 20.4961 9.35156C20.4961 7.16797 18.7207 5.39258 16.5371 5.39258ZM16.5371 10.1816C16.084 10.1816 15.7012 9.80273 15.7012 9.35156C15.7012 8.89062 16.0762 8.51562 16.5371 8.51562C16.998 8.51562 17.373 8.89062 17.373 9.35156C17.373 9.80273 16.9902 10.1816 16.5371 10.1816ZM25.8223 5.39258C23.6387 5.39258 21.8633 7.16797 21.8633 9.35156C21.8633 11.5312 23.6387 13.3047 25.8223 13.3047C28.002 13.3047 29.7754 11.5312 29.7754 9.35156C29.7754 7.16797 28.002 5.39258 25.8223 5.39258ZM25.8223 10.1816C25.3613 10.1816 24.9863 9.81055 24.9863 9.35156C24.9863 8.89062 25.3613 8.51562 25.8223 8.51562C26.2793 8.51562 26.6523 8.89062 26.6523 9.35156C26.6523 9.81055 26.2793 10.1816 25.8223 10.1816ZM35.1016 5.39258C32.918 5.39258 31.1426 7.16797 31.1426 9.35156C31.1426 11.5312 32.918 13.3047 35.1016 13.3047C37.2832 13.3047 39.0586 11.5312 39.0586 9.35156C39.0586 7.16797 37.2832 5.39258 35.1016 5.39258ZM35.1016 10.1816C34.6484 10.1816 34.2656 9.80273 34.2656 9.35156C34.2656 8.89062 34.6406 8.51562 35.1016 8.51562C35.5625 8.51562 35.9375 8.89062 35.9375 9.35156C35.9375 9.80273 35.5547 10.1816 35.1016 10.1816ZM86.8008 7.79102H45.3828C44.5195 7.79102 43.8203 8.49023 43.8203 9.35156C43.8203 10.2148 44.5195 10.9121 45.3828 10.9121H86.8008C87.6621 10.9121 88.3613 10.2148 88.3613 9.35156C88.3613 8.49023 87.6621 7.79102 86.8008 7.79102ZM22.6387 25.4121H17.6621C16.7988 25.4121 16.0996 26.1113 16.0996 26.9746C16.0996 27.8359 16.7988 28.5352 17.6621 28.5352H22.6387C23.5 28.5352 24.1992 27.8359 24.1992 26.9746C24.1992 26.1113 23.5 25.4121 22.6387 25.4121ZM32.5547 25.4121H27.5723C26.709 25.4121 26.0098 26.1113 26.0098 26.9746C26.0098 27.8359 26.709 28.5352 27.5723 28.5352H32.5547C33.416 28.5352 34.1152 27.8359 34.1152 26.9746C34.1152 26.1113 33.416 25.4121 32.5547 25.4121ZM42.4648 25.4121H37.4863C36.625 25.4121 35.9258 26.1113 35.9258 26.9746C35.9258 27.8359 36.625 28.5352 37.4863 28.5352H42.4648C43.3262 28.5352 44.0254 27.8359 44.0254 26.9746C44.0254 26.1113 43.3262 25.4121 42.4648 25.4121ZM61.2168 25.4121H47.3965C46.5352 25.4121 45.8359 26.1113 45.8359 26.9746C45.8359 27.8359 46.5352 28.5352 47.3965 28.5352H61.2168C62.0781 28.5352 62.7773 27.8359 62.7773 26.9746C62.7773 26.1113 62.0781 25.4121 61.2168 25.4121ZM22.6387 35.5215H17.6621C16.7988 35.5215 16.0996 36.2207 16.0996 37.084C16.0996 37.9453 16.7988 38.6445 17.6621 38.6445H22.6387C23.5 38.6445 24.1992 37.9453 24.1992 37.084C24.1992 36.2207 23.5 35.5215 22.6387 35.5215ZM35.4336 35.5215H27.5723C26.709 35.5215 26.0098 36.2207 26.0098 37.084C26.0098 37.9453 26.709 38.6445 27.5723 38.6445H35.4336C36.2949 38.6445 36.9941 37.9453 36.9941 37.084C36.9941 36.2207 36.2949 35.5215 35.4336 35.5215ZM22.6387 45.6328H17.6621C16.7988 45.6328 16.0996 46.3301 16.0996 47.1934C16.0996 48.0547 16.7988 48.7539 17.6621 48.7539H22.6387C23.5 48.7539 24.1992 48.0547 24.1992 47.1934C24.1992 46.3301 23.5 45.6328 22.6387 45.6328ZM32.5547 45.6328H27.5723C26.709 45.6328 26.0098 46.3301 26.0098 47.1934C26.0098 48.0547 26.709 48.7539 27.5723 48.7539H32.5547C33.416 48.7539 34.1152 48.0547 34.1152 47.1934C34.1152 46.3301 33.416 45.6328 32.5547 45.6328ZM42.4648 45.6328H37.4863C36.625 45.6328 35.9258 46.3301 35.9258 47.1934C35.9258 48.0547 36.625 48.7539 37.4863 48.7539H42.4648C43.3262 48.7539 44.0254 48.0547 44.0254 47.1934C44.0254 46.3301 43.3262 45.6328 42.4648 45.6328ZM54.8223 35.5215H40.3652C39.5039 35.5215 38.8047 36.2207 38.8047 37.084C38.8047 37.9453 39.5039 38.6445 40.3652 38.6445H54.8223C55.6836 38.6445 56.3828 37.9453 56.3828 37.084C56.3828 36.2207 55.6836 35.5215 54.8223 35.5215ZM52.3809 45.6328H47.3965C46.5352 45.6328 45.8359 46.3301 45.8359 47.1934C45.8359 48.0547 46.5352 48.7539 47.3965 48.7539H52.3809C53.2422 48.7539 53.9414 48.0547 53.9414 47.1934C53.9414 46.3301 53.2422 45.6328 52.3809 45.6328ZM63.2637 35.5215H59.748C58.8867 35.5215 58.1875 36.2207 58.1875 37.084C58.1875 37.9453 58.8867 38.6445 59.748 38.6445H63.2637C64.1269 38.6445 64.8262 37.9453 64.8262 37.084C64.8262 36.2207 64.1269 35.5215 63.2637 35.5215ZM71.7637 35.5215H68.1973C67.3359 35.5215 66.6367 36.2207 66.6367 37.084C66.6367 37.9453 67.3359 38.6445 68.1973 38.6445H71.7637C72.625 38.6445 73.3242 37.9453 73.3242 37.084C73.3242 36.2207 72.625 35.5215 71.7637 35.5215ZM56.9805 63.1309C56.7825 63.0774 56.5758 63.0635 56.3724 63.0901C56.1691 63.1166 55.9729 63.183 55.7953 63.2856C55.6176 63.3881 55.462 63.5247 55.3372 63.6875C55.2125 63.8503 55.1211 64.0362 55.0684 64.2344L48.0488 90.4316C47.8242 91.2656 48.3203 92.1211 49.1523 92.3438C49.2871 92.3809 49.4238 92.3984 49.5566 92.3984C50.2461 92.3984 50.877 91.9375 51.0645 91.2402L58.084 65.043C58.1375 64.845 58.1513 64.6383 58.1248 64.4349C58.0982 64.2316 58.0318 64.0354 57.9293 63.8578C57.8267 63.6801 57.6902 63.5245 57.5273 63.3997C57.3645 63.275 57.1787 63.1836 56.9805 63.1309ZM43.5938 85.5918L32.9473 77.1797L43.5078 69.9395C44.2188 69.4531 44.4004 68.4805 43.9121 67.7695C43.4258 67.0586 42.4531 66.877 41.7422 67.3652L29.4355 75.8027C29.2333 75.9405 29.0665 76.1242 28.9487 76.3387C28.8309 76.5532 28.7655 76.7925 28.7578 77.0371C28.7493 77.2815 28.7984 77.5245 28.9012 77.7464C29.004 77.9684 29.1576 78.1629 29.3496 78.3145L41.6562 88.043C41.9314 88.2607 42.2721 88.3791 42.623 88.3789C43.084 88.3789 43.541 88.1758 43.8496 87.7852C44.3848 87.1094 44.2695 86.127 43.5938 85.5918ZM76.7031 75.8027L64.3906 67.3652C63.6797 66.877 62.707 67.0586 62.2207 67.7695C61.7324 68.4805 61.9141 69.4531 62.625 69.9395L73.1895 77.1797L62.541 85.5918C61.8633 86.127 61.748 87.1094 62.2832 87.7852C62.5918 88.1758 63.0488 88.3789 63.5098 88.3789C63.8477 88.3789 64.1895 88.2695 64.4766 88.043L76.7891 78.3145C77.1777 78.0078 77.3984 77.5332 77.3809 77.0371C77.3732 76.7925 77.3077 76.5532 77.19 76.3387C77.0722 76.1242 76.9054 75.9405 76.7031 75.8027Z" fill="#ABA9AC"/>
<path d="M77.9297 58.5919H28.2031C26.1113 58.5919 24.4102 60.2931 24.4102 62.3849V93.0841C24.4102 95.1759 26.1113 96.8771 28.2031 96.8771H77.9297C80.0215 96.8771 81.7227 95.1759 81.7227 93.0841V62.3849C81.7227 60.2931 80.0215 58.5919 77.9297 58.5919ZM43.5938 85.5919C44.2695 86.1271 44.3848 87.1095 43.8496 87.7853C43.541 88.1759 43.084 88.379 42.6231 88.379C42.2852 88.379 41.9434 88.2696 41.6562 88.0431L29.3496 78.3146C28.9609 78.0079 28.7402 77.5333 28.7578 77.0372C28.7655 76.7926 28.8309 76.5533 28.9487 76.3388C29.0665 76.1243 29.2333 75.9406 29.4355 75.8028L41.7422 67.3654C42.4531 66.8771 43.4258 67.0587 43.9121 67.7697C44.4004 68.4806 44.2188 69.4532 43.5078 69.9396L32.9473 77.1798L43.5938 85.5919ZM58.084 65.0431L51.0645 91.2403C50.9753 91.5722 50.7793 91.8655 50.5067 92.0749C50.2342 92.2842 49.9003 92.398 49.5566 92.3986C49.4238 92.3986 49.2871 92.381 49.1523 92.3439C48.3203 92.1212 47.8242 91.2657 48.0488 90.4318L55.0684 64.2345C55.1211 64.0363 55.2125 63.8504 55.3372 63.6876C55.462 63.5248 55.6176 63.3882 55.7953 63.2857C55.9729 63.1832 56.1691 63.1167 56.3724 63.0902C56.5758 63.0636 56.7825 63.0775 56.9805 63.131C57.1787 63.1837 57.3645 63.2751 57.5273 63.3998C57.6902 63.5246 57.8268 63.6802 57.9293 63.8579C58.0318 64.0355 58.0982 64.2317 58.1248 64.4351C58.1513 64.6385 58.1375 64.8451 58.084 65.0431ZM76.7891 78.3146L64.4766 88.0431C64.2014 88.2608 63.8607 88.3792 63.5098 88.379C63.0488 88.379 62.5918 88.1759 62.2832 87.7853C61.7481 87.1095 61.8633 86.1271 62.541 85.5919L73.1895 77.1798L62.625 69.9396C61.9141 69.4532 61.7324 68.4806 62.2207 67.7697C62.707 67.0587 63.6797 66.8771 64.3906 67.3654L76.7031 75.8028C76.9054 75.9406 77.0722 76.1243 77.19 76.3388C77.3078 76.5533 77.3732 76.7926 77.3809 77.0372C77.3894 77.2816 77.3403 77.5247 77.2375 77.7466C77.1347 77.9685 76.9811 78.1631 76.7891 78.3146ZM89.9883 3.12317H10.957C8.29102 3.12317 6.12305 5.29309 6.12305 7.96301V15.5743H94.8223V7.96301C94.8223 5.29309 92.6543 3.12317 89.9883 3.12317ZM16.5371 13.3048C14.3535 13.3048 12.5781 11.5314 12.5781 9.35168C12.5781 7.16809 14.3535 5.3927 16.5371 5.3927C18.7207 5.3927 20.4961 7.16809 20.4961 9.35168C20.4961 11.5314 18.7207 13.3048 16.5371 13.3048ZM25.8223 13.3048C23.6387 13.3048 21.8633 11.5314 21.8633 9.35168C21.8633 7.16809 23.6387 5.3927 25.8223 5.3927C28.002 5.3927 29.7754 7.16809 29.7754 9.35168C29.7754 11.5314 28.002 13.3048 25.8223 13.3048ZM35.1016 13.3048C32.918 13.3048 31.1426 11.5314 31.1426 9.35168C31.1426 7.16809 32.918 5.3927 35.1016 5.3927C37.2832 5.3927 39.0586 7.16809 39.0586 9.35168C39.0586 11.5314 37.2832 13.3048 35.1016 13.3048ZM86.8008 10.9122H45.3828C44.5195 10.9122 43.8203 10.215 43.8203 9.35168C43.8203 8.49036 44.5195 7.79114 45.3828 7.79114H86.8008C87.6621 7.79114 88.3613 8.49036 88.3613 9.35168C88.3613 10.215 87.6621 10.9122 86.8008 10.9122Z" fill="url(#paint0_linear_145_511)"/>
<defs>
<linearGradient id="paint0_linear_145_511" x1="6.14475" y1="50.0411" x2="111.554" y2="50.0411" gradientUnits="userSpaceOnUse">
<stop stop-color="#3D81DF"/>
<stop offset="0.685" stop-color="#834AD8"/>
<stop offset="0.85" stop-color="#BB41E1"/>
</linearGradient>
</defs>
</svg>
