<svg width="102" height="100" viewBox="0 0 102 100" fill="none" xmlns="http://www.w3.org/2000/svg">
<path d="M29.4359 74.2124H7.69793C6.82636 74.2124 6.11882 74.92 6.11882 75.7935C6.11882 76.6651 6.82636 77.3726 7.69793 77.3726H29.4359C30.3075 77.3726 31.0151 76.6651 31.0151 75.7935C31.0151 74.92 30.3075 74.2124 29.4359 74.2124ZM29.4359 67.4967H7.69793C6.82636 67.4967 6.11882 68.2023 6.11882 69.0759C6.11882 69.9494 6.82636 70.655 7.69793 70.655H29.4359C30.3075 70.655 31.0151 69.9494 31.0151 69.0759C31.0151 68.2023 30.3075 67.4967 29.4359 67.4967ZM29.4359 43.563H7.69793C6.82636 43.563 6.11882 44.2705 6.11882 45.1421C6.11882 46.0157 6.82636 46.7232 7.69793 46.7232H29.4359C30.3075 46.7232 31.0151 46.0157 31.0151 45.1421C31.0151 44.2705 30.3075 43.563 29.4359 43.563ZM29.4359 36.8394H7.69793C6.82636 36.8394 6.11882 37.5469 6.11882 38.4205C6.11882 39.2921 6.82636 39.9996 7.69793 39.9996H29.4359C30.3075 39.9996 31.0151 39.2921 31.0151 38.4205C31.0151 37.5469 30.3075 36.8394 29.4359 36.8394ZM93.4918 74.2124H71.7538C70.8822 74.2124 70.1747 74.92 70.1747 75.7935C70.1747 76.6651 70.8822 77.3726 71.7538 77.3726H93.4918C94.3634 77.3726 95.071 76.6651 95.071 75.7935C95.071 74.92 94.3634 74.2124 93.4918 74.2124ZM93.4918 67.4967H71.7538C70.8822 67.4967 70.1747 68.2023 70.1747 69.0759C70.1747 69.9494 70.8822 70.655 71.7538 70.655H93.4918C94.3634 70.655 95.071 69.9494 95.071 69.0759C95.071 68.2023 94.3634 67.4967 93.4918 67.4967ZM93.4918 43.563H71.7538C70.8822 43.563 70.1747 44.2705 70.1747 45.1421C70.1747 46.0157 70.8822 46.7232 71.7538 46.7232H93.4918C94.3634 46.7232 95.071 46.0157 95.071 45.1421C95.071 44.2705 94.3634 43.563 93.4918 43.563ZM93.4918 36.8394H71.7538C70.8822 36.8394 70.1747 37.5469 70.1747 38.4205C70.1747 39.2921 70.8822 39.9996 71.7538 39.9996H93.4918C94.3634 39.9996 95.071 39.2921 95.071 38.4205C95.071 37.5469 94.3634 36.8394 93.4918 36.8394ZM93.4918 36.8394H71.7538C70.8822 36.8394 70.1747 37.5469 70.1747 38.4205C70.1747 39.2921 70.8822 39.9996 71.7538 39.9996H93.4918C94.3634 39.9996 95.071 39.2921 95.071 38.4205C95.071 37.5469 94.3634 36.8394 93.4918 36.8394ZM93.4918 43.563H71.7538C70.8822 43.563 70.1747 44.2705 70.1747 45.1421C70.1747 46.0157 70.8822 46.7232 71.7538 46.7232H93.4918C94.3634 46.7232 95.071 46.0157 95.071 45.1421C95.071 44.2705 94.3634 43.563 93.4918 43.563ZM93.4918 67.4967H71.7538C70.8822 67.4967 70.1747 68.2023 70.1747 69.0759C70.1747 69.9494 70.8822 70.655 71.7538 70.655H93.4918C94.3634 70.655 95.071 69.9494 95.071 69.0759C95.071 68.2023 94.3634 67.4967 93.4918 67.4967ZM93.4918 74.2124H71.7538C70.8822 74.2124 70.1747 74.92 70.1747 75.7935C70.1747 76.6651 70.8822 77.3726 71.7538 77.3726H93.4918C94.3634 77.3726 95.071 76.6651 95.071 75.7935C95.071 74.92 94.3634 74.2124 93.4918 74.2124ZM29.4359 67.4967H7.69793C6.82636 67.4967 6.11882 68.2023 6.11882 69.0759C6.11882 69.9494 6.82636 70.655 7.69793 70.655H29.4359C30.3075 70.655 31.0151 69.9494 31.0151 69.0759C31.0151 68.2023 30.3075 67.4967 29.4359 67.4967ZM29.4359 74.2124H7.69793C6.82636 74.2124 6.11882 74.92 6.11882 75.7935C6.11882 76.6651 6.82636 77.3726 7.69793 77.3726H29.4359C30.3075 77.3726 31.0151 76.6651 31.0151 75.7935C31.0151 74.92 30.3075 74.2124 29.4359 74.2124ZM29.4359 36.8394H7.69793C6.82636 36.8394 6.11882 37.5469 6.11882 38.4205C6.11882 39.2921 6.82636 39.9996 7.69793 39.9996H29.4359C30.3075 39.9996 31.0151 39.2921 31.0151 38.4205C31.0151 37.5469 30.3075 36.8394 29.4359 36.8394ZM29.4359 43.563H7.69793C6.82636 43.563 6.11882 44.2705 6.11882 45.1421C6.11882 46.0157 6.82636 46.7232 7.69793 46.7232H29.4359C30.3075 46.7232 31.0151 46.0157 31.0151 45.1421C31.0151 44.2705 30.3075 43.563 29.4359 43.563ZM29.4359 74.2124H7.69793C6.82636 74.2124 6.11882 74.92 6.11882 75.7935C6.11882 76.6651 6.82636 77.3726 7.69793 77.3726H29.4359C30.3075 77.3726 31.0151 76.6651 31.0151 75.7935C31.0151 74.92 30.3075 74.2124 29.4359 74.2124ZM29.4359 67.4967H7.69793C6.82636 67.4967 6.11882 68.2023 6.11882 69.0759C6.11882 69.9494 6.82636 70.655 7.69793 70.655H29.4359C30.3075 70.655 31.0151 69.9494 31.0151 69.0759C31.0151 68.2023 30.3075 67.4967 29.4359 67.4967ZM29.4359 43.563H7.69793C6.82636 43.563 6.11882 44.2705 6.11882 45.1421C6.11882 46.0157 6.82636 46.7232 7.69793 46.7232H29.4359C30.3075 46.7232 31.0151 46.0157 31.0151 45.1421C31.0151 44.2705 30.3075 43.563 29.4359 43.563ZM29.4359 36.8394H7.69793C6.82636 36.8394 6.11882 37.5469 6.11882 38.4205C6.11882 39.2921 6.82636 39.9996 7.69793 39.9996H29.4359C30.3075 39.9996 31.0151 39.2921 31.0151 38.4205C31.0151 37.5469 30.3075 36.8394 29.4359 36.8394ZM93.4918 74.2124H71.7538C70.8822 74.2124 70.1747 74.92 70.1747 75.7935C70.1747 76.6651 70.8822 77.3726 71.7538 77.3726H93.4918C94.3634 77.3726 95.071 76.6651 95.071 75.7935C95.071 74.92 94.3634 74.2124 93.4918 74.2124ZM93.4918 67.4967H71.7538C70.8822 67.4967 70.1747 68.2023 70.1747 69.0759C70.1747 69.9494 70.8822 70.655 71.7538 70.655H93.4918C94.3634 70.655 95.071 69.9494 95.071 69.0759C95.071 68.2023 94.3634 67.4967 93.4918 67.4967ZM93.4918 43.563H71.7538C70.8822 43.563 70.1747 44.2705 70.1747 45.1421C70.1747 46.0157 70.8822 46.7232 71.7538 46.7232H93.4918C94.3634 46.7232 95.071 46.0157 95.071 45.1421C95.071 44.2705 94.3634 43.563 93.4918 43.563ZM93.4918 36.8394H71.7538C70.8822 36.8394 70.1747 37.5469 70.1747 38.4205C70.1747 39.2921 70.8822 39.9996 71.7538 39.9996H93.4918C94.3634 39.9996 95.071 39.2921 95.071 38.4205C95.071 37.5469 94.3634 36.8394 93.4918 36.8394ZM93.4918 36.8394H71.7538C70.8822 36.8394 70.1747 37.5469 70.1747 38.4205C70.1747 39.2921 70.8822 39.9996 71.7538 39.9996H93.4918C94.3634 39.9996 95.071 39.2921 95.071 38.4205C95.071 37.5469 94.3634 36.8394 93.4918 36.8394ZM93.4918 43.563H71.7538C70.8822 43.563 70.1747 44.2705 70.1747 45.1421C70.1747 46.0157 70.8822 46.7232 71.7538 46.7232H93.4918C94.3634 46.7232 95.071 46.0157 95.071 45.1421C95.071 44.2705 94.3634 43.563 93.4918 43.563ZM93.4918 67.4967H71.7538C70.8822 67.4967 70.1747 68.2023 70.1747 69.0759C70.1747 69.9494 70.8822 70.655 71.7538 70.655H93.4918C94.3634 70.655 95.071 69.9494 95.071 69.0759C95.071 68.2023 94.3634 67.4967 93.4918 67.4967ZM93.4918 74.2124H71.7538C70.8822 74.2124 70.1747 74.92 70.1747 75.7935C70.1747 76.6651 70.8822 77.3726 71.7538 77.3726H93.4918C94.3634 77.3726 95.071 76.6651 95.071 75.7935C95.071 74.92 94.3634 74.2124 93.4918 74.2124ZM29.4359 67.4967H7.69793C6.82636 67.4967 6.11882 68.2023 6.11882 69.0759C6.11882 69.9494 6.82636 70.655 7.69793 70.655H29.4359C30.3075 70.655 31.0151 69.9494 31.0151 69.0759C31.0151 68.2023 30.3075 67.4967 29.4359 67.4967ZM29.4359 74.2124H7.69793C6.82636 74.2124 6.11882 74.92 6.11882 75.7935C6.11882 76.6651 6.82636 77.3726 7.69793 77.3726H29.4359C30.3075 77.3726 31.0151 76.6651 31.0151 75.7935C31.0151 74.92 30.3075 74.2124 29.4359 74.2124ZM29.4359 36.8394H7.69793C6.82636 36.8394 6.11882 37.5469 6.11882 38.4205C6.11882 39.2921 6.82636 39.9996 7.69793 39.9996H29.4359C30.3075 39.9996 31.0151 39.2921 31.0151 38.4205C31.0151 37.5469 30.3075 36.8394 29.4359 36.8394ZM29.4359 43.563H7.69793C6.82636 43.563 6.11882 44.2705 6.11882 45.1421C6.11882 46.0157 6.82636 46.7232 7.69793 46.7232H29.4359C30.3075 46.7232 31.0151 46.0157 31.0151 45.1421C31.0151 44.2705 30.3075 43.563 29.4359 43.563ZM29.4359 74.2124H7.69793C6.82636 74.2124 6.11882 74.92 6.11882 75.7935C6.11882 76.6651 6.82636 77.3726 7.69793 77.3726H29.4359C30.3075 77.3726 31.0151 76.6651 31.0151 75.7935C31.0151 74.92 30.3075 74.2124 29.4359 74.2124ZM29.4359 67.4967H7.69793C6.82636 67.4967 6.11882 68.2023 6.11882 69.0759C6.11882 69.9494 6.82636 70.655 7.69793 70.655H29.4359C30.3075 70.655 31.0151 69.9494 31.0151 69.0759C31.0151 68.2023 30.3075 67.4967 29.4359 67.4967ZM29.4359 43.563H7.69793C6.82636 43.563 6.11882 44.2705 6.11882 45.1421C6.11882 46.0157 6.82636 46.7232 7.69793 46.7232H29.4359C30.3075 46.7232 31.0151 46.0157 31.0151 45.1421C31.0151 44.2705 30.3075 43.563 29.4359 43.563ZM29.4359 36.8394H7.69793C6.82636 36.8394 6.11882 37.5469 6.11882 38.4205C6.11882 39.2921 6.82636 39.9996 7.69793 39.9996H29.4359C30.3075 39.9996 31.0151 39.2921 31.0151 38.4205C31.0151 37.5469 30.3075 36.8394 29.4359 36.8394ZM93.4918 74.2124H71.7538C70.8822 74.2124 70.1747 74.92 70.1747 75.7935C70.1747 76.6651 70.8822 77.3726 71.7538 77.3726H93.4918C94.3634 77.3726 95.071 76.6651 95.071 75.7935C95.071 74.92 94.3634 74.2124 93.4918 74.2124ZM93.4918 67.4967H71.7538C70.8822 67.4967 70.1747 68.2023 70.1747 69.0759C70.1747 69.9494 70.8822 70.655 71.7538 70.655H93.4918C94.3634 70.655 95.071 69.9494 95.071 69.0759C95.071 68.2023 94.3634 67.4967 93.4918 67.4967ZM93.4918 43.563H71.7538C70.8822 43.563 70.1747 44.2705 70.1747 45.1421C70.1747 46.0157 70.8822 46.7232 71.7538 46.7232H93.4918C94.3634 46.7232 95.071 46.0157 95.071 45.1421C95.071 44.2705 94.3634 43.563 93.4918 43.563ZM93.4918 36.8394H71.7538C70.8822 36.8394 70.1747 37.5469 70.1747 38.4205C70.1747 39.2921 70.8822 39.9996 71.7538 39.9996H93.4918C94.3634 39.9996 95.071 39.2921 95.071 38.4205C95.071 37.5469 94.3634 36.8394 93.4918 36.8394ZM93.4918 36.8394H71.7538C70.8822 36.8394 70.1747 37.5469 70.1747 38.4205C70.1747 39.2921 70.8822 39.9996 71.7538 39.9996H93.4918C94.3634 39.9996 95.071 39.2921 95.071 38.4205C95.071 37.5469 94.3634 36.8394 93.4918 36.8394ZM93.4918 43.563H71.7538C70.8822 43.563 70.1747 44.2705 70.1747 45.1421C70.1747 46.0157 70.8822 46.7232 71.7538 46.7232H93.4918C94.3634 46.7232 95.071 46.0157 95.071 45.1421C95.071 44.2705 94.3634 43.563 93.4918 43.563ZM93.4918 67.4967H71.7538C70.8822 67.4967 70.1747 68.2023 70.1747 69.0759C70.1747 69.9494 70.8822 70.655 71.7538 70.655H93.4918C94.3634 70.655 95.071 69.9494 95.071 69.0759C95.071 68.2023 94.3634 67.4967 93.4918 67.4967ZM93.4918 74.2124H71.7538C70.8822 74.2124 70.1747 74.92 70.1747 75.7935C70.1747 76.6651 70.8822 77.3726 71.7538 77.3726H93.4918C94.3634 77.3726 95.071 76.6651 95.071 75.7935C95.071 74.92 94.3634 74.2124 93.4918 74.2124ZM29.4359 67.4967H7.69793C6.82636 67.4967 6.11882 68.2023 6.11882 69.0759C6.11882 69.9494 6.82636 70.655 7.69793 70.655H29.4359C30.3075 70.655 31.0151 69.9494 31.0151 69.0759C31.0151 68.2023 30.3075 67.4967 29.4359 67.4967ZM29.4359 74.2124H7.69793C6.82636 74.2124 6.11882 74.92 6.11882 75.7935C6.11882 76.6651 6.82636 77.3726 7.69793 77.3726H29.4359C30.3075 77.3726 31.0151 76.6651 31.0151 75.7935C31.0151 74.92 30.3075 74.2124 29.4359 74.2124ZM29.4359 36.8394H7.69793C6.82636 36.8394 6.11882 37.5469 6.11882 38.4205C6.11882 39.2921 6.82636 39.9996 7.69793 39.9996H29.4359C30.3075 39.9996 31.0151 39.2921 31.0151 38.4205C31.0151 37.5469 30.3075 36.8394 29.4359 36.8394ZM29.4359 43.563H7.69793C6.82636 43.563 6.11882 44.2705 6.11882 45.1421C6.11882 46.0157 6.82636 46.7232 7.69793 46.7232H29.4359C30.3075 46.7232 31.0151 46.0157 31.0151 45.1421C31.0151 44.2705 30.3075 43.563 29.4359 43.563ZM29.4359 74.2124H7.69793C6.82636 74.2124 6.11882 74.92 6.11882 75.7935C6.11882 76.6651 6.82636 77.3726 7.69793 77.3726H29.4359C30.3075 77.3726 31.0151 76.6651 31.0151 75.7935C31.0151 74.92 30.3075 74.2124 29.4359 74.2124ZM29.4359 67.4967H7.69793C6.82636 67.4967 6.11882 68.2023 6.11882 69.0759C6.11882 69.9494 6.82636 70.655 7.69793 70.655H29.4359C30.3075 70.655 31.0151 69.9494 31.0151 69.0759C31.0151 68.2023 30.3075 67.4967 29.4359 67.4967ZM29.4359 43.563H7.69793C6.82636 43.563 6.11882 44.2705 6.11882 45.1421C6.11882 46.0157 6.82636 46.7232 7.69793 46.7232H29.4359C30.3075 46.7232 31.0151 46.0157 31.0151 45.1421C31.0151 44.2705 30.3075 43.563 29.4359 43.563ZM29.4359 36.8394H7.69793C6.82636 36.8394 6.11882 37.5469 6.11882 38.4205C6.11882 39.2921 6.82636 39.9996 7.69793 39.9996H29.4359C30.3075 39.9996 31.0151 39.2921 31.0151 38.4205C31.0151 37.5469 30.3075 36.8394 29.4359 36.8394ZM93.4918 74.2124H71.7538C70.8822 74.2124 70.1747 74.92 70.1747 75.7935C70.1747 76.6651 70.8822 77.3726 71.7538 77.3726H93.4918C94.3634 77.3726 95.071 76.6651 95.071 75.7935C95.071 74.92 94.3634 74.2124 93.4918 74.2124ZM93.4918 67.4967H71.7538C70.8822 67.4967 70.1747 68.2023 70.1747 69.0759C70.1747 69.9494 70.8822 70.655 71.7538 70.655H93.4918C94.3634 70.655 95.071 69.9494 95.071 69.0759C95.071 68.2023 94.3634 67.4967 93.4918 67.4967ZM93.4918 43.563H71.7538C70.8822 43.563 70.1747 44.2705 70.1747 45.1421C70.1747 46.0157 70.8822 46.7232 71.7538 46.7232H93.4918C94.3634 46.7232 95.071 46.0157 95.071 45.1421C95.071 44.2705 94.3634 43.563 93.4918 43.563ZM93.4918 36.8394H71.7538C70.8822 36.8394 70.1747 37.5469 70.1747 38.4205C70.1747 39.2921 70.8822 39.9996 71.7538 39.9996H93.4918C94.3634 39.9996 95.071 39.2921 95.071 38.4205C95.071 37.5469 94.3634 36.8394 93.4918 36.8394ZM93.4918 36.8394H71.7538C70.8822 36.8394 70.1747 37.5469 70.1747 38.4205C70.1747 39.2921 70.8822 39.9996 71.7538 39.9996H93.4918C94.3634 39.9996 95.071 39.2921 95.071 38.4205C95.071 37.5469 94.3634 36.8394 93.4918 36.8394ZM93.4918 43.563H71.7538C70.8822 43.563 70.1747 44.2705 70.1747 45.1421C70.1747 46.0157 70.8822 46.7232 71.7538 46.7232H93.4918C94.3634 46.7232 95.071 46.0157 95.071 45.1421C95.071 44.2705 94.3634 43.563 93.4918 43.563ZM93.4918 67.4967H71.7538C70.8822 67.4967 70.1747 68.2023 70.1747 69.0759C70.1747 69.9494 70.8822 70.655 71.7538 70.655H93.4918C94.3634 70.655 95.071 69.9494 95.071 69.0759C95.071 68.2023 94.3634 67.4967 93.4918 67.4967ZM93.4918 74.2124H71.7538C70.8822 74.2124 70.1747 74.92 70.1747 75.7935C70.1747 76.6651 70.8822 77.3726 71.7538 77.3726H93.4918C94.3634 77.3726 95.071 76.6651 95.071 75.7935C95.071 74.92 94.3634 74.2124 93.4918 74.2124ZM29.4359 67.4967H7.69793C6.82636 67.4967 6.11882 68.2023 6.11882 69.0759C6.11882 69.9494 6.82636 70.655 7.69793 70.655H29.4359C30.3075 70.655 31.0151 69.9494 31.0151 69.0759C31.0151 68.2023 30.3075 67.4967 29.4359 67.4967ZM29.4359 74.2124H7.69793C6.82636 74.2124 6.11882 74.92 6.11882 75.7935C6.11882 76.6651 6.82636 77.3726 7.69793 77.3726H29.4359C30.3075 77.3726 31.0151 76.6651 31.0151 75.7935C31.0151 74.92 30.3075 74.2124 29.4359 74.2124ZM29.4359 36.8394H7.69793C6.82636 36.8394 6.11882 37.5469 6.11882 38.4205C6.11882 39.2921 6.82636 39.9996 7.69793 39.9996H29.4359C30.3075 39.9996 31.0151 39.2921 31.0151 38.4205C31.0151 37.5469 30.3075 36.8394 29.4359 36.8394ZM29.4359 43.563H7.69793C6.82636 43.563 6.11882 44.2705 6.11882 45.1421C6.11882 46.0157 6.82636 46.7232 7.69793 46.7232H29.4359C30.3075 46.7232 31.0151 46.0157 31.0151 45.1421C31.0151 44.2705 30.3075 43.563 29.4359 43.563ZM29.4359 74.2124H7.69793C6.82636 74.2124 6.11882 74.92 6.11882 75.7935C6.11882 76.6651 6.82636 77.3726 7.69793 77.3726H29.4359C30.3075 77.3726 31.0151 76.6651 31.0151 75.7935C31.0151 74.92 30.3075 74.2124 29.4359 74.2124ZM29.4359 67.4967H7.69793C6.82636 67.4967 6.11882 68.2023 6.11882 69.0759C6.11882 69.9494 6.82636 70.655 7.69793 70.655H29.4359C30.3075 70.655 31.0151 69.9494 31.0151 69.0759C31.0151 68.2023 30.3075 67.4967 29.4359 67.4967ZM29.4359 43.563H7.69793C6.82636 43.563 6.11882 44.2705 6.11882 45.1421C6.11882 46.0157 6.82636 46.7232 7.69793 46.7232H29.4359C30.3075 46.7232 31.0151 46.0157 31.0151 45.1421C31.0151 44.2705 30.3075 43.563 29.4359 43.563ZM29.4359 36.8394H7.69793C6.82636 36.8394 6.11882 37.5469 6.11882 38.4205C6.11882 39.2921 6.82636 39.9996 7.69793 39.9996H29.4359C30.3075 39.9996 31.0151 39.2921 31.0151 38.4205C31.0151 37.5469 30.3075 36.8394 29.4359 36.8394ZM93.4918 74.2124H71.7538C70.8822 74.2124 70.1747 74.92 70.1747 75.7935C70.1747 76.6651 70.8822 77.3726 71.7538 77.3726H93.4918C94.3634 77.3726 95.071 76.6651 95.071 75.7935C95.071 74.92 94.3634 74.2124 93.4918 74.2124ZM93.4918 67.4967H71.7538C70.8822 67.4967 70.1747 68.2023 70.1747 69.0759C70.1747 69.9494 70.8822 70.655 71.7538 70.655H93.4918C94.3634 70.655 95.071 69.9494 95.071 69.0759C95.071 68.2023 94.3634 67.4967 93.4918 67.4967ZM93.4918 43.563H71.7538C70.8822 43.563 70.1747 44.2705 70.1747 45.1421C70.1747 46.0157 70.8822 46.7232 71.7538 46.7232H93.4918C94.3634 46.7232 95.071 46.0157 95.071 45.1421C95.071 44.2705 94.3634 43.563 93.4918 43.563ZM93.4918 36.8394H71.7538C70.8822 36.8394 70.1747 37.5469 70.1747 38.4205C70.1747 39.2921 70.8822 39.9996 71.7538 39.9996H93.4918C94.3634 39.9996 95.071 39.2921 95.071 38.4205C95.071 37.5469 94.3634 36.8394 93.4918 36.8394ZM71.7538 39.9996H93.4918C94.3634 39.9996 95.071 39.2921 95.071 38.4205C95.071 37.5469 94.3634 36.8394 93.4918 36.8394H71.7538C70.8822 36.8394 70.1747 37.5469 70.1747 38.4205C70.1747 39.2921 70.8822 39.9996 71.7538 39.9996ZM93.4918 43.563H71.7538C70.8822 43.563 70.1747 44.2705 70.1747 45.1421C70.1747 46.0157 70.8822 46.7232 71.7538 46.7232H93.4918C94.3634 46.7232 95.071 46.0157 95.071 45.1421C95.071 44.2705 94.3634 43.563 93.4918 43.563ZM71.7538 70.655H93.4918C94.3634 70.655 95.071 69.9494 95.071 69.0759C95.071 68.2023 94.3634 67.4967 93.4918 67.4967H71.7538C70.8822 67.4967 70.1747 68.2023 70.1747 69.0759C70.1747 69.9494 70.8822 70.655 71.7538 70.655ZM93.4918 74.2124H71.7538C70.8822 74.2124 70.1747 74.92 70.1747 75.7935C70.1747 76.6651 70.8822 77.3726 71.7538 77.3726H93.4918C94.3634 77.3726 95.071 76.6651 95.071 75.7935C95.071 74.92 94.3634 74.2124 93.4918 74.2124ZM7.69793 70.655H29.4359C30.3075 70.655 31.0151 69.9494 31.0151 69.0759C31.0151 68.2023 30.3075 67.4967 29.4359 67.4967H7.69793C6.82636 67.4967 6.11882 68.2023 6.11882 69.0759C6.11882 69.9494 6.82636 70.655 7.69793 70.655ZM29.4359 74.2124H7.69793C6.82636 74.2124 6.11882 74.92 6.11882 75.7935C6.11882 76.6651 6.82636 77.3726 7.69793 77.3726H29.4359C30.3075 77.3726 31.0151 76.6651 31.0151 75.7935C31.0151 74.92 30.3075 74.2124 29.4359 74.2124ZM7.69793 39.9996H29.4359C30.3075 39.9996 31.0151 39.2921 31.0151 38.4205C31.0151 37.5469 30.3075 36.8394 29.4359 36.8394H7.69793C6.82636 36.8394 6.11882 37.5469 6.11882 38.4205C6.11882 39.2921 6.82636 39.9996 7.69793 39.9996ZM29.4359 43.563H7.69793C6.82636 43.563 6.11882 44.2705 6.11882 45.1421C6.11882 46.0157 6.82636 46.7232 7.69793 46.7232H29.4359C30.3075 46.7232 31.0151 46.0157 31.0151 45.1421C31.0151 44.2705 30.3075 43.563 29.4359 43.563ZM98.5454 53.1266C100.004 53.1266 101.19 51.9408 101.19 50.4822V33.0804C101.19 31.6258 100.004 30.4419 98.5454 30.4419H82.7918V16.9631C82.7918 13.6369 80.0822 10.9293 76.7521 10.9293H67.2418C66.3485 9.37982 64.7239 8.34223 62.8701 8.34223H59.8937C59.1723 3.61872 55.2769 0 50.5949 0C45.9129 0 42.0175 3.61872 41.2961 8.34223H38.3197C36.4659 8.34223 34.8413 9.37982 33.948 10.9293H24.4377C21.1076 10.9293 18.398 13.6369 18.398 16.9631V30.4419H2.64437C1.18582 30.4419 0 31.6258 0 33.0804V50.4822C0 51.9408 1.18582 53.1266 2.64437 53.1266H18.398V61.0933H2.64437C1.18582 61.0933 0 62.2791 0 63.7377V81.1317C0 82.5902 1.18582 83.776 2.64437 83.776H18.398V93.9622C18.398 97.2904 21.1076 100 24.4377 100H76.7521C80.0822 100 82.7918 97.2904 82.7918 93.9622V83.776H98.5454C100.004 83.776 101.19 82.5902 101.19 81.1317V63.7377C101.19 62.2791 100.004 61.0933 98.5454 61.0933H82.7918V53.1266H98.5454ZM67.9671 14.0895H76.7521C78.3391 14.0895 79.6316 15.3781 79.6316 16.9631V30.4419H77.1335V18.56C77.1335 17.6865 76.4259 16.9809 75.5524 16.9809H67.9671V14.0895ZM36.3809 13.6646C36.3809 13.4393 36.4125 13.2238 36.4698 13.0223C36.4757 13.0005 36.4837 12.9788 36.4896 12.957C36.7544 12.1112 37.4738 11.5005 38.3197 11.5005H42.7566C43.6302 11.5005 44.3377 10.7929 44.3377 9.92134C44.3377 6.19194 47.1442 3.1602 50.5949 3.1602C54.0456 3.1602 56.8521 6.19194 56.8521 9.92134C56.8521 10.7929 57.5596 11.5005 58.4331 11.5005H62.8701C63.7179 11.5005 64.4373 12.1131 64.7002 12.959C64.7061 12.9788 64.712 12.9985 64.718 13.0163C64.7773 13.2219 64.8069 13.4373 64.8069 13.6646V18.1055C64.8069 18.2043 64.799 18.3031 64.7871 18.398C64.7219 18.9256 64.4887 19.394 64.1468 19.7281C63.8069 20.064 63.3582 20.2676 62.8701 20.2676H38.3197C37.2702 20.2676 36.3809 19.2774 36.3809 18.1055V13.6646ZM38.3197 23.4278H62.8701C64.9907 23.4278 66.8129 22.0681 67.5798 20.1391H73.9733V30.4419H66.7022C65.2437 30.4419 64.0579 31.6258 64.0579 33.0804V35.5429L57.2197 39.4917C56.3896 39.968 55.8955 40.8237 55.8955 41.7823C55.8955 42.7467 56.3916 43.6025 57.2236 44.0729L64.0579 48.0197V50.4822C64.0579 51.9408 65.2437 53.1266 66.7022 53.1266H73.9733V61.0933H66.7022C65.2437 61.0933 64.0579 62.2791 64.0579 63.7377V66.1923L57.2197 70.1431C56.3896 70.6194 55.8955 71.4771 55.8955 72.4376C55.8955 73.3942 56.3896 74.25 57.2157 74.7243L64.0579 78.677V81.1317C64.0579 82.5902 65.2437 83.776 66.7022 83.776H73.9733V90.7902H27.2224V83.776H34.4935C35.9481 83.776 37.1319 82.5902 37.1319 81.1317V78.677L43.9859 74.7203C44.8061 74.2421 45.2943 73.3883 45.2943 72.4376C45.2943 71.4831 44.8061 70.6273 43.978 70.1451L37.1319 66.1923V63.7377C37.1319 62.2791 35.9481 61.0933 34.4935 61.0933H27.2224V53.1266H34.4935C35.9481 53.1266 37.1319 51.9408 37.1319 50.4822V48.0197L43.9681 44.0749C44.7982 43.6045 45.2943 42.7467 45.2943 41.7823C45.2943 40.8297 44.8061 39.9779 43.978 39.4937L37.1319 35.5429V33.0804C37.1319 31.6258 35.9481 30.4419 34.4935 30.4419H27.2224V20.1391H33.61C34.3769 22.0681 36.1991 23.4278 38.3197 23.4278ZM21.5582 16.9631C21.5582 15.3781 22.8507 14.0895 24.4377 14.0895H33.2227V16.9809H25.6433C24.7698 16.9809 24.0622 17.6865 24.0622 18.56V30.4419H21.5582V16.9631ZM3.1602 49.9664V33.6021H33.9737V35.8433C33.9737 36.792 34.4658 37.6458 35.2959 38.13L41.6202 41.7823L35.2899 45.4366C34.4658 45.9168 33.9737 46.7706 33.9737 47.7193V49.9664H3.1602ZM24.0622 53.1266V61.0933H21.5582V53.1266H24.0622ZM3.1602 80.6158V64.2515H33.9737V66.4928C33.9737 67.4552 34.4717 68.313 35.2959 68.7794L41.6262 72.4337L35.3057 76.0821C34.4717 76.5544 33.9737 77.4122 33.9737 78.3746V80.6158H3.1602ZM79.6316 93.9622C79.6316 95.5492 78.3391 96.8398 76.7521 96.8398H24.4377C22.8507 96.8398 21.5582 95.5492 21.5582 93.9622V83.776H24.0622V92.3693C24.0622 93.2428 24.7698 93.9504 25.6433 93.9504H75.5524C76.4259 93.9504 77.1335 93.2428 77.1335 92.3693V83.776H79.6316V93.9622ZM98.0296 64.2515V80.6158H67.2161V78.3746C67.2161 77.4102 66.72 76.5544 65.886 76.084L59.5695 72.4337L65.888 68.7853C66.72 68.3149 67.2161 67.4592 67.2161 66.4928V64.2515H98.0296ZM77.1335 61.0933V53.1266H79.6316V61.0933H77.1335ZM67.2161 49.9664V47.7193C67.2161 46.7627 66.722 45.907 65.8959 45.4326L59.5735 41.7823L65.89 38.1319C66.722 37.6556 67.2161 36.7999 67.2161 35.8433V33.6021H98.0296V49.9664H67.2161ZM93.4918 36.8394H71.7538C70.8822 36.8394 70.1747 37.5469 70.1747 38.4205C70.1747 39.2921 70.8822 39.9996 71.7538 39.9996H93.4918C94.3634 39.9996 95.071 39.2921 95.071 38.4205C95.071 37.5469 94.3634 36.8394 93.4918 36.8394ZM93.4918 43.563H71.7538C70.8822 43.563 70.1747 44.2705 70.1747 45.1421C70.1747 46.0157 70.8822 46.7232 71.7538 46.7232H93.4918C94.3634 46.7232 95.071 46.0157 95.071 45.1421C95.071 44.2705 94.3634 43.563 93.4918 43.563ZM71.7538 70.655H93.4918C94.3634 70.655 95.071 69.9494 95.071 69.0759C95.071 68.2023 94.3634 67.4967 93.4918 67.4967H71.7538C70.8822 67.4967 70.1747 68.2023 70.1747 69.0759C70.1747 69.9494 70.8822 70.655 71.7538 70.655ZM71.7538 77.3726H93.4918C94.3634 77.3726 95.071 76.6651 95.071 75.7935C95.071 74.92 94.3634 74.2124 93.4918 74.2124H71.7538C70.8822 74.2124 70.1747 74.92 70.1747 75.7935C70.1747 76.6651 70.8822 77.3726 71.7538 77.3726ZM29.4359 36.8394H7.69793C6.82636 36.8394 6.11882 37.5469 6.11882 38.4205C6.11882 39.2921 6.82636 39.9996 7.69793 39.9996H29.4359C30.3075 39.9996 31.0151 39.2921 31.0151 38.4205C31.0151 37.5469 30.3075 36.8394 29.4359 36.8394ZM29.4359 43.563H7.69793C6.82636 43.563 6.11882 44.2705 6.11882 45.1421C6.11882 46.0157 6.82636 46.7232 7.69793 46.7232H29.4359C30.3075 46.7232 31.0151 46.0157 31.0151 45.1421C31.0151 44.2705 30.3075 43.563 29.4359 43.563ZM29.4359 67.4967H7.69793C6.82636 67.4967 6.11882 68.2023 6.11882 69.0759C6.11882 69.9494 6.82636 70.655 7.69793 70.655H29.4359C30.3075 70.655 31.0151 69.9494 31.0151 69.0759C31.0151 68.2023 30.3075 67.4967 29.4359 67.4967ZM29.4359 74.2124H7.69793C6.82636 74.2124 6.11882 74.92 6.11882 75.7935C6.11882 76.6651 6.82636 77.3726 7.69793 77.3726H29.4359C30.3075 77.3726 31.0151 76.6651 31.0151 75.7935C31.0151 74.92 30.3075 74.2124 29.4359 74.2124ZM29.4359 43.563H7.69793C6.82636 43.563 6.11882 44.2705 6.11882 45.1421C6.11882 46.0157 6.82636 46.7232 7.69793 46.7232H29.4359C30.3075 46.7232 31.0151 46.0157 31.0151 45.1421C31.0151 44.2705 30.3075 43.563 29.4359 43.563ZM29.4359 36.8394H7.69793C6.82636 36.8394 6.11882 37.5469 6.11882 38.4205C6.11882 39.2921 6.82636 39.9996 7.69793 39.9996H29.4359C30.3075 39.9996 31.0151 39.2921 31.0151 38.4205C31.0151 37.5469 30.3075 36.8394 29.4359 36.8394ZM29.4359 74.2124H7.69793C6.82636 74.2124 6.11882 74.92 6.11882 75.7935C6.11882 76.6651 6.82636 77.3726 7.69793 77.3726H29.4359C30.3075 77.3726 31.0151 76.6651 31.0151 75.7935C31.0151 74.92 30.3075 74.2124 29.4359 74.2124ZM29.4359 67.4967H7.69793C6.82636 67.4967 6.11882 68.2023 6.11882 69.0759C6.11882 69.9494 6.82636 70.655 7.69793 70.655H29.4359C30.3075 70.655 31.0151 69.9494 31.0151 69.0759C31.0151 68.2023 30.3075 67.4967 29.4359 67.4967ZM93.4918 74.2124H71.7538C70.8822 74.2124 70.1747 74.92 70.1747 75.7935C70.1747 76.6651 70.8822 77.3726 71.7538 77.3726H93.4918C94.3634 77.3726 95.071 76.6651 95.071 75.7935C95.071 74.92 94.3634 74.2124 93.4918 74.2124ZM93.4918 67.4967H71.7538C70.8822 67.4967 70.1747 68.2023 70.1747 69.0759C70.1747 69.9494 70.8822 70.655 71.7538 70.655H93.4918C94.3634 70.655 95.071 69.9494 95.071 69.0759C95.071 68.2023 94.3634 67.4967 93.4918 67.4967ZM93.4918 43.563H71.7538C70.8822 43.563 70.1747 44.2705 70.1747 45.1421C70.1747 46.0157 70.8822 46.7232 71.7538 46.7232H93.4918C94.3634 46.7232 95.071 46.0157 95.071 45.1421C95.071 44.2705 94.3634 43.563 93.4918 43.563ZM93.4918 36.8394H71.7538C70.8822 36.8394 70.1747 37.5469 70.1747 38.4205C70.1747 39.2921 70.8822 39.9996 71.7538 39.9996H93.4918C94.3634 39.9996 95.071 39.2921 95.071 38.4205C95.071 37.5469 94.3634 36.8394 93.4918 36.8394ZM93.4918 36.8394H71.7538C70.8822 36.8394 70.1747 37.5469 70.1747 38.4205C70.1747 39.2921 70.8822 39.9996 71.7538 39.9996H93.4918C94.3634 39.9996 95.071 39.2921 95.071 38.4205C95.071 37.5469 94.3634 36.8394 93.4918 36.8394ZM93.4918 43.563H71.7538C70.8822 43.563 70.1747 44.2705 70.1747 45.1421C70.1747 46.0157 70.8822 46.7232 71.7538 46.7232H93.4918C94.3634 46.7232 95.071 46.0157 95.071 45.1421C95.071 44.2705 94.3634 43.563 93.4918 43.563ZM93.4918 67.4967H71.7538C70.8822 67.4967 70.1747 68.2023 70.1747 69.0759C70.1747 69.9494 70.8822 70.655 71.7538 70.655H93.4918C94.3634 70.655 95.071 69.9494 95.071 69.0759C95.071 68.2023 94.3634 67.4967 93.4918 67.4967ZM93.4918 74.2124H71.7538C70.8822 74.2124 70.1747 74.92 70.1747 75.7935C70.1747 76.6651 70.8822 77.3726 71.7538 77.3726H93.4918C94.3634 77.3726 95.071 76.6651 95.071 75.7935C95.071 74.92 94.3634 74.2124 93.4918 74.2124ZM29.4359 36.8394H7.69793C6.82636 36.8394 6.11882 37.5469 6.11882 38.4205C6.11882 39.2921 6.82636 39.9996 7.69793 39.9996H29.4359C30.3075 39.9996 31.0151 39.2921 31.0151 38.4205C31.0151 37.5469 30.3075 36.8394 29.4359 36.8394ZM29.4359 43.563H7.69793C6.82636 43.563 6.11882 44.2705 6.11882 45.1421C6.11882 46.0157 6.82636 46.7232 7.69793 46.7232H29.4359C30.3075 46.7232 31.0151 46.0157 31.0151 45.1421C31.0151 44.2705 30.3075 43.563 29.4359 43.563ZM29.4359 67.4967H7.69793C6.82636 67.4967 6.11882 68.2023 6.11882 69.0759C6.11882 69.9494 6.82636 70.655 7.69793 70.655H29.4359C30.3075 70.655 31.0151 69.9494 31.0151 69.0759C31.0151 68.2023 30.3075 67.4967 29.4359 67.4967ZM29.4359 74.2124H7.69793C6.82636 74.2124 6.11882 74.92 6.11882 75.7935C6.11882 76.6651 6.82636 77.3726 7.69793 77.3726H29.4359C30.3075 77.3726 31.0151 76.6651 31.0151 75.7935C31.0151 74.92 30.3075 74.2124 29.4359 74.2124ZM29.4359 43.563H7.69793C6.82636 43.563 6.11882 44.2705 6.11882 45.1421C6.11882 46.0157 6.82636 46.7232 7.69793 46.7232H29.4359C30.3075 46.7232 31.0151 46.0157 31.0151 45.1421C31.0151 44.2705 30.3075 43.563 29.4359 43.563ZM29.4359 36.8394H7.69793C6.82636 36.8394 6.11882 37.5469 6.11882 38.4205C6.11882 39.2921 6.82636 39.9996 7.69793 39.9996H29.4359C30.3075 39.9996 31.0151 39.2921 31.0151 38.4205C31.0151 37.5469 30.3075 36.8394 29.4359 36.8394ZM29.4359 74.2124H7.69793C6.82636 74.2124 6.11882 74.92 6.11882 75.7935C6.11882 76.6651 6.82636 77.3726 7.69793 77.3726H29.4359C30.3075 77.3726 31.0151 76.6651 31.0151 75.7935C31.0151 74.92 30.3075 74.2124 29.4359 74.2124ZM29.4359 67.4967H7.69793C6.82636 67.4967 6.11882 68.2023 6.11882 69.0759C6.11882 69.9494 6.82636 70.655 7.69793 70.655H29.4359C30.3075 70.655 31.0151 69.9494 31.0151 69.0759C31.0151 68.2023 30.3075 67.4967 29.4359 67.4967ZM93.4918 74.2124H71.7538C70.8822 74.2124 70.1747 74.92 70.1747 75.7935C70.1747 76.6651 70.8822 77.3726 71.7538 77.3726H93.4918C94.3634 77.3726 95.071 76.6651 95.071 75.7935C95.071 74.92 94.3634 74.2124 93.4918 74.2124ZM93.4918 67.4967H71.7538C70.8822 67.4967 70.1747 68.2023 70.1747 69.0759C70.1747 69.9494 70.8822 70.655 71.7538 70.655H93.4918C94.3634 70.655 95.071 69.9494 95.071 69.0759C95.071 68.2023 94.3634 67.4967 93.4918 67.4967ZM93.4918 43.563H71.7538C70.8822 43.563 70.1747 44.2705 70.1747 45.1421C70.1747 46.0157 70.8822 46.7232 71.7538 46.7232H93.4918C94.3634 46.7232 95.071 46.0157 95.071 45.1421C95.071 44.2705 94.3634 43.563 93.4918 43.563ZM93.4918 36.8394H71.7538C70.8822 36.8394 70.1747 37.5469 70.1747 38.4205C70.1747 39.2921 70.8822 39.9996 71.7538 39.9996H93.4918C94.3634 39.9996 95.071 39.2921 95.071 38.4205C95.071 37.5469 94.3634 36.8394 93.4918 36.8394ZM93.4918 36.8394H71.7538C70.8822 36.8394 70.1747 37.5469 70.1747 38.4205C70.1747 39.2921 70.8822 39.9996 71.7538 39.9996H93.4918C94.3634 39.9996 95.071 39.2921 95.071 38.4205C95.071 37.5469 94.3634 36.8394 93.4918 36.8394ZM93.4918 43.563H71.7538C70.8822 43.563 70.1747 44.2705 70.1747 45.1421C70.1747 46.0157 70.8822 46.7232 71.7538 46.7232H93.4918C94.3634 46.7232 95.071 46.0157 95.071 45.1421C95.071 44.2705 94.3634 43.563 93.4918 43.563ZM93.4918 67.4967H71.7538C70.8822 67.4967 70.1747 68.2023 70.1747 69.0759C70.1747 69.9494 70.8822 70.655 71.7538 70.655H93.4918C94.3634 70.655 95.071 69.9494 95.071 69.0759C95.071 68.2023 94.3634 67.4967 93.4918 67.4967ZM93.4918 74.2124H71.7538C70.8822 74.2124 70.1747 74.92 70.1747 75.7935C70.1747 76.6651 70.8822 77.3726 71.7538 77.3726H93.4918C94.3634 77.3726 95.071 76.6651 95.071 75.7935C95.071 74.92 94.3634 74.2124 93.4918 74.2124ZM29.4359 36.8394H7.69793C6.82636 36.8394 6.11882 37.5469 6.11882 38.4205C6.11882 39.2921 6.82636 39.9996 7.69793 39.9996H29.4359C30.3075 39.9996 31.0151 39.2921 31.0151 38.4205C31.0151 37.5469 30.3075 36.8394 29.4359 36.8394ZM29.4359 43.563H7.69793C6.82636 43.563 6.11882 44.2705 6.11882 45.1421C6.11882 46.0157 6.82636 46.7232 7.69793 46.7232H29.4359C30.3075 46.7232 31.0151 46.0157 31.0151 45.1421C31.0151 44.2705 30.3075 43.563 29.4359 43.563ZM29.4359 67.4967H7.69793C6.82636 67.4967 6.11882 68.2023 6.11882 69.0759C6.11882 69.9494 6.82636 70.655 7.69793 70.655H29.4359C30.3075 70.655 31.0151 69.9494 31.0151 69.0759C31.0151 68.2023 30.3075 67.4967 29.4359 67.4967ZM29.4359 74.2124H7.69793C6.82636 74.2124 6.11882 74.92 6.11882 75.7935C6.11882 76.6651 6.82636 77.3726 7.69793 77.3726H29.4359C30.3075 77.3726 31.0151 76.6651 31.0151 75.7935C31.0151 74.92 30.3075 74.2124 29.4359 74.2124ZM29.4359 43.563H7.69793C6.82636 43.563 6.11882 44.2705 6.11882 45.1421C6.11882 46.0157 6.82636 46.7232 7.69793 46.7232H29.4359C30.3075 46.7232 31.0151 46.0157 31.0151 45.1421C31.0151 44.2705 30.3075 43.563 29.4359 43.563ZM29.4359 36.8394H7.69793C6.82636 36.8394 6.11882 37.5469 6.11882 38.4205C6.11882 39.2921 6.82636 39.9996 7.69793 39.9996H29.4359C30.3075 39.9996 31.0151 39.2921 31.0151 38.4205C31.0151 37.5469 30.3075 36.8394 29.4359 36.8394ZM29.4359 74.2124H7.69793C6.82636 74.2124 6.11882 74.92 6.11882 75.7935C6.11882 76.6651 6.82636 77.3726 7.69793 77.3726H29.4359C30.3075 77.3726 31.0151 76.6651 31.0151 75.7935C31.0151 74.92 30.3075 74.2124 29.4359 74.2124ZM29.4359 67.4967H7.69793C6.82636 67.4967 6.11882 68.2023 6.11882 69.0759C6.11882 69.9494 6.82636 70.655 7.69793 70.655H29.4359C30.3075 70.655 31.0151 69.9494 31.0151 69.0759C31.0151 68.2023 30.3075 67.4967 29.4359 67.4967ZM93.4918 74.2124H71.7538C70.8822 74.2124 70.1747 74.92 70.1747 75.7935C70.1747 76.6651 70.8822 77.3726 71.7538 77.3726H93.4918C94.3634 77.3726 95.071 76.6651 95.071 75.7935C95.071 74.92 94.3634 74.2124 93.4918 74.2124ZM93.4918 67.4967H71.7538C70.8822 67.4967 70.1747 68.2023 70.1747 69.0759C70.1747 69.9494 70.8822 70.655 71.7538 70.655H93.4918C94.3634 70.655 95.071 69.9494 95.071 69.0759C95.071 68.2023 94.3634 67.4967 93.4918 67.4967ZM93.4918 43.563H71.7538C70.8822 43.563 70.1747 44.2705 70.1747 45.1421C70.1747 46.0157 70.8822 46.7232 71.7538 46.7232H93.4918C94.3634 46.7232 95.071 46.0157 95.071 45.1421C95.071 44.2705 94.3634 43.563 93.4918 43.563ZM93.4918 36.8394H71.7538C70.8822 36.8394 70.1747 37.5469 70.1747 38.4205C70.1747 39.2921 70.8822 39.9996 71.7538 39.9996H93.4918C94.3634 39.9996 95.071 39.2921 95.071 38.4205C95.071 37.5469 94.3634 36.8394 93.4918 36.8394ZM93.4918 36.8394H71.7538C70.8822 36.8394 70.1747 37.5469 70.1747 38.4205C70.1747 39.2921 70.8822 39.9996 71.7538 39.9996H93.4918C94.3634 39.9996 95.071 39.2921 95.071 38.4205C95.071 37.5469 94.3634 36.8394 93.4918 36.8394ZM93.4918 43.563H71.7538C70.8822 43.563 70.1747 44.2705 70.1747 45.1421C70.1747 46.0157 70.8822 46.7232 71.7538 46.7232H93.4918C94.3634 46.7232 95.071 46.0157 95.071 45.1421C95.071 44.2705 94.3634 43.563 93.4918 43.563ZM93.4918 67.4967H71.7538C70.8822 67.4967 70.1747 68.2023 70.1747 69.0759C70.1747 69.9494 70.8822 70.655 71.7538 70.655H93.4918C94.3634 70.655 95.071 69.9494 95.071 69.0759C95.071 68.2023 94.3634 67.4967 93.4918 67.4967ZM93.4918 74.2124H71.7538C70.8822 74.2124 70.1747 74.92 70.1747 75.7935C70.1747 76.6651 70.8822 77.3726 71.7538 77.3726H93.4918C94.3634 77.3726 95.071 76.6651 95.071 75.7935C95.071 74.92 94.3634 74.2124 93.4918 74.2124ZM29.4359 36.8394H7.69793C6.82636 36.8394 6.11882 37.5469 6.11882 38.4205C6.11882 39.2921 6.82636 39.9996 7.69793 39.9996H29.4359C30.3075 39.9996 31.0151 39.2921 31.0151 38.4205C31.0151 37.5469 30.3075 36.8394 29.4359 36.8394ZM29.4359 43.563H7.69793C6.82636 43.563 6.11882 44.2705 6.11882 45.1421C6.11882 46.0157 6.82636 46.7232 7.69793 46.7232H29.4359C30.3075 46.7232 31.0151 46.0157 31.0151 45.1421C31.0151 44.2705 30.3075 43.563 29.4359 43.563ZM29.4359 67.4967H7.69793C6.82636 67.4967 6.11882 68.2023 6.11882 69.0759C6.11882 69.9494 6.82636 70.655 7.69793 70.655H29.4359C30.3075 70.655 31.0151 69.9494 31.0151 69.0759C31.0151 68.2023 30.3075 67.4967 29.4359 67.4967ZM29.4359 74.2124H7.69793C6.82636 74.2124 6.11882 74.92 6.11882 75.7935C6.11882 76.6651 6.82636 77.3726 7.69793 77.3726H29.4359C30.3075 77.3726 31.0151 76.6651 31.0151 75.7935C31.0151 74.92 30.3075 74.2124 29.4359 74.2124ZM29.4359 43.563H7.69793C6.82636 43.563 6.11882 44.2705 6.11882 45.1421C6.11882 46.0157 6.82636 46.7232 7.69793 46.7232H29.4359C30.3075 46.7232 31.0151 46.0157 31.0151 45.1421C31.0151 44.2705 30.3075 43.563 29.4359 43.563ZM29.4359 36.8394H7.69793C6.82636 36.8394 6.11882 37.5469 6.11882 38.4205C6.11882 39.2921 6.82636 39.9996 7.69793 39.9996H29.4359C30.3075 39.9996 31.0151 39.2921 31.0151 38.4205C31.0151 37.5469 30.3075 36.8394 29.4359 36.8394ZM29.4359 74.2124H7.69793C6.82636 74.2124 6.11882 74.92 6.11882 75.7935C6.11882 76.6651 6.82636 77.3726 7.69793 77.3726H29.4359C30.3075 77.3726 31.0151 76.6651 31.0151 75.7935C31.0151 74.92 30.3075 74.2124 29.4359 74.2124ZM29.4359 67.4967H7.69793C6.82636 67.4967 6.11882 68.2023 6.11882 69.0759C6.11882 69.9494 6.82636 70.655 7.69793 70.655H29.4359C30.3075 70.655 31.0151 69.9494 31.0151 69.0759C31.0151 68.2023 30.3075 67.4967 29.4359 67.4967ZM93.4918 74.2124H71.7538C70.8822 74.2124 70.1747 74.92 70.1747 75.7935C70.1747 76.6651 70.8822 77.3726 71.7538 77.3726H93.4918C94.3634 77.3726 95.071 76.6651 95.071 75.7935C95.071 74.92 94.3634 74.2124 93.4918 74.2124ZM93.4918 67.4967H71.7538C70.8822 67.4967 70.1747 68.2023 70.1747 69.0759C70.1747 69.9494 70.8822 70.655 71.7538 70.655H93.4918C94.3634 70.655 95.071 69.9494 95.071 69.0759C95.071 68.2023 94.3634 67.4967 93.4918 67.4967ZM93.4918 43.563H71.7538C70.8822 43.563 70.1747 44.2705 70.1747 45.1421C70.1747 46.0157 70.8822 46.7232 71.7538 46.7232H93.4918C94.3634 46.7232 95.071 46.0157 95.071 45.1421C95.071 44.2705 94.3634 43.563 93.4918 43.563ZM93.4918 36.8394H71.7538C70.8822 36.8394 70.1747 37.5469 70.1747 38.4205C70.1747 39.2921 70.8822 39.9996 71.7538 39.9996H93.4918C94.3634 39.9996 95.071 39.2921 95.071 38.4205C95.071 37.5469 94.3634 36.8394 93.4918 36.8394ZM93.4918 36.8394H71.7538C70.8822 36.8394 70.1747 37.5469 70.1747 38.4205C70.1747 39.2921 70.8822 39.9996 71.7538 39.9996H93.4918C94.3634 39.9996 95.071 39.2921 95.071 38.4205C95.071 37.5469 94.3634 36.8394 93.4918 36.8394ZM93.4918 43.563H71.7538C70.8822 43.563 70.1747 44.2705 70.1747 45.1421C70.1747 46.0157 70.8822 46.7232 71.7538 46.7232H93.4918C94.3634 46.7232 95.071 46.0157 95.071 45.1421C95.071 44.2705 94.3634 43.563 93.4918 43.563ZM93.4918 67.4967H71.7538C70.8822 67.4967 70.1747 68.2023 70.1747 69.0759C70.1747 69.9494 70.8822 70.655 71.7538 70.655H93.4918C94.3634 70.655 95.071 69.9494 95.071 69.0759C95.071 68.2023 94.3634 67.4967 93.4918 67.4967ZM93.4918 74.2124H71.7538C70.8822 74.2124 70.1747 74.92 70.1747 75.7935C70.1747 76.6651 70.8822 77.3726 71.7538 77.3726H93.4918C94.3634 77.3726 95.071 76.6651 95.071 75.7935C95.071 74.92 94.3634 74.2124 93.4918 74.2124ZM29.4359 36.8394H7.69793C6.82636 36.8394 6.11882 37.5469 6.11882 38.4205C6.11882 39.2921 6.82636 39.9996 7.69793 39.9996H29.4359C30.3075 39.9996 31.0151 39.2921 31.0151 38.4205C31.0151 37.5469 30.3075 36.8394 29.4359 36.8394ZM29.4359 43.563H7.69793C6.82636 43.563 6.11882 44.2705 6.11882 45.1421C6.11882 46.0157 6.82636 46.7232 7.69793 46.7232H29.4359C30.3075 46.7232 31.0151 46.0157 31.0151 45.1421C31.0151 44.2705 30.3075 43.563 29.4359 43.563ZM29.4359 67.4967H7.69793C6.82636 67.4967 6.11882 68.2023 6.11882 69.0759C6.11882 69.9494 6.82636 70.655 7.69793 70.655H29.4359C30.3075 70.655 31.0151 69.9494 31.0151 69.0759C31.0151 68.2023 30.3075 67.4967 29.4359 67.4967ZM29.4359 74.2124H7.69793C6.82636 74.2124 6.11882 74.92 6.11882 75.7935C6.11882 76.6651 6.82636 77.3726 7.69793 77.3726H29.4359C30.3075 77.3726 31.0151 76.6651 31.0151 75.7935C31.0151 74.92 30.3075 74.2124 29.4359 74.2124ZM93.4918 43.563H71.7538C70.8822 43.563 70.1747 44.2705 70.1747 45.1421C70.1747 46.0157 70.8822 46.7232 71.7538 46.7232H93.4918C94.3634 46.7232 95.071 46.0157 95.071 45.1421C95.071 44.2705 94.3634 43.563 93.4918 43.563ZM93.4918 36.8394H71.7538C70.8822 36.8394 70.1747 37.5469 70.1747 38.4205C70.1747 39.2921 70.8822 39.9996 71.7538 39.9996H93.4918C94.3634 39.9996 95.071 39.2921 95.071 38.4205C95.071 37.5469 94.3634 36.8394 93.4918 36.8394ZM29.4359 43.563H7.69793C6.82636 43.563 6.11882 44.2705 6.11882 45.1421C6.11882 46.0157 6.82636 46.7232 7.69793 46.7232H29.4359C30.3075 46.7232 31.0151 46.0157 31.0151 45.1421C31.0151 44.2705 30.3075 43.563 29.4359 43.563ZM29.4359 36.8394H7.69793C6.82636 36.8394 6.11882 37.5469 6.11882 38.4205C6.11882 39.2921 6.82636 39.9996 7.69793 39.9996H29.4359C30.3075 39.9996 31.0151 39.2921 31.0151 38.4205C31.0151 37.5469 30.3075 36.8394 29.4359 36.8394ZM29.4359 74.2124H7.69793C6.82636 74.2124 6.11882 74.92 6.11882 75.7935C6.11882 76.6651 6.82636 77.3726 7.69793 77.3726H29.4359C30.3075 77.3726 31.0151 76.6651 31.0151 75.7935C31.0151 74.92 30.3075 74.2124 29.4359 74.2124ZM29.4359 67.4967H7.69793C6.82636 67.4967 6.11882 68.2023 6.11882 69.0759C6.11882 69.9494 6.82636 70.655 7.69793 70.655H29.4359C30.3075 70.655 31.0151 69.9494 31.0151 69.0759C31.0151 68.2023 30.3075 67.4967 29.4359 67.4967ZM93.4918 74.2124H71.7538C70.8822 74.2124 70.1747 74.92 70.1747 75.7935C70.1747 76.6651 70.8822 77.3726 71.7538 77.3726H93.4918C94.3634 77.3726 95.071 76.6651 95.071 75.7935C95.071 74.92 94.3634 74.2124 93.4918 74.2124ZM93.4918 67.4967H71.7538C70.8822 67.4967 70.1747 68.2023 70.1747 69.0759C70.1747 69.9494 70.8822 70.655 71.7538 70.655H93.4918C94.3634 70.655 95.071 69.9494 95.071 69.0759C95.071 68.2023 94.3634 67.4967 93.4918 67.4967ZM93.4918 36.8394H71.7538C70.8822 36.8394 70.1747 37.5469 70.1747 38.4205C70.1747 39.2921 70.8822 39.9996 71.7538 39.9996H93.4918C94.3634 39.9996 95.071 39.2921 95.071 38.4205C95.071 37.5469 94.3634 36.8394 93.4918 36.8394ZM93.4918 43.563H71.7538C70.8822 43.563 70.1747 44.2705 70.1747 45.1421C70.1747 46.0157 70.8822 46.7232 71.7538 46.7232H93.4918C94.3634 46.7232 95.071 46.0157 95.071 45.1421C95.071 44.2705 94.3634 43.563 93.4918 43.563ZM93.4918 67.4967H71.7538C70.8822 67.4967 70.1747 68.2023 70.1747 69.0759C70.1747 69.9494 70.8822 70.655 71.7538 70.655H93.4918C94.3634 70.655 95.071 69.9494 95.071 69.0759C95.071 68.2023 94.3634 67.4967 93.4918 67.4967ZM93.4918 74.2124H71.7538C70.8822 74.2124 70.1747 74.92 70.1747 75.7935C70.1747 76.6651 70.8822 77.3726 71.7538 77.3726H93.4918C94.3634 77.3726 95.071 76.6651 95.071 75.7935C95.071 74.92 94.3634 74.2124 93.4918 74.2124ZM29.4359 36.8394H7.69793C6.82636 36.8394 6.11882 37.5469 6.11882 38.4205C6.11882 39.2921 6.82636 39.9996 7.69793 39.9996H29.4359C30.3075 39.9996 31.0151 39.2921 31.0151 38.4205C31.0151 37.5469 30.3075 36.8394 29.4359 36.8394ZM29.4359 43.563H7.69793C6.82636 43.563 6.11882 44.2705 6.11882 45.1421C6.11882 46.0157 6.82636 46.7232 7.69793 46.7232H29.4359C30.3075 46.7232 31.0151 46.0157 31.0151 45.1421C31.0151 44.2705 30.3075 43.563 29.4359 43.563ZM29.4359 67.4967H7.69793C6.82636 67.4967 6.11882 68.2023 6.11882 69.0759C6.11882 69.9494 6.82636 70.655 7.69793 70.655H29.4359C30.3075 70.655 31.0151 69.9494 31.0151 69.0759C31.0151 68.2023 30.3075 67.4967 29.4359 67.4967ZM29.4359 74.2124H7.69793C6.82636 74.2124 6.11882 74.92 6.11882 75.7935C6.11882 76.6651 6.82636 77.3726 7.69793 77.3726H29.4359C30.3075 77.3726 31.0151 76.6651 31.0151 75.7935C31.0151 74.92 30.3075 74.2124 29.4359 74.2124Z" fill="#ABA9AC"/>
<path d="M79.6316 53.1266V61.0933H77.1334V53.1266H79.6316ZM24.0622 61.0933V53.1266H21.5581V61.0933H24.0622ZM77.1334 92.3692C77.1334 93.2428 76.4259 93.9503 75.5523 93.9503H25.6433C24.7697 93.9503 24.0622 93.2428 24.0622 92.3692V83.776H21.5581V93.9622C21.5581 95.5492 22.8507 96.8397 24.4377 96.8397H76.752C78.339 96.8397 79.6316 95.5492 79.6316 93.9622V83.776H77.1334V92.3692ZM24.0622 18.56C24.0622 17.6864 24.7697 16.9809 25.6433 16.9809H33.2226V14.0894H24.4377C22.8507 14.0894 21.5581 15.378 21.5581 16.9631V30.4419H24.0622V18.56ZM77.1334 18.56V30.4419H79.6316V16.9631C79.6316 15.378 78.339 14.0894 76.752 14.0894H67.9671V16.9809H75.5523C76.4259 16.9809 77.1334 17.6864 77.1334 18.56ZM67.216 64.2515H98.0295V80.6158H67.216V78.3746C67.216 77.4101 66.72 76.5544 65.886 76.084L59.5695 72.4336L65.8879 68.7853C66.72 68.3149 67.216 67.4591 67.216 66.4927V64.2515ZM70.1747 69.0758C70.1747 69.9494 70.8822 70.6549 71.7538 70.6549H93.4918C94.3634 70.6549 95.0709 69.9494 95.0709 69.0758C95.0709 68.2022 94.3634 67.4967 93.4918 67.4967H71.7538C70.8822 67.4967 70.1747 68.2022 70.1747 69.0758ZM70.1747 75.7935C70.1747 76.665 70.8822 77.3726 71.7538 77.3726H93.4918C94.3634 77.3726 95.0709 76.665 95.0709 75.7935C95.0709 74.9199 94.3634 74.2124 93.4918 74.2124H71.7538C70.8822 74.2124 70.1747 74.9199 70.1747 75.7935ZM33.9736 80.6158H3.16016V64.2515H33.9736V66.4927C33.9736 67.4552 34.4717 68.3129 35.2958 68.7793L41.6261 72.4336L35.3057 76.082C34.4717 76.5544 33.9736 77.4121 33.9736 78.3746V80.6158ZM31.015 75.7935C31.015 74.9199 30.3075 74.2124 29.4359 74.2124H7.69789C6.82631 74.2124 6.11877 74.9199 6.11877 75.7935C6.11877 76.665 6.82631 77.3726 7.69789 77.3726H29.4359C30.3075 77.3726 31.015 76.665 31.015 75.7935ZM31.015 69.0758C31.015 68.2022 30.3075 67.4967 29.4359 67.4967H7.69789C6.82631 67.4967 6.11877 68.2022 6.11877 69.0758C6.11877 69.9494 6.82631 70.6549 7.69789 70.6549H29.4359C30.3075 70.6549 31.015 69.9494 31.015 69.0758ZM33.9736 49.9664H3.16016V33.6021H33.9736V35.8433C33.9736 36.7919 34.4657 37.6457 35.2958 38.1299L41.6202 41.7822L35.2899 45.4365C34.4657 45.9168 33.9736 46.7706 33.9736 47.7192V49.9664ZM31.015 45.1421C31.015 44.2705 30.3075 43.5629 29.4359 43.5629H7.69789C6.82631 43.5629 6.11877 44.2705 6.11877 45.1421C6.11877 46.0156 6.82631 46.7231 7.69789 46.7231H29.4359C30.3075 46.7231 31.015 46.0156 31.015 45.1421ZM31.015 38.4204C31.015 37.5469 30.3075 36.8394 29.4359 36.8394H7.69789C6.82631 36.8394 6.11877 37.5469 6.11877 38.4204C6.11877 39.292 6.82631 39.9996 7.69789 39.9996H29.4359C30.3075 39.9996 31.015 39.292 31.015 38.4204ZM98.0295 33.6021V49.9664H67.216V47.7192C67.216 46.7627 66.722 45.9069 65.8958 45.4326L59.5735 41.7822L65.8899 38.1319C66.722 37.6556 67.216 36.7998 67.216 35.8433V33.6021H98.0295ZM95.0709 45.1421C95.0709 44.2705 94.3634 43.5629 93.4918 43.5629H71.7538C70.8822 43.5629 70.1747 44.2705 70.1747 45.1421C70.1747 46.0156 70.8822 46.7231 71.7538 46.7231H93.4918C94.3634 46.7231 95.0709 46.0156 95.0709 45.1421ZM95.0709 38.4204C95.0709 37.5469 94.3634 36.8394 93.4918 36.8394H71.7538C70.8822 36.8394 70.1747 37.5469 70.1747 38.4204C70.1747 39.292 70.8822 39.9996 71.7538 39.9996H93.4918C94.3634 39.9996 95.0709 39.292 95.0709 38.4204ZM38.3196 20.2676H62.87C63.3582 20.2676 63.8068 20.064 64.1468 19.728C64.4887 19.394 64.7219 18.9256 64.7871 18.3979C64.799 18.303 64.8069 18.2042 64.8069 18.1054V13.6645C64.8069 13.4372 64.7772 13.2218 64.7179 13.0163C64.712 12.9985 64.7061 12.9787 64.7001 12.959C64.4373 12.1131 63.7179 11.5004 62.87 11.5004H58.4331C57.5595 11.5004 56.852 10.7929 56.852 9.92129C56.852 6.1919 54.0456 3.16016 50.5948 3.16016C47.1441 3.16016 44.3377 6.1919 44.3377 9.92129C44.3377 10.7929 43.6301 11.5004 42.7566 11.5004H38.3196C37.4738 11.5004 36.7544 12.1111 36.4895 12.957C36.4836 12.9787 36.4757 13.0005 36.4698 13.0222C36.4125 13.2238 36.3808 13.4392 36.3808 13.6645V18.1054C36.3808 19.2774 37.2702 20.2676 38.3196 20.2676Z" fill="url(#paint0_linear_145_487)"/>
<defs>
<linearGradient id="paint0_linear_145_487" x1="3.18337" y1="50.0409" x2="115.925" y2="50.0409" gradientUnits="userSpaceOnUse">
<stop stop-color="#3D81DF"/>
<stop offset="0.685" stop-color="#834AD8"/>
<stop offset="0.85" stop-color="#BB41E1"/>
</linearGradient>
</defs>
</svg>
