<svg width="100" height="100" viewBox="0 0 100 100" fill="none" xmlns="http://www.w3.org/2000/svg">
<path d="M88.5279 30.9731C86.4731 30.9731 84.723 32.2935 84.0764 34.1277H81.1934C80.8437 28.7698 78.7029 23.8905 75.3667 20.0856L77.4118 18.0405C78.0388 18.3432 78.7322 18.5034 79.451 18.5054H79.455C80.7168 18.5054 81.9005 18.0131 82.7931 17.1224C84.6292 15.2864 84.6292 12.2959 82.7951 10.4539L82.7912 10.4481C80.9492 8.61395 77.9568 8.61591 76.1227 10.45C75.2281 11.3446 74.7378 12.5322 74.7397 13.794C74.7397 14.5129 74.9019 15.2063 75.2027 15.8333L73.1576 17.8784C69.3526 14.5402 64.4753 12.4014 59.1155 12.0498V9.16673C60.9516 8.52215 62.272 6.77006 62.272 4.71717C62.272 2.1154 60.1546 0 57.5548 0C54.953 0 52.8376 2.1154 52.8376 4.71717C52.8376 6.77006 54.1561 8.52215 55.9922 9.16673V12.0498C52.3923 12.2861 48.8823 13.3428 45.7609 15.1379C42.6689 16.9154 40.0066 19.3843 37.9947 22.324C37.0161 22.1365 35.9691 22.2849 35.0413 22.8221L22.1126 30.2856C20.7863 31.0513 19.5128 31.3931 17.9814 31.3931H16.6708V30.3305C16.6708 29.057 15.6336 28.0217 14.362 28.0217H8.30877C7.03719 28.0217 6 29.057 6 30.3305V54.559C6 55.8325 7.03719 56.8677 8.30877 56.8677H14.362C15.6336 56.8677 16.6708 55.8325 16.6708 54.559V54.266L19.8116 55.559C21.2512 56.1548 22.5892 56.4204 24.1499 56.4204H41.868C42.6279 56.4204 43.3408 56.2212 43.96 55.8755C44.9816 57.4322 45.5949 59.116 45.8176 60.9657C43.4072 61.4638 41.5907 63.6046 41.5907 66.1595C41.5907 68.7515 43.458 70.9157 45.9152 71.3767V84.3914C45.9152 84.9051 46.0637 85.3836 46.3606 85.8231L55.2753 98.828C55.7832 99.5722 56.6153 100 57.5548 100C58.4807 100 59.3069 99.5781 59.8323 98.828L68.7354 85.8309C69.0362 85.4051 69.1866 84.9207 69.1866 84.3933L69.1924 71.4665C72.0677 71.4099 74.3921 69.0523 74.3921 66.1595C74.3921 63.3057 72.1282 60.9735 69.3018 60.8602C69.6085 58.4948 70.5558 56.4048 72.179 54.5043C72.4857 54.1449 72.7943 53.7933 73.101 53.4456L75.2046 55.5493C74.8963 56.1889 74.7374 56.8902 74.7397 57.6002C74.7397 58.8601 75.232 60.0438 76.1207 60.9266C77.0075 61.8193 78.1912 62.3115 79.451 62.3135H79.455C80.7168 62.3135 81.9005 61.8212 82.7931 60.9286C84.6292 59.0945 84.6292 56.102 82.7912 54.2562C81.3379 52.8088 79.1698 52.51 77.4177 53.346L75.1773 51.1075C78.2127 47.6248 80.8516 43.9312 81.2051 37.251H84.0764C84.723 39.087 86.4731 40.4075 88.5279 40.4075C91.1277 40.4075 93.2451 38.2921 93.2451 35.6903C93.2451 33.0885 91.1277 30.9731 88.5279 30.9731ZM78.3299 12.6592C78.6404 12.3486 79.0467 12.1943 79.455 12.1943C79.8632 12.1943 80.2734 12.3486 80.5859 12.6592C81.2051 13.2842 81.2051 14.2941 80.5859 14.9133C80.4378 15.0624 80.2616 15.1807 80.0675 15.2611C79.8733 15.3416 79.6651 15.3827 79.455 15.3821C79.0291 15.3821 78.6326 15.216 78.3279 14.9113C78.1799 14.7645 78.0625 14.5899 77.9824 14.3974C77.9022 14.205 77.861 13.9986 77.8611 13.7901C77.8611 13.3643 78.0271 12.962 78.3299 12.6592ZM13.5475 53.7464H9.12329V31.145H13.5475V53.7464ZM78.3299 56.4673C78.6404 56.1567 79.0487 56.0024 79.4569 56.0024C79.8652 56.0024 80.2734 56.1567 80.582 56.4634C81.2051 57.0884 81.2051 58.1002 80.5859 58.7214C80.4378 58.8705 80.2616 58.9888 80.0675 59.0693C79.8733 59.1497 79.6651 59.1908 79.455 59.1902C79.0291 59.1902 78.6326 59.0241 78.3279 58.7194C78.1799 58.5726 78.0625 58.398 77.9824 58.2055C77.9022 58.0131 77.861 57.8067 77.8611 57.5983C77.8611 57.1705 78.0271 56.7701 78.3299 56.4673ZM78.0642 34.1277H65.4402C65.2336 33.0881 64.8233 32.0996 64.2331 31.2192L73.1537 22.2986C75.9312 25.5293 77.7243 29.6293 78.0642 34.1277ZM70.9465 20.0895L62.0239 29.012C61.1443 28.4203 60.1556 28.0099 59.1155 27.8049V15.1789C63.6158 15.5188 67.7158 17.3119 70.9465 20.0895ZM55.959 4.71717C55.959 3.83819 56.6739 3.12134 57.5548 3.12134C58.4338 3.12134 59.1487 3.83819 59.1487 4.71717C59.1487 5.59614 58.4338 6.31104 57.5548 6.31104C56.6739 6.31104 55.959 5.59614 55.959 4.71717ZM57.5548 30.7739C58.9084 30.7739 60.137 31.3247 61.0277 32.2135C61.0277 32.2135 61.0277 32.2154 61.0297 32.2154C61.475 32.6608 61.8344 33.1901 62.0845 33.778C62.3345 34.366 62.4712 35.0125 62.4712 35.6903C62.4712 38.4014 60.266 40.6067 57.5548 40.6067C56.7012 40.6067 55.8789 40.3801 55.1562 39.9777C57.3692 39.8019 59.1155 37.9463 59.1155 35.6903C59.1155 33.4343 57.3653 31.5806 55.1523 31.4087C55.875 31.0005 56.6993 30.7739 57.5548 30.7739ZM40.9617 24.4765C40.948 24.4492 40.9324 24.4218 40.9168 24.3964C40.8328 24.2499 40.741 24.1113 40.6433 23.9784C44.1983 18.8374 49.7827 15.6418 55.9922 15.1809V27.8088C54.9245 28.0242 53.9111 28.4526 53.0127 29.0684C52.1143 29.6843 51.3492 30.4749 50.7633 31.3931H37.3892L39.3424 30.266C41.3719 29.096 42.0536 26.6603 40.9617 24.4765ZM35.3343 45.4684H44.2999C44.9464 45.4684 45.4718 45.9977 45.4718 46.6482C45.4718 47.2947 44.9464 47.8221 44.2999 47.8221H32.3497C31.4883 47.8221 30.789 48.5194 30.789 49.3828C30.789 50.2442 31.4883 50.9434 32.3497 50.9434H41.868C42.5068 50.9434 43.0478 51.4845 43.0478 52.1232C43.0478 52.3381 42.9892 52.5373 42.8876 52.7112C42.872 52.7346 42.8583 52.758 42.8447 52.7815C42.7362 52.9404 42.5905 53.0705 42.4203 53.1603C42.2501 53.2502 42.0605 53.2972 41.868 53.2971H24.1499C23.0033 53.2971 22.0618 53.1116 21.0012 52.6721L16.6708 50.8887V34.5164H17.9814C20.0636 34.5164 21.8723 34.03 23.6733 32.9889L36.602 25.5254C37.1528 25.209 37.856 25.3848 38.19 25.918C38.4439 26.4611 38.4674 27.1662 37.7818 27.5607L30.7832 31.6021C30.4857 31.774 30.2533 32.0393 30.1219 32.3568C29.9905 32.6743 29.9676 33.0262 30.0566 33.3581C30.2382 34.0417 30.8574 34.5164 31.5645 34.5164H54.8124C55.4628 34.5164 55.9922 35.0438 55.9922 35.6903C55.9922 36.329 55.4531 36.8701 54.8124 36.8701H36.8305C35.9672 36.8701 35.2679 37.5693 35.2679 38.4307C35.2679 39.2921 35.9672 39.9914 36.8305 39.9914H47.6595C48.306 39.9914 48.8334 40.5188 48.8334 41.1653C48.8334 41.8158 48.306 42.3451 47.6595 42.3451H35.3343C34.4729 42.3451 33.7737 43.0444 33.7737 43.9058C33.7737 44.7691 34.4729 45.4684 35.3343 45.4684ZM56.0332 83.1237H49.0385V71.4685H55.9922V82.776C55.9922 82.8951 56.0078 83.0123 56.0332 83.1237ZM57.5548 96.6306L55.5761 93.7456C56.8838 93.5138 58.222 93.5138 59.5296 93.7456L57.5548 96.6306ZM61.4243 90.9798C60.1722 90.6282 58.8752 90.4504 57.5548 90.4504C56.2344 90.4504 54.9374 90.6282 53.6815 90.9798L50.4371 86.247H64.6667L61.4243 90.9798ZM66.0652 83.1237H59.0745C59.0999 83.0123 59.1155 82.8951 59.1155 82.776V71.4685H66.0692L66.0652 83.1237ZM71.2688 66.1595C71.2688 67.3646 70.2902 68.3471 69.087 68.3471H46.8958C45.6926 68.3471 44.714 67.3646 44.714 66.1595C44.714 64.9563 45.6926 63.9777 46.8958 63.9777H69.087C70.2902 63.9777 71.2688 64.9563 71.2688 66.1595ZM69.8058 52.4768C67.6767 54.9652 66.4774 57.7194 66.159 60.8544H48.9487C48.6654 58.0807 47.6908 55.604 45.9934 53.3421C46.1086 52.9553 46.1711 52.5471 46.1711 52.1232C46.1711 51.5997 46.0754 51.0977 45.9035 50.6329C47.4798 49.9961 48.5951 48.4491 48.5951 46.6482C48.5951 46.2145 48.5307 45.7965 48.4115 45.402C50.3355 45.0602 51.8161 43.4331 51.943 41.4427C53.4236 42.8783 55.4316 43.73 57.5548 43.73C59.2053 43.73 60.7426 43.228 62.022 42.3705L70.8879 51.2345C70.5304 51.6388 70.1691 52.0509 69.8058 52.4768ZM72.9642 48.8944L64.2311 40.1633C64.8132 39.296 65.2312 38.3116 65.4402 37.251H78.0759C77.7517 42.7338 75.689 45.7497 72.9642 48.8944ZM88.5279 37.2842C87.647 37.2842 86.9321 36.5693 86.9321 35.6903C86.9321 34.8113 87.647 34.0945 88.5279 34.0945C89.4069 34.0945 90.1218 34.8113 90.1218 35.6903C90.1218 36.5693 89.4069 37.2842 88.5279 37.2842Z" fill="#ABA9AC"/>
<path d="M55.9587 4.71704C55.9587 3.83807 56.6736 3.12122 57.5546 3.12122C58.4335 3.12122 59.1484 3.83807 59.1484 4.71704C59.1484 5.59602 58.4335 6.31092 57.5546 6.31092C56.6736 6.31092 55.9587 5.59602 55.9587 4.71704ZM79.4547 12.1942C79.0465 12.1942 78.6402 12.3485 78.3296 12.6591C78.1806 12.8072 78.0625 12.9835 77.982 13.1776C77.9016 13.3717 77.8604 13.5799 77.8608 13.79C77.8628 14.2139 78.0269 14.6123 78.3277 14.9112C78.6324 15.2159 79.0289 15.3819 79.4547 15.3819C79.8825 15.3819 80.2829 15.2159 80.5857 14.9132C81.2048 14.294 81.2048 13.2841 80.5857 12.6591C80.2851 12.3605 79.8784 12.1933 79.4547 12.1942ZM79.4567 56.0023C79.0484 56.0023 78.6402 56.1566 78.3296 56.4672C78.1805 56.6152 78.0622 56.7915 77.9818 56.9856C77.9013 57.1798 77.8602 57.388 77.8608 57.5981C77.8628 58.022 78.0269 58.4205 78.3277 58.7193C78.6324 59.024 79.0289 59.19 79.4547 59.19C79.8825 59.19 80.2829 59.024 80.5857 58.7213C81.2048 58.1001 81.2048 57.0883 80.5818 56.4633C80.2824 56.1669 79.8779 56.0011 79.4567 56.0023ZM88.5277 34.0943C87.6468 34.0943 86.9319 34.8112 86.9319 35.6902C86.9319 36.5691 87.6468 37.284 88.5277 37.284C89.4067 37.284 90.1216 36.5691 90.1216 35.6902C90.1216 34.8112 89.4067 34.0943 88.5277 34.0943ZM59.1152 35.6902C59.1152 37.9462 57.369 39.8018 55.1559 39.9776C55.8787 40.38 56.701 40.6066 57.5546 40.6066C60.2657 40.6066 62.471 38.4013 62.471 35.6902C62.471 35.0124 62.3342 34.3658 62.0842 33.7779C61.8342 33.19 61.4748 32.6606 61.0294 32.2153C61.0275 32.2153 61.0275 32.2133 61.0275 32.2133C60.1368 31.3246 58.9082 30.7738 57.5546 30.7738C56.699 30.7738 55.8747 31.0003 55.152 31.4086C57.3651 31.5805 59.1152 33.4341 59.1152 35.6902ZM55.9919 82.7759V71.4683H49.0383V83.1236H56.033C56.0076 83.0122 55.9919 82.895 55.9919 82.7759ZM59.1152 82.7759C59.1152 82.895 59.0996 83.0122 59.0742 83.1236H66.065L66.0689 71.4683H59.1152V82.7759ZM55.5759 93.7455L57.5546 96.6305L59.5293 93.7455C58.2217 93.5137 56.8835 93.5137 55.5759 93.7455ZM9.12305 53.7463H13.5472V31.1449H9.12305V53.7463Z" fill="url(#paint0_linear_145_493)"/>
<defs>
<linearGradient id="paint0_linear_145_493" x1="9.14287" y1="49.9167" x2="105.401" y2="49.9167" gradientUnits="userSpaceOnUse">
<stop stop-color="#3D81DF"/>
<stop offset="0.685" stop-color="#834AD8"/>
<stop offset="0.85" stop-color="#BB41E1"/>
</linearGradient>
</defs>
</svg>
